<mxfile host="app.diagrams.net" agent="Mozilla/5.0 (Windows NT 10.0; Win64; x64; rv:138.0) Gecko/20100101 Firefox/138.0" version="26.2.14">
  <diagram name="Page-1" id="XOG9hFp-4_riqcvW6nHb">
    <mxGraphModel dx="3691" dy="1084" grid="1" gridSize="10" guides="1" tooltips="1" connect="1" arrows="1" fold="1" page="1" pageScale="1" pageWidth="827" pageHeight="1169" math="0" shadow="0">
      <root>
        <mxCell id="0" />
        <mxCell id="1" parent="0" />
        <mxCell id="0SDqDW_UJInsYtl1_myY-3" value="&lt;span&gt;&lt;/span&gt;&lt;div&gt;&lt;div&gt;&lt;div&gt;&quot;Après un après-midi pluvieux et une longue marche sous un ciel dont les étoiles ont brillé de milles feux vous arrivez..... &quot;&lt;strong&gt;&lt;em&gt;p5 en bas à droite&lt;/em&gt;&lt;/strong&gt;&lt;/div&gt;&lt;/div&gt;&lt;/div&gt;" style="text;whiteSpace=wrap;html=1;labelBorderColor=default;" parent="1" vertex="1">
          <mxGeometry x="-1190" y="300" width="330" height="50" as="geometry" />
        </mxCell>
        <mxCell id="0SDqDW_UJInsYtl1_myY-4" value="" style="endArrow=classic;html=1;rounded=0;entryX=0;entryY=0.5;entryDx=0;entryDy=0;exitX=1;exitY=0.5;exitDx=0;exitDy=0;" parent="1" source="0SDqDW_UJInsYtl1_myY-11" target="0SDqDW_UJInsYtl1_myY-3" edge="1">
          <mxGeometry width="50" height="50" relative="1" as="geometry">
            <mxPoint x="-1270" y="340" as="sourcePoint" />
            <mxPoint x="-1120" y="240" as="targetPoint" />
          </mxGeometry>
        </mxCell>
        <mxCell id="0SDqDW_UJInsYtl1_myY-5" value="Bilbo vous offre ensuite une bonne nuit de sommeil dans l&#39;une des nombreuses chambres d&#39;amis de cul-de-sac. Au matin, vous vous réveillez de bonne heure dans les effluves d&#39;un premier petit déjeuner qui s&#39;annonce copieux.&lt;br class=&quot;soft-break&quot;&gt;&lt;strong&gt;&lt;em&gt;Les PJ peuvent poser toutes leurs questions dont voici quelques éléments&lt;/em&gt;&lt;/strong&gt;" style="rounded=1;whiteSpace=wrap;html=1;" parent="1" vertex="1">
          <mxGeometry x="-780" y="250" width="240" height="150" as="geometry" />
        </mxCell>
        <mxCell id="0SDqDW_UJInsYtl1_myY-6" value="" style="endArrow=classic;html=1;rounded=0;exitX=1;exitY=0.5;exitDx=0;exitDy=0;entryX=0;entryY=0.5;entryDx=0;entryDy=0;" parent="1" source="0SDqDW_UJInsYtl1_myY-3" target="0SDqDW_UJInsYtl1_myY-5" edge="1">
          <mxGeometry width="50" height="50" relative="1" as="geometry">
            <mxPoint x="-860" y="290" as="sourcePoint" />
            <mxPoint x="-810" y="240" as="targetPoint" />
          </mxGeometry>
        </mxCell>
        <mxCell id="0SDqDW_UJInsYtl1_myY-8" value="&lt;div align=&quot;right&quot;&gt;&lt;font face=&quot;Verdana&quot;&gt;&lt;br&gt;&lt;/font&gt;&lt;/div&gt;&lt;div align=&quot;left&quot;&gt;&lt;font face=&quot;Verdana&quot;&gt;&lt;br&gt;&lt;/font&gt;&lt;ul&gt;&lt;li&gt;&lt;font face=&quot;Verdana&quot;&gt;&lt;u&gt;Géographie : &lt;/u&gt;Eux sont à hobbitebourg (centre de la carte), plus précisément à cul-de-sac, &quot; &lt;strong&gt;&lt;em&gt;Comme vous le savez, Grand-Cave se situe dans le quartier ouest&lt;/em&gt;&lt;/strong&gt;,&lt;strong&gt;&lt;em&gt;&lt;br&gt; à environ 12 lieues par la route principale. Néanmoins, il n&#39;est pas &lt;br&gt;envisageable d&#39;emprunter que votre équipée traverse benoîtement le quart&lt;br&gt; de la Comté sans éveiller les soupçons des si nombreux curieux de &lt;br&gt;Hobbitebourg et Lézeau. Vous emprunterez les chemins détournés, car &lt;br&gt;c&#39;est bien cela que nécessite une bonne aventure, et je sais de quoi je &lt;br&gt;parle.&quot;. &lt;/em&gt;&lt;/strong&gt;&lt;em&gt;Bilbo leur présente ensuite l&#39;itinéraire : &lt;br&gt;ils devront se rendre vers le Norrd jusqu&#39;à par-delà la colline puis &lt;br&gt;bifurquer vers l&#39;ouest et traverser la campagne avant de franchir l&#39;Eau à&lt;br&gt; gué. Ils pourront ensuite reprendre temporairement la route de Lézeau &lt;br&gt;avant de bifurquer vers le sud-ouest pour à travers la campagne pour &lt;br&gt;récupérer la route de l&#39;Est et rejoindre Le Carrefour où ils pourront &lt;br&gt;passer la nuit. Ils pourront ensuite rejoindre Grand-Cave le lendemain. &lt;/em&gt;&lt;/font&gt;&lt;/li&gt;&lt;li&gt;&lt;font face=&quot;Verdana&quot;&gt;&lt;u&gt;Pourquoi ne pas le faire lui-même:&lt;/u&gt;&lt;br&gt; sa célébrité l&#39;empêcherait sans aucun doute de se rendre à Grand-Cave &lt;br&gt;en toute discrétion. Il serait reconnu sur le trajet, les gens seraient &lt;br&gt;alertés de sa présence et méfiant. Il est &quot;Sacquet le Fou&quot; après tout.&lt;/font&gt;&lt;/li&gt;&lt;li&gt;&lt;font face=&quot;Verdana&quot;&gt;&lt;u&gt;Chronologie : &lt;/u&gt;Nous sommes en l&#39;an 1360 du comput de la Comté (soit l&#39;an 2960 du 3ème âge de la Terre du Milieu). Le voyage de Bilbo s&#39;est déroulé en l&#39;an &lt;br&gt;1341, il y a 20 ans de ça.&lt;/font&gt;&lt;/li&gt;&lt;li&gt;&lt;font face=&quot;Verdana&quot;&gt;&lt;u&gt;La législation&lt;/u&gt;: Bilbo leur demande bien d&#39;effectuer un cambriolage, ce qui est donc illégal. Les forces de l&#39;ordre au quotidient sont représentées par &lt;strong&gt;Le Guet&lt;/strong&gt; constitué de douze &lt;strong&gt;Shirriffes &lt;/strong&gt;- 3 par quartier - ainsi que de &lt;strong&gt;Frontaliers, &lt;/strong&gt;chargés de patrouiller aux limites de la Comté pour surveiller si des fauteurs &lt;br&gt;de trouble devaient pénétrer. La Comté étant particulièrement calme, ce &lt;br&gt;sont plutôt des fouineurs fainéants passant plus de temps à traîner dans&lt;br&gt; les auberges à boire, qu&#39;à réellement travailler au maintien de &lt;br&gt;l&#39;ordre.&lt;/font&gt;&lt;/li&gt;&lt;li&gt;&lt;font face=&quot;Verdana&quot;&gt;&lt;u&gt;Le mot Mathom&lt;/u&gt; désigne des choses inutiles mais qu&#39;on ne souhaite pas jeter. La maison des mathom est le nom donnée aux musées hobbits.&lt;/font&gt;&lt;/li&gt;&lt;/ul&gt;&lt;font face=&quot;Verdana&quot;&gt;&lt;br&gt;&lt;br&gt;&lt;/font&gt;&lt;/div&gt;&lt;div&gt;&lt;div align=&quot;center&quot;&gt;&lt;font face=&quot;Verdana&quot;&gt;&lt;br&gt;&lt;/font&gt;&lt;/div&gt;&lt;font face=&quot;Verdana&quot;&gt;&lt;br&gt;&lt;/font&gt;&lt;/div&gt;" style="rounded=0;whiteSpace=wrap;html=1;align=right;" parent="1" vertex="1">
          <mxGeometry x="-380" y="35" width="520" height="580" as="geometry" />
        </mxCell>
        <mxCell id="0SDqDW_UJInsYtl1_myY-9" value="" style="endArrow=classic;html=1;rounded=0;exitX=1;exitY=0.5;exitDx=0;exitDy=0;entryX=0;entryY=0.5;entryDx=0;entryDy=0;" parent="1" source="0SDqDW_UJInsYtl1_myY-5" target="0SDqDW_UJInsYtl1_myY-8" edge="1">
          <mxGeometry width="50" height="50" relative="1" as="geometry">
            <mxPoint x="-860" y="320" as="sourcePoint" />
            <mxPoint x="-810" y="270" as="targetPoint" />
          </mxGeometry>
        </mxCell>
        <mxCell id="0SDqDW_UJInsYtl1_myY-11" value="&lt;div&gt;&lt;div&gt;&lt;div&gt;&lt;strong&gt;Scénario 1 : une conspiration complètement timbrée&lt;/strong&gt;&lt;/div&gt;&lt;/div&gt;&lt;/div&gt;" style="shape=process;whiteSpace=wrap;html=1;backgroundOutline=1;" parent="1" vertex="1">
          <mxGeometry x="-1430" y="285" width="150" height="80" as="geometry" />
        </mxCell>
        <mxCell id="0SDqDW_UJInsYtl1_myY-14" value="" style="endArrow=classic;html=1;rounded=0;entryX=0;entryY=0.5;entryDx=0;entryDy=0;exitX=1;exitY=0.5;exitDx=0;exitDy=0;" parent="1" source="0SDqDW_UJInsYtl1_myY-8" target="0SDqDW_UJInsYtl1_myY-19" edge="1">
          <mxGeometry width="50" height="50" relative="1" as="geometry">
            <mxPoint x="-40" y="470" as="sourcePoint" />
            <mxPoint x="300" y="325" as="targetPoint" />
          </mxGeometry>
        </mxCell>
        <mxCell id="0SDqDW_UJInsYtl1_myY-16" value="&lt;p align=&quot;left&quot;&gt;&lt;strong&gt;Sauron : &lt;/strong&gt;Contre toute attente, un épais brouillard se lève soudainement semblant descendre des Landes du Nord. La visibilité est grandement réduite et vous ralentissez drastiquement. De plus d&#39;étranges grognements semblent surgir à travers la brume sans que vous puissiez identifier leur origine. Ce phénomène ne semble pas naturel ! Après vous être égaré plusieurs fois vous parvenez péniblement à Par-delà la colline. Vous avez parcouru une lieue et demi tout au plus et la journée est terminée. &lt;strong&gt;4 points de fatigue + test de VAILLANCE (sinon pas de repos prolongé)&lt;/strong&gt;&lt;/p&gt;" style="rounded=0;whiteSpace=wrap;html=1;align=left;" parent="1" vertex="1">
          <mxGeometry x="870" y="20" width="460" height="140" as="geometry" />
        </mxCell>
        <mxCell id="0SDqDW_UJInsYtl1_myY-18" value="&#xa;&lt;p&gt;&lt;/p&gt;&lt;p&gt;&lt;strong&gt;1-4 : vous croisez Gerda Bophin&lt;/strong&gt; : &quot;C&#39;est Gerda Bophin ! Elle se rend certainement à la forêt de Bindbol. On y trouve les meilleurs coins à champignons de toute la Comté. Je le sais car mon second cousin du côté de ma mère l&#39;a entendu. Son célébrissime ragoût contiendrait un ingrédient secret. Elle n&#39;est plus toute jeune et elle risque de l&#39;emporter dans sa tombe ; suivons-la discrètement ! =&amp;gt; &lt;strong&gt;Le ragoût de gerda Bophin puis 3 pts de fatigue. &lt;/strong&gt;&lt;/p&gt;&#xa;&#xa;" style="rounded=0;whiteSpace=wrap;html=1;" parent="1" vertex="1">
          <mxGeometry x="870" y="200" width="460" height="150" as="geometry" />
        </mxCell>
        <mxCell id="0SDqDW_UJInsYtl1_myY-19" value="&#xa;&lt;div style=&quot;line-height: 90%;&quot;&gt;&lt;br&gt;&lt;p&gt;&lt;strong&gt;REGLE DU VOYAGE p10 de La Comté&lt;/strong&gt;&lt;/p&gt;&lt;p&gt;&lt;/p&gt;&lt;p&gt;Le matin est clair et ensoleillé et une balade est parfaitement appropriée.&lt;/p&gt;&lt;p&gt;&lt;/p&gt;&lt;p&gt;&lt;i&gt;Les PJs choisissent chacun un objet parmi la liste suivante en plus de celui possédé &lt;/i&gt;:&lt;/p&gt;&lt;p&gt;·&lt;em&gt;Un couteau de chasse pour écorcher les lapins, &lt;/em&gt;&lt;/p&gt;&lt;p&gt;·&lt;em&gt;une petite boîte contenant du sel de cuisine (CHASSE),&lt;/em&gt;&lt;/p&gt;&lt;p&gt;·&lt;em&gt;Quelques mètres de corde et un grappin pour escalader une paroi (ATHLÉTISME)&lt;/em&gt;&lt;/p&gt;&lt;p&gt;·&lt;em&gt;Une lanterne à l’épreuve du vent (INSPECTION ),&lt;/em&gt;&lt;/p&gt;&lt;p&gt;·&lt;em&gt;Un instrument de musique exotique (CHANT ),&lt;/em&gt;&lt;/p&gt;&lt;p&gt;·&lt;em&gt;Un baume apaisant (SOINS),&lt;/em&gt;&lt;/p&gt;&lt;p&gt;·&lt;em&gt;Des vêtements coûteux, des boucles d’oreille en perles (PRÉSENCE ou COURTOISIE ),&lt;/em&gt;&lt;/p&gt;&lt;p&gt;·&lt;em&gt;Une boisson qui donne des forces (INSPIRATION),&lt;/em&gt;&lt;/p&gt;&lt;p&gt;·&lt;em&gt;Une héliolite, permettant de naviguer par mauvais temps (VOYAGE),&lt;/em&gt;&lt;/p&gt;&lt;p&gt;·&lt;em&gt;Une pipe de bonne qualité pour se détendre (INTUITION ),&lt;/em&gt;&lt;/p&gt;&lt;p&gt;·&lt;em&gt;Des cartes détaillées d’une région (EXPLORATION),&lt;/em&gt;&lt;/p&gt;&lt;p&gt;·&lt;em&gt;Des instruments pour tailler la pierre (ARTISANAT).&lt;/em&gt;&lt;/p&gt;&lt;p&gt;&lt;/p&gt;&lt;p&gt;&lt;strong&gt;Après vos préparatifs, vous voilà parti !&lt;/strong&gt;&lt;/p&gt;&lt;p&gt;&lt;/p&gt;&lt;p&gt;&lt;strong&gt;&lt;em&gt;Dé du destin pour 1ère hexagone&lt;/em&gt;&lt;/strong&gt;&lt;/p&gt;&lt;br&gt;&lt;br&gt;&lt;/div&gt;&#xa;&#xa;" style="rounded=0;whiteSpace=wrap;html=1;" parent="1" vertex="1">
          <mxGeometry x="300" y="30" width="330" height="590" as="geometry" />
        </mxCell>
        <mxCell id="0SDqDW_UJInsYtl1_myY-20" value="&#xa;&lt;p&gt;&lt;strong&gt;5-8 : &lt;/strong&gt;tout se déroule bien et vous atteignez sans encombre le passage à Gué à l&#39;ouest de Par-delà-la-colline : &lt;strong&gt;2 pts de fatigue&lt;/strong&gt;&lt;/p&gt;&#xa;&#xa;" style="rounded=0;whiteSpace=wrap;html=1;" parent="1" vertex="1">
          <mxGeometry x="870" y="400" width="260" height="90" as="geometry" />
        </mxCell>
        <mxCell id="0SDqDW_UJInsYtl1_myY-22" value="&#xa;&lt;p&gt;&lt;strong&gt;9-10 : connaisseur affuté du quartier, &lt;/strong&gt;vous coupez vers l&#39;ouest avant d&#39;atteindre par delà-la-colline et rejoignez l&#39;Eau plus vite que prévue : &lt;strong&gt;1 pts de fatigue&lt;/strong&gt;&lt;/p&gt;&#xa;&#xa;" style="rounded=0;whiteSpace=wrap;html=1;" parent="1" vertex="1">
          <mxGeometry x="870" y="525" width="250" height="120" as="geometry" />
        </mxCell>
        <UserObject label="&#xa;&lt;strong&gt;Gandalf : &lt;/strong&gt;un improbable marchant itinérant nain croise votre route. Lors des présentations, il est enchanté d&#39;apprendre qu&#39;il est en présence d&#39;un Saquet : &quot;un parent de Bilbo Sacquet ! &lt;em&gt;Norn Mellon !&quot; &lt;/em&gt;Il fouille alors dans sa charette et vous offre une épée courte et une arc de bel.le.s facture. &quot;Vous me semblez aventureux. Cela vous aidera contre les tours du destin ! Que vos poils de pieds ne tombent jamais et que la barbe vous pousse toujours plus longue ! &quot;&#xa;&#xa;" link="&#xa;&lt;strong&gt;Gandalf : &lt;/strong&gt;un improbable marchant itinérant nain croise votre route. Lors des présentations, il est enchanté d&#39;apprendre qu&#39;il est en présence d&#39;un Saquet : &quot;un parent de Bilbo Sacquet ! &lt;em&gt;Norn Mellon !&quot; &lt;/em&gt;Il fouille alors dans sa charette et vous offre une épée courte et une arc de bel.le.s facture. &quot;Vous me semblez aventureux. Cela vous aidera contre les tours du destin ! Que vos poils de pieds ne tombent jamais et que la barbe vous pousse toujours plus longue ! &quot;&#xa;&#xa;" id="0SDqDW_UJInsYtl1_myY-23">
          <mxCell style="rounded=0;whiteSpace=wrap;html=1;" parent="1" vertex="1">
            <mxGeometry x="870" y="670" width="350" height="170" as="geometry" />
          </mxCell>
        </UserObject>
        <mxCell id="0SDqDW_UJInsYtl1_myY-24" value="" style="endArrow=classic;html=1;rounded=0;exitX=1;exitY=0.5;exitDx=0;exitDy=0;entryX=0;entryY=0.5;entryDx=0;entryDy=0;" parent="1" source="0SDqDW_UJInsYtl1_myY-19" target="0SDqDW_UJInsYtl1_myY-23" edge="1">
          <mxGeometry width="50" height="50" relative="1" as="geometry">
            <mxPoint x="800" y="420" as="sourcePoint" />
            <mxPoint x="850" y="370" as="targetPoint" />
          </mxGeometry>
        </mxCell>
        <mxCell id="0SDqDW_UJInsYtl1_myY-25" value="" style="endArrow=classic;html=1;rounded=0;exitX=1;exitY=0.5;exitDx=0;exitDy=0;entryX=0;entryY=0.5;entryDx=0;entryDy=0;" parent="1" source="0SDqDW_UJInsYtl1_myY-19" target="0SDqDW_UJInsYtl1_myY-16" edge="1">
          <mxGeometry width="50" height="50" relative="1" as="geometry">
            <mxPoint x="800" y="420" as="sourcePoint" />
            <mxPoint x="850" y="370" as="targetPoint" />
          </mxGeometry>
        </mxCell>
        <mxCell id="0SDqDW_UJInsYtl1_myY-26" value="" style="endArrow=classic;html=1;rounded=0;exitX=1;exitY=0.5;exitDx=0;exitDy=0;entryX=0;entryY=0.5;entryDx=0;entryDy=0;" parent="1" source="0SDqDW_UJInsYtl1_myY-19" target="0SDqDW_UJInsYtl1_myY-18" edge="1">
          <mxGeometry width="50" height="50" relative="1" as="geometry">
            <mxPoint x="800" y="420" as="sourcePoint" />
            <mxPoint x="850" y="370" as="targetPoint" />
          </mxGeometry>
        </mxCell>
        <mxCell id="0SDqDW_UJInsYtl1_myY-27" value="" style="endArrow=classic;html=1;rounded=0;exitX=1;exitY=0.5;exitDx=0;exitDy=0;entryX=0;entryY=0.5;entryDx=0;entryDy=0;" parent="1" source="0SDqDW_UJInsYtl1_myY-19" target="0SDqDW_UJInsYtl1_myY-20" edge="1">
          <mxGeometry width="50" height="50" relative="1" as="geometry">
            <mxPoint x="800" y="420" as="sourcePoint" />
            <mxPoint x="850" y="370" as="targetPoint" />
          </mxGeometry>
        </mxCell>
        <mxCell id="0SDqDW_UJInsYtl1_myY-28" value="" style="endArrow=classic;html=1;rounded=0;exitX=1;exitY=0.5;exitDx=0;exitDy=0;entryX=0;entryY=0.5;entryDx=0;entryDy=0;" parent="1" source="0SDqDW_UJInsYtl1_myY-19" target="0SDqDW_UJInsYtl1_myY-22" edge="1">
          <mxGeometry width="50" height="50" relative="1" as="geometry">
            <mxPoint x="800" y="420" as="sourcePoint" />
            <mxPoint x="850" y="370" as="targetPoint" />
          </mxGeometry>
        </mxCell>
        <mxCell id="0SDqDW_UJInsYtl1_myY-29" value="&#xa;&lt;p&gt;&lt;strong&gt;Auberge de par-Delà La Colline&lt;/strong&gt;&lt;/p&gt;&lt;p&gt;Il est déjà tard quand vous parvenez à l&#39;auberge. L&#39;aubergiste ne peut que vous proposer une chambre sommaire mais qui vous permet tout-de-même de récupérer :&lt;/p&gt;&lt;ul&gt;&lt;li&gt;TEST DE VOYAGE : 1 point +1 par symbole Tau&lt;/li&gt;&lt;li&gt;Repos prolongée : 1 point&lt;/li&gt;&lt;/ul&gt;&lt;p&gt;Vous repartez le lendemain matin en direction de l&#39;Eau et du passage à gué.&lt;/p&gt;&lt;p&gt;&lt;/p&gt;&lt;p&gt;&lt;/p&gt;&#xa;&#xa;" style="rounded=1;whiteSpace=wrap;html=1;" parent="1" vertex="1">
          <mxGeometry x="1880" y="100" width="406" height="190" as="geometry" />
        </mxCell>
        <mxCell id="0SDqDW_UJInsYtl1_myY-30" value="&#xa;&lt;p&gt;&lt;strong&gt;Le ragoût de Gerda Bophin&lt;/strong&gt;&lt;/p&gt;&lt;p&gt;La Comté p17&lt;/p&gt;&#xa;&#xa;" style="rounded=1;whiteSpace=wrap;html=1;" parent="1" vertex="1">
          <mxGeometry x="1520" y="250" width="270" height="65" as="geometry" />
        </mxCell>
        <mxCell id="0SDqDW_UJInsYtl1_myY-31" value="" style="endArrow=classic;html=1;rounded=0;exitX=1;exitY=0.5;exitDx=0;exitDy=0;entryX=0;entryY=0.75;entryDx=0;entryDy=0;" parent="1" source="0SDqDW_UJInsYtl1_myY-30" target="0SDqDW_UJInsYtl1_myY-29" edge="1">
          <mxGeometry width="50" height="50" relative="1" as="geometry">
            <mxPoint x="1120" y="410" as="sourcePoint" />
            <mxPoint x="1170" y="360" as="targetPoint" />
          </mxGeometry>
        </mxCell>
        <mxCell id="0SDqDW_UJInsYtl1_myY-32" value="" style="endArrow=classic;html=1;rounded=0;exitX=1;exitY=0.5;exitDx=0;exitDy=0;entryX=0;entryY=0.5;entryDx=0;entryDy=0;" parent="1" source="0SDqDW_UJInsYtl1_myY-16" target="0SDqDW_UJInsYtl1_myY-29" edge="1">
          <mxGeometry width="50" height="50" relative="1" as="geometry">
            <mxPoint x="1120" y="410" as="sourcePoint" />
            <mxPoint x="1170" y="360" as="targetPoint" />
          </mxGeometry>
        </mxCell>
        <mxCell id="0SDqDW_UJInsYtl1_myY-33" value="" style="endArrow=classic;html=1;rounded=0;exitX=1;exitY=0.5;exitDx=0;exitDy=0;entryX=0;entryY=0.5;entryDx=0;entryDy=0;" parent="1" source="0SDqDW_UJInsYtl1_myY-18" target="0SDqDW_UJInsYtl1_myY-30" edge="1">
          <mxGeometry width="50" height="50" relative="1" as="geometry">
            <mxPoint x="1120" y="410" as="sourcePoint" />
            <mxPoint x="1170" y="360" as="targetPoint" />
          </mxGeometry>
        </mxCell>
        <mxCell id="0SDqDW_UJInsYtl1_myY-35" value="&lt;div align=&quot;left&quot;&gt;&lt;br&gt;&lt;/div&gt;&lt;p align=&quot;left&quot;&gt;&lt;strong&gt;Passage à gué&lt;/strong&gt;&lt;/p&gt;&lt;p align=&quot;left&quot;&gt;Vous atteignez enfin le passage à gué mais force est de constater qu&#39;avec les fortes pluies récentes, il n&#39;a plus de gué que le nom.&lt;/p&gt;&lt;div align=&quot;left&quot;&gt;&lt;ul&gt;&lt;li&gt;Traverser à la nage : TEST d&#39;ATHLETISME:&lt;ul&gt;&lt;li&gt;Réussite :  Un symbole \tau permet d&#39;aider un compagnon qui rencontrerait des difficultés (+1 D6)&lt;/li&gt;&lt;li&gt;Echec : retour sur la rive initiale toussant et crachant de l&#39;eau.&lt;/li&gt;&lt;/ul&gt;&lt;/li&gt;&lt;li&gt;Recherche d&#39;un moyen de traverser au sec : TEST d&#39;INSPECTION :&lt;ul&gt;&lt;li&gt;Réussite : on repère un grand rondin creux sur la berge opposée qui pourrait servir de radeau mais il va falloir se montrer inventif pour l&#39;amener à vous :&lt;ul&gt;&lt;li&gt;TEST d&#39;ATHLETISME (corde + crochet à lancer).&lt;/li&gt;&lt;li&gt;TEST d&#39;ARCS (s&#39;ils ont un arc et des flèches et une corde)&lt;/li&gt;&lt;/ul&gt;&lt;/li&gt;&lt;/ul&gt;&lt;/li&gt;&lt;/ul&gt;&lt;/div&gt;&lt;p align=&quot;left&quot;&gt;+1D est accordé si le personnage est INSPIRÉ (c&#39;est à dire si l&#39;une de ses particularités correspond bien à la situation, par exemple les tests d&#39;ATHLETISME et RUSTIQUE)&lt;/p&gt;&lt;div align=&quot;left&quot;&gt;&lt;br&gt;&lt;br&gt;&lt;/div&gt;" style="rounded=1;whiteSpace=wrap;html=1;align=left;" parent="1" vertex="1">
          <mxGeometry x="1893" y="400" width="380" height="460" as="geometry" />
        </mxCell>
        <mxCell id="0SDqDW_UJInsYtl1_myY-36" value="" style="endArrow=classic;html=1;rounded=0;entryX=0;entryY=0.5;entryDx=0;entryDy=0;exitX=1;exitY=0.5;exitDx=0;exitDy=0;" parent="1" source="0SDqDW_UJInsYtl1_myY-20" target="0SDqDW_UJInsYtl1_myY-35" edge="1">
          <mxGeometry width="50" height="50" relative="1" as="geometry">
            <mxPoint x="1160" y="480" as="sourcePoint" />
            <mxPoint x="1210" y="430" as="targetPoint" />
          </mxGeometry>
        </mxCell>
        <mxCell id="0SDqDW_UJInsYtl1_myY-37" value="" style="endArrow=classic;html=1;rounded=0;entryX=0;entryY=0.5;entryDx=0;entryDy=0;exitX=1;exitY=0.5;exitDx=0;exitDy=0;" parent="1" source="0SDqDW_UJInsYtl1_myY-22" target="0SDqDW_UJInsYtl1_myY-35" edge="1">
          <mxGeometry width="50" height="50" relative="1" as="geometry">
            <mxPoint x="1160" y="480" as="sourcePoint" />
            <mxPoint x="1210" y="430" as="targetPoint" />
          </mxGeometry>
        </mxCell>
        <mxCell id="0SDqDW_UJInsYtl1_myY-38" value="" style="endArrow=classic;html=1;rounded=0;entryX=0;entryY=0.5;entryDx=0;entryDy=0;exitX=1;exitY=0.5;exitDx=0;exitDy=0;" parent="1" source="0SDqDW_UJInsYtl1_myY-23" target="0SDqDW_UJInsYtl1_myY-35" edge="1">
          <mxGeometry width="50" height="50" relative="1" as="geometry">
            <mxPoint x="1160" y="480" as="sourcePoint" />
            <mxPoint x="1210" y="430" as="targetPoint" />
          </mxGeometry>
        </mxCell>
        <mxCell id="0SDqDW_UJInsYtl1_myY-39" value="" style="endArrow=classic;html=1;rounded=0;entryX=0.5;entryY=0;entryDx=0;entryDy=0;exitX=0.5;exitY=1;exitDx=0;exitDy=0;" parent="1" source="0SDqDW_UJInsYtl1_myY-29" target="0SDqDW_UJInsYtl1_myY-35" edge="1">
          <mxGeometry width="50" height="50" relative="1" as="geometry">
            <mxPoint x="1160" y="480" as="sourcePoint" />
            <mxPoint x="1210" y="430" as="targetPoint" />
          </mxGeometry>
        </mxCell>
        <mxCell id="k6r6zErj2AFBTDEOaumb-12" style="edgeStyle=orthogonalEdgeStyle;rounded=0;orthogonalLoop=1;jettySize=auto;html=1;exitX=1;exitY=0.5;exitDx=0;exitDy=0;" parent="1" source="k6r6zErj2AFBTDEOaumb-1" target="k6r6zErj2AFBTDEOaumb-10" edge="1">
          <mxGeometry relative="1" as="geometry" />
        </mxCell>
        <mxCell id="k6r6zErj2AFBTDEOaumb-1" value="&lt;br&gt;&lt;p&gt;&lt;strong&gt;ARRIVÉE AU CARREFOUR&lt;/strong&gt;&lt;/p&gt;&lt;p&gt;&lt;strong&gt; &lt;/strong&gt;Le Carrefour est plutôt vivant en cette fin d&#39;après-midi/de journée/soirée. En arrivant à l&#39;auberge des randonneurs, vous constatez que les tables sont disposées à l&#39;extérieur, et largement occupées par les clients profitant du beau temps et des jours qui rallongent. Votre groupe bigarré et marqué par votre excursion dans la campagne (tâche d&#39;herbes, chaussures sales, voire vêtement encore mouillés) semble malgré tout attirer l&#39;attention.&lt;/p&gt;&lt;p&gt;Les PJs peuvent :&lt;/p&gt;&lt;ul&gt;&lt;li&gt;Demander des chambres. Hélas l&#39;auberge est complète, un groupe de marchands d&#39;herbe à pipe de Longoulet à réserver la quasi-totalité de l&#39;auberge. L&#39;aubergiste leur indique d&#39;aller voir un fermier du nom de Baldun Bunce, il aurait peut-être de la place dans ses écuries.&lt;/li&gt;&lt;li&gt;s&#39;asseoir à une table et commander à boire. Ils sont sûrement impatient de se désaltérer ! Dans ce cas : Table des RUMEURS p14 de La Comté : &quot;Alors que vous buvez vos pintes pour vous rassérennez, vous entendez votre voisin de table :&lt;ul&gt;&lt;li&gt;&lt;strong&gt;Gandalf &lt;/strong&gt;: un groupe de marchand pressé indique qu&#39;ils doivent repartir de toute urgence à Blanche-Source car leur imbécile de commis à oublier de charger l&#39;essentiel de leur cargaison d&#39;herbe à pipe. Ils repartent sur le champ et chevaucheront de nuit. Leur chambre se libère !&lt;/li&gt;&lt;li&gt;&lt;strong&gt;Sauron : les brutes de Bree : &lt;/strong&gt;TEST DE PERSUASION ou de COURTOISIE sinon BAGARRE&lt;/li&gt;&lt;/ul&gt;&lt;/li&gt;&lt;/ul&gt;&lt;p&gt;&lt;/p&gt;&lt;p&gt;Dans tous les cas, après la rumeur ou directement après l&#39;aubergiste, un curieux les interpelle :&lt;/p&gt;&lt;p&gt;&lt;i&gt;&quot;Bien le Bonjour messieurs-dames. Vous semblé avoir eu une longue journée ! Qu&#39;est-ce qui vous amène au Carrefour depuis l&#39;Est ? Depuis Hobbitebourg? Ca fait une trotte, pi mon camarade vous aurez croisé sur la route, il a lui même fait le trajet aujourd&#39;hui ? A travers la campagne ? Quelle idée, pourquoi donc ? =&amp;gt; TEST d&#39;ENIGMES. En cas d&#39;échec les PJs révèlent quelques informations les liant à Sacquet le Fou. La conversation se tarit alors bien vite et les regards sont maintenant méfiants et désapprobateurs .&lt;/i&gt;&lt;/p&gt;&lt;div&gt;&lt;br&gt;&lt;/div&gt;" style="rounded=1;whiteSpace=wrap;html=1;" parent="1" vertex="1">
          <mxGeometry x="2640" y="100" width="440" height="590" as="geometry" />
        </mxCell>
        <mxCell id="k6r6zErj2AFBTDEOaumb-2" value="" style="endArrow=classic;html=1;rounded=0;exitX=1;exitY=0.5;exitDx=0;exitDy=0;entryX=0;entryY=0.5;entryDx=0;entryDy=0;" parent="1" source="0SDqDW_UJInsYtl1_myY-35" target="k6r6zErj2AFBTDEOaumb-1" edge="1">
          <mxGeometry width="50" height="50" relative="1" as="geometry">
            <mxPoint x="2370" y="570" as="sourcePoint" />
            <mxPoint x="2420" y="520" as="targetPoint" />
          </mxGeometry>
        </mxCell>
        <mxCell id="k6r6zErj2AFBTDEOaumb-8" value="Text" style="text;html=1;align=center;verticalAlign=middle;whiteSpace=wrap;rounded=0;" parent="1" vertex="1">
          <mxGeometry x="1050" y="690" width="60" height="30" as="geometry" />
        </mxCell>
        <mxCell id="k6r6zErj2AFBTDEOaumb-14" style="edgeStyle=orthogonalEdgeStyle;rounded=0;orthogonalLoop=1;jettySize=auto;html=1;exitX=1;exitY=0.5;exitDx=0;exitDy=0;entryX=0;entryY=0.5;entryDx=0;entryDy=0;" parent="1" source="k6r6zErj2AFBTDEOaumb-10" target="k6r6zErj2AFBTDEOaumb-13" edge="1">
          <mxGeometry relative="1" as="geometry" />
        </mxCell>
        <mxCell id="k6r6zErj2AFBTDEOaumb-10" value="&#xa;&lt;p&gt;&lt;strong&gt;Chez Baldon Bunce&lt;/strong&gt;&lt;/p&gt;&lt;p&gt;&quot;Bien le bonsoir, oui je dois bien pouvoir vous trouver un coin pour dormir, les nuits sont douces et la paille est moelleuse. Mais voyez, un satané hibou gros de même refuse de quitter la grange. Ma vieille mule Gertrude est tout effrayée et passe ses nuits à braire. C&#39;est devenu insupportable. Débarassez moi de cette sale bête et je vous offre le coucher et le dîner/l&#39;encas bien volontiers&quot;&lt;/p&gt;&lt;p&gt;&lt;/p&gt;&lt;p&gt;&lt;em&gt;C&#39;est l&#39;occasion de rappeler aux PJs que les animaux sont considérés comme intelligents et qu&#39;il peut être utile de les traiter avec respect ou de tenter de communiquer avec eux.&lt;/em&gt;&lt;/p&gt;&lt;p&gt;&lt;/p&gt;&lt;p&gt;TEST de COURTOISIE (option aimable, il faut décrire ce qu&#39;ils disent au hibou), PRESENCE ou CHASSE (option déplaisante).&lt;/p&gt;&lt;p&gt;&lt;/p&gt;&lt;p&gt;S&#39;ils intimident le hibou : &quot;Le hibou agite ses grandes ailes mais votre présente finit par l&#39;effrayer. Il hulule un dernière fois, et la mule brait, comme en réponse, avant de s&#39;éloigner définitivement.&quot;&lt;/p&gt;&lt;p&gt;&lt;/p&gt;&lt;p&gt;Les PJs peuvent s&#39;installer et dormir. Le fermier leur a fourni un petit panier contenant des restes de pain et de bière en guise d&#39;encas.&lt;/p&gt;&lt;p&gt;&lt;/p&gt;&lt;p&gt;&lt;em&gt;Si c&#39;est leur première nuit :&lt;/em&gt;&lt;/p&gt;&lt;ul&gt;&lt;li&gt;&lt;em&gt;TEST DE VOYAGE  : 1 point +1 par symbole Tau&lt;/em&gt;&lt;/li&gt;&lt;li&gt;&lt;em&gt;Repos prolongée : 1 point&lt;/em&gt;&lt;/li&gt;&lt;/ul&gt;&lt;p&gt;&lt;/p&gt;&#xa;&#xa;" style="rounded=1;whiteSpace=wrap;html=1;" parent="1" vertex="1">
          <mxGeometry x="3308" y="140" width="332" height="510" as="geometry" />
        </mxCell>
        <mxCell id="k6r6zErj2AFBTDEOaumb-17" style="edgeStyle=orthogonalEdgeStyle;rounded=0;orthogonalLoop=1;jettySize=auto;html=1;exitX=1;exitY=0.5;exitDx=0;exitDy=0;entryX=0;entryY=0.5;entryDx=0;entryDy=0;" parent="1" source="k6r6zErj2AFBTDEOaumb-13" target="k6r6zErj2AFBTDEOaumb-16" edge="1">
          <mxGeometry relative="1" as="geometry" />
        </mxCell>
        <mxCell id="k6r6zErj2AFBTDEOaumb-13" value="&lt;br&gt;&lt;p&gt;&lt;strong&gt;Grand-Cave&lt;/strong&gt;&lt;/p&gt;&lt;p&gt;&lt;i&gt;Vous repartez le lendemain pour une longue marche sur la route principale en direction de l&#39;ouest qui se déroule sans encombre, entrecoupée des indispensables pause pour se rassasier. Vous arrivez en fin de journée à Grand-Cave.&lt;/i&gt;&lt;/p&gt;&lt;p&gt;&lt;i&gt;&lt;b&gt;PUIS TEXTE p7 en bas à droite.&lt;/b&gt;&lt;/i&gt;&lt;/p&gt;&lt;p&gt;&lt;i&gt;Des frontaliers s&#39;approchent. A la faveur de la nuit, il vous paraît pertinent de vous cacher prestement !&lt;/i&gt;&lt;/p&gt;&lt;p align=&quot;left&quot;&gt;&lt;br&gt;&lt;/p&gt;&lt;div&gt;&lt;br&gt;&lt;/div&gt;" style="rounded=1;whiteSpace=wrap;html=1;" parent="1" vertex="1">
          <mxGeometry x="3770" y="265" width="250" height="260" as="geometry" />
        </mxCell>
        <mxCell id="k6r6zErj2AFBTDEOaumb-16" value="&lt;div align=&quot;center&quot;&gt;&lt;br&gt;&lt;/div&gt;&lt;p align=&quot;center&quot;&gt;&lt;i&gt;TEST DE DISCRETION&amp;nbsp; pour chaque personnage&lt;/i&gt;&lt;/p&gt;&lt;div align=&quot;center&quot;&gt;&lt;br&gt;&lt;br&gt;&lt;/div&gt;" style="rounded=0;whiteSpace=wrap;html=1;align=center;" parent="1" vertex="1">
          <mxGeometry x="4090" y="365" width="180" height="60" as="geometry" />
        </mxCell>
        <mxCell id="k6r6zErj2AFBTDEOaumb-18" value="" style="endArrow=classic;html=1;rounded=0;exitX=1;exitY=0.5;exitDx=0;exitDy=0;entryX=0;entryY=0.5;entryDx=0;entryDy=0;" parent="1" source="k6r6zErj2AFBTDEOaumb-16" target="k6r6zErj2AFBTDEOaumb-20" edge="1">
          <mxGeometry relative="1" as="geometry">
            <mxPoint x="3750" y="500" as="sourcePoint" />
            <mxPoint x="4450" y="290" as="targetPoint" />
          </mxGeometry>
        </mxCell>
        <mxCell id="k6r6zErj2AFBTDEOaumb-19" value="&lt;b&gt;&lt;i&gt;échec&lt;/i&gt;&lt;/b&gt;" style="edgeLabel;resizable=0;html=1;;align=center;verticalAlign=middle;" parent="k6r6zErj2AFBTDEOaumb-18" connectable="0" vertex="1">
          <mxGeometry relative="1" as="geometry" />
        </mxCell>
        <mxCell id="k6r6zErj2AFBTDEOaumb-20" value="&lt;div align=&quot;left&quot;&gt;&lt;i&gt;Alors que vous essayez de disparaître dans&amp;nbsp; les ombres, une frontalière (Ada FOUINE) affutée et un peu zélée vous remarque: &quot;Halte-là messieurs dames, vos visages ne me sont pas familiers. Vous n&#39;êtes pas du Carrefour. Il est de mon devoir de poser des questions aux vagabonds après la tombée de la nuit :&lt;/i&gt;&lt;/div&gt;&lt;div align=&quot;left&quot;&gt;&lt;ul&gt;&lt;li&gt;&lt;i&gt;Qu&#39;est ce qui vous amène par ici à cette heure tardive ?&lt;/i&gt;&lt;/li&gt;&lt;li&gt;&lt;i&gt;D&#39;où venez-vous?&lt;/i&gt;&lt;/li&gt;&lt;li&gt;&lt;i&gt;Où logez-vous ce soir ?&lt;br&gt;&lt;/i&gt;&lt;/li&gt;&lt;/ul&gt;&lt;div&gt;&lt;i&gt;A moins que les PJs ne s&#39;en sortent particulièrement bien lors de l&#39;interrogatoire,&lt;/i&gt;&lt;/div&gt;&lt;div&gt;&lt;i&gt;TEST DE PERSUASION ou ENIGMES (selon qu&#39;ils essaient d&#39;être convaincant ou embobinant)&lt;/i&gt;&lt;/div&gt;&lt;/div&gt;" style="rounded=0;whiteSpace=wrap;html=1;spacingLeft=5;spacingRight=5;" parent="1" vertex="1">
          <mxGeometry x="4400" y="120" width="270" height="295" as="geometry" />
        </mxCell>
        <mxCell id="k6r6zErj2AFBTDEOaumb-21" value="" style="endArrow=classic;html=1;rounded=0;exitX=1;exitY=0.5;exitDx=0;exitDy=0;entryX=0;entryY=0.5;entryDx=0;entryDy=0;" parent="1" source="k6r6zErj2AFBTDEOaumb-20" target="k6r6zErj2AFBTDEOaumb-24" edge="1">
          <mxGeometry relative="1" as="geometry">
            <mxPoint x="4500" y="615" as="sourcePoint" />
            <mxPoint x="4760" y="330" as="targetPoint" />
          </mxGeometry>
        </mxCell>
        <mxCell id="k6r6zErj2AFBTDEOaumb-22" value="&lt;b&gt;&lt;i&gt;échec&lt;/i&gt;&lt;/b&gt;" style="edgeLabel;resizable=0;html=1;;align=center;verticalAlign=middle;" parent="k6r6zErj2AFBTDEOaumb-21" connectable="0" vertex="1">
          <mxGeometry relative="1" as="geometry" />
        </mxCell>
        <mxCell id="k6r6zErj2AFBTDEOaumb-40" style="edgeStyle=orthogonalEdgeStyle;rounded=0;orthogonalLoop=1;jettySize=auto;html=1;exitX=1;exitY=0.5;exitDx=0;exitDy=0;entryX=0;entryY=0.5;entryDx=0;entryDy=0;" parent="1" source="k6r6zErj2AFBTDEOaumb-24" target="k6r6zErj2AFBTDEOaumb-38" edge="1">
          <mxGeometry relative="1" as="geometry" />
        </mxCell>
        <mxCell id="k6r6zErj2AFBTDEOaumb-24" value="&lt;div&gt;&lt;i&gt;Après vous avoir cuisiné, la frontalière n&#39;est manifestement pas convaincu. Elle n&#39;a pas de motif de vous importuner plus avant cependant. &quot;Bon et bien, je vous invite à vous en retourner rapidement à .....insert lieu.... Il n&#39;est plus l&#39;heure d&#39;errer dans la ville. Bonsoir&quot;&lt;/i&gt;&lt;/div&gt;&lt;div&gt;&lt;i&gt;&lt;br&gt;&lt;/i&gt;&lt;/div&gt;&lt;div&gt;&lt;i&gt;Vous la voyiez ensuite se diriger vivement vers la maison des Mathoms et, fait rare dans la Comté (les vols y sont rarissimes), vous l&#39;entendez tourner une clé dans une serrure, pour en verrouiller la porte. &lt;/i&gt;&lt;/div&gt;" style="whiteSpace=wrap;html=1;aspect=fixed;" parent="1" vertex="1">
          <mxGeometry x="4830" y="147.5" width="240" height="240" as="geometry" />
        </mxCell>
        <mxCell id="k6r6zErj2AFBTDEOaumb-26" value="&lt;div&gt;Si les PJs se renseignent sur Grand-Cave avant de s&#39;y rendre :&lt;/div&gt;&lt;div align=&quot;left&quot;&gt;&lt;ul&gt;&lt;li&gt;c&#39;est la plus grande ville de la Comté et accueille une population de hobbits aisés&lt;/li&gt;&lt;li&gt;le maire s&#39;appelle Pott Piedblanc et possède une belle demeure&lt;/li&gt;&lt;li&gt;c&#39;est à Grand-Cave qu&#39;est installé et géré le service de &quot;Poste rapide&quot;&lt;/li&gt;&lt;li&gt;la principale Auberge s&#39;appelle &quot;L&#39;auberge de l&#39;oiseau et du nourisson&quot; et se situe sur une colline au nord de Grand-Cave&lt;/li&gt;&lt;li&gt;la maison des Mathoms est sans doute le joyau de Grand-Cave avec l&#39;hôtel de ville et est particulièrement réputée pour ses importantes collection d&#39;objets historiques et précieux, livres de cuisine, archives généalogiques, cartes, etc. Tout deux sont situés sur une colline au sud de Grand-Cave&lt;/li&gt;&lt;li&gt;la foire libre est le principal évènement de l&#39;année, 3 jours autour du solstice d&#39;été : grandes festivités, élection du maire. Gandalf en était un habitué jusqu&#39;il y a encore quelques décennies. &lt;br&gt;&lt;/li&gt;&lt;/ul&gt;&lt;/div&gt;" style="rounded=0;whiteSpace=wrap;html=1;spacingTop=5;" parent="1" vertex="1">
          <mxGeometry x="3700" y="560" width="520" height="220" as="geometry" />
        </mxCell>
        <mxCell id="k6r6zErj2AFBTDEOaumb-29" value="" style="endArrow=classic;html=1;rounded=0;exitX=1;exitY=0.5;exitDx=0;exitDy=0;entryX=0;entryY=0.5;entryDx=0;entryDy=0;" parent="1" source="k6r6zErj2AFBTDEOaumb-16" target="k6r6zErj2AFBTDEOaumb-34" edge="1">
          <mxGeometry relative="1" as="geometry">
            <mxPoint x="4300" y="650" as="sourcePoint" />
            <mxPoint x="4430" y="523" as="targetPoint" />
          </mxGeometry>
        </mxCell>
        <mxCell id="k6r6zErj2AFBTDEOaumb-30" value="&lt;b&gt;&lt;i&gt;succès&lt;/i&gt;&lt;/b&gt;" style="edgeLabel;resizable=0;html=1;;align=center;verticalAlign=middle;" parent="k6r6zErj2AFBTDEOaumb-29" connectable="0" vertex="1">
          <mxGeometry relative="1" as="geometry" />
        </mxCell>
        <mxCell id="k6r6zErj2AFBTDEOaumb-42" style="edgeStyle=orthogonalEdgeStyle;rounded=0;orthogonalLoop=1;jettySize=auto;html=1;exitX=1;exitY=0.5;exitDx=0;exitDy=0;entryX=0;entryY=0.5;entryDx=0;entryDy=0;" parent="1" source="k6r6zErj2AFBTDEOaumb-34" target="k6r6zErj2AFBTDEOaumb-41" edge="1">
          <mxGeometry relative="1" as="geometry" />
        </mxCell>
        <mxCell id="k6r6zErj2AFBTDEOaumb-34" value="&lt;i&gt;Vous vous dissimulez habilement dans des haies bordant la route principalement. En un instant, vous disparaissez tous les 3. La frontalière passe non loin mais semble bien n&#39;avoir rien remarqué.&lt;/i&gt;" style="rounded=0;whiteSpace=wrap;html=1;" parent="1" vertex="1">
          <mxGeometry x="4449" y="620" width="200" height="130" as="geometry" />
        </mxCell>
        <mxCell id="k6r6zErj2AFBTDEOaumb-35" value="" style="endArrow=classic;html=1;rounded=0;exitX=1;exitY=0.75;exitDx=0;exitDy=0;entryX=0;entryY=0.5;entryDx=0;entryDy=0;" parent="1" source="k6r6zErj2AFBTDEOaumb-20" target="k6r6zErj2AFBTDEOaumb-37" edge="1">
          <mxGeometry relative="1" as="geometry">
            <mxPoint x="4670" y="380" as="sourcePoint" />
            <mxPoint x="4830" y="508" as="targetPoint" />
          </mxGeometry>
        </mxCell>
        <mxCell id="k6r6zErj2AFBTDEOaumb-36" value="&lt;b&gt;&lt;i&gt;succès&lt;/i&gt;&lt;/b&gt;" style="edgeLabel;resizable=0;html=1;;align=center;verticalAlign=middle;" parent="k6r6zErj2AFBTDEOaumb-35" connectable="0" vertex="1">
          <mxGeometry relative="1" as="geometry" />
        </mxCell>
        <mxCell id="k6r6zErj2AFBTDEOaumb-43" style="edgeStyle=orthogonalEdgeStyle;rounded=0;orthogonalLoop=1;jettySize=auto;html=1;exitX=0.5;exitY=1;exitDx=0;exitDy=0;entryX=0;entryY=0;entryDx=0;entryDy=0;" parent="1" source="k6r6zErj2AFBTDEOaumb-37" target="k6r6zErj2AFBTDEOaumb-41" edge="1">
          <mxGeometry relative="1" as="geometry" />
        </mxCell>
        <mxCell id="k6r6zErj2AFBTDEOaumb-37" value="Convaincu de vos bonnes intentions, la frontalière vous laisse tranquille en vous souhaitant une bonne soirée. Vous faites mine de continuer votre chemin en direction de l&#39;auberge pendant qu&#39;elle poursuit sa route. " style="rounded=0;whiteSpace=wrap;html=1;" parent="1" vertex="1">
          <mxGeometry x="4800" y="470" width="300" height="95" as="geometry" />
        </mxCell>
        <mxCell id="k6r6zErj2AFBTDEOaumb-44" style="edgeStyle=orthogonalEdgeStyle;rounded=0;orthogonalLoop=1;jettySize=auto;html=1;exitX=0.5;exitY=1;exitDx=0;exitDy=0;entryX=0.5;entryY=0;entryDx=0;entryDy=0;" parent="1" source="k6r6zErj2AFBTDEOaumb-38" target="k6r6zErj2AFBTDEOaumb-41" edge="1">
          <mxGeometry relative="1" as="geometry" />
        </mxCell>
        <mxCell id="k6r6zErj2AFBTDEOaumb-38" value="&lt;div align=&quot;left&quot;&gt;Les PJs peuvent :&lt;/div&gt;&lt;div align=&quot;left&quot;&gt;&lt;ul&gt;&lt;li&gt;inspecter les alentours de la maison des Mathoms pour remarquer qu&#39;il y a une petite ouverture par le toit. Une escalade semble envisageable : TEST D&#39;ATHLETISME pour chaque personnage. Si la moitié des héros échouent, ils emportent les autres dans leur chute (et réveillent le chien de garde).&lt;/li&gt;&lt;ul&gt;&lt;li&gt;La fenêtre est déverrouillée mais atterrir en douceur n&#39;est pas évident. Un second TEST D&#39;ATHLETISME est nécessaire sous peine de réveiller le chien de garde. &lt;br&gt;&lt;/li&gt;&lt;/ul&gt;&lt;li&gt;l&#39;inspection prolongée permet aussi de remarquer une vieille porte, à flanc de colline qui doit certainement mener au sous-sol de la maison des Mathoms. S&#39;ils s&#39;engagent par là :&lt;/li&gt;&lt;ul&gt;&lt;li&gt;vous avancez dans un bref couloir avant de déboucher sur une salle souterraine étroite encombrée d&#39;un fatras de babioles oubliées et toiles d&#39;araignées. TEST DE DISCRETION sinon des dizaines de rats s&#39;enfuient en couinant (et réveille le chien).&lt;/li&gt;&lt;li&gt;Une trappe située dans le plafond est la seule ouverture. Une fois franchit les PJs pénètre dans la maison des Mathoms.&lt;/li&gt;&lt;/ul&gt;&lt;/ul&gt;&lt;/div&gt;" style="whiteSpace=wrap;html=1;aspect=fixed;align=left;" parent="1" vertex="1">
          <mxGeometry x="5300" y="77.5" width="400" height="400" as="geometry" />
        </mxCell>
        <mxCell id="k6r6zErj2AFBTDEOaumb-41" value="&lt;div&gt;&lt;i&gt;&lt;b&gt;Lire paragraphe p8 en bas à droite.&lt;/b&gt;&lt;/i&gt;&lt;/div&gt;&lt;div&gt;&lt;i&gt;&lt;b&gt;Accentuer la description du caractère précieux avec la p18 de La Comté&lt;/b&gt;&lt;/i&gt;&lt;/div&gt;" style="rounded=0;whiteSpace=wrap;html=1;" parent="1" vertex="1">
          <mxGeometry x="5170" y="655" width="140" height="115" as="geometry" />
        </mxCell>
        <mxCell id="k6r6zErj2AFBTDEOaumb-56" style="edgeStyle=orthogonalEdgeStyle;rounded=0;orthogonalLoop=1;jettySize=auto;html=1;exitX=1;exitY=0.5;exitDx=0;exitDy=0;entryX=0;entryY=0.5;entryDx=0;entryDy=0;" parent="1" source="k6r6zErj2AFBTDEOaumb-45" target="k6r6zErj2AFBTDEOaumb-55" edge="1">
          <mxGeometry relative="1" as="geometry" />
        </mxCell>
        <mxCell id="k6r6zErj2AFBTDEOaumb-45" value="&lt;div&gt;&lt;i&gt;Le chien réveillé vous flaire aussitôt et rappliquent vers vous. Il aboie aussitôt qu&#39;il vous voie mais vous êtes amusé de constater que ce n&#39;est qu&#39;un vulgaire roquet, plus énergique que méchant.&lt;/i&gt;&lt;/div&gt;&lt;div&gt;&lt;i&gt;&lt;br&gt;&lt;/i&gt;&lt;/div&gt;&lt;div align=&quot;left&quot;&gt;Les PJs peuvent tenter un TEST DE COURTOISIE pour calmer le chien. En cas de réussite il est amadoué et se rendort. Sinon il ne cesse d&#39;aboyer ce qui rend les PJs très nerveux =&amp;gt; PERTE d&#39;1 POINT D&#39;ESPOIR&lt;/div&gt;&lt;div align=&quot;left&quot;&gt;De plus les PJs doivent s&#39;activer dans leur recherche et le stress les défavorise : ils lancent 2 dés du destin et choisissent le plus défavorable lors de leurs TESTS d&#39;INSPECTION.&lt;/div&gt;&lt;div align=&quot;left&quot;&gt;S&#39;il échouent à 3 tests d&#39;inspection, ils finissent par trouver la carte dans le brouhaha des aboiements et PERTE D&#39;UN NOUVEAU POINT D&#39;ESPOIR.&lt;/div&gt;&lt;div align=&quot;left&quot;&gt;&lt;br&gt;&lt;/div&gt;" style="rounded=0;whiteSpace=wrap;html=1;" parent="1" vertex="1">
          <mxGeometry x="5540" y="535" width="350" height="215" as="geometry" />
        </mxCell>
        <mxCell id="k6r6zErj2AFBTDEOaumb-46" value="" style="endArrow=classic;html=1;rounded=0;exitX=1;exitY=0.5;exitDx=0;exitDy=0;entryX=0;entryY=0.5;entryDx=0;entryDy=0;" parent="1" source="k6r6zErj2AFBTDEOaumb-41" target="k6r6zErj2AFBTDEOaumb-45" edge="1">
          <mxGeometry relative="1" as="geometry">
            <mxPoint x="5540" y="510" as="sourcePoint" />
            <mxPoint x="5640" y="510" as="targetPoint" />
          </mxGeometry>
        </mxCell>
        <mxCell id="k6r6zErj2AFBTDEOaumb-47" value="chien réveillé" style="edgeLabel;resizable=0;html=1;;align=center;verticalAlign=middle;" parent="k6r6zErj2AFBTDEOaumb-46" connectable="0" vertex="1">
          <mxGeometry relative="1" as="geometry" />
        </mxCell>
        <mxCell id="k6r6zErj2AFBTDEOaumb-51" value="" style="endArrow=classic;html=1;rounded=0;exitX=0.5;exitY=1;exitDx=0;exitDy=0;entryX=0;entryY=0.5;entryDx=0;entryDy=0;" parent="1" source="k6r6zErj2AFBTDEOaumb-41" target="k6r6zErj2AFBTDEOaumb-54" edge="1">
          <mxGeometry relative="1" as="geometry">
            <mxPoint x="5250" y="715" as="sourcePoint" />
            <mxPoint x="5440" y="910" as="targetPoint" />
          </mxGeometry>
        </mxCell>
        <mxCell id="k6r6zErj2AFBTDEOaumb-52" value="chien endormi" style="edgeLabel;resizable=0;html=1;;align=center;verticalAlign=middle;" parent="k6r6zErj2AFBTDEOaumb-51" connectable="0" vertex="1">
          <mxGeometry relative="1" as="geometry" />
        </mxCell>
        <mxCell id="k6r6zErj2AFBTDEOaumb-57" style="edgeStyle=orthogonalEdgeStyle;rounded=0;orthogonalLoop=1;jettySize=auto;html=1;exitX=1;exitY=0.5;exitDx=0;exitDy=0;entryX=0;entryY=0.75;entryDx=0;entryDy=0;" parent="1" source="k6r6zErj2AFBTDEOaumb-54" target="k6r6zErj2AFBTDEOaumb-55" edge="1">
          <mxGeometry relative="1" as="geometry" />
        </mxCell>
        <mxCell id="k6r6zErj2AFBTDEOaumb-54" value="Les PJs doivent réussir 3 tests d&#39;inspection. 2 échecs réveillent le chien. Ne pas oublier la mécanique &lt;b&gt;d&#39;INSPIRATION associé à l&#39;utilisation d&#39;un point d&#39;ESPOIR (avec le trait Curieux)&lt;/b&gt;" style="rounded=0;whiteSpace=wrap;html=1;" parent="1" vertex="1">
          <mxGeometry x="5565" y="1040" width="300" height="110" as="geometry" />
        </mxCell>
        <mxCell id="k6r6zErj2AFBTDEOaumb-62" value="" style="edgeStyle=orthogonalEdgeStyle;rounded=0;orthogonalLoop=1;jettySize=auto;html=1;entryX=0;entryY=0.5;entryDx=0;entryDy=0;" parent="1" source="k6r6zErj2AFBTDEOaumb-55" target="Tu-FaEpAWkRkGIklFACU-4" edge="1">
          <mxGeometry relative="1" as="geometry">
            <mxPoint x="6473.000048943988" y="716.9333333333334" as="targetPoint" />
          </mxGeometry>
        </mxCell>
        <mxCell id="k6r6zErj2AFBTDEOaumb-55" value="&lt;div&gt;Enfin en possession de la carte, vous ressortez par .... insert lieu....&lt;/div&gt;&lt;div&gt;&lt;i&gt;Faire une description approprié selon qu&#39;ils ressortent par la porte d&#39;entrée (elle est déverrouillable depuis l&#39;intérieur), par la trappe donnant sur l&#39;entrée éloignée,&amp;nbsp; et faire un éventuel test approprié. Si le chien est réveillé,il paraît risqué de sortir par la porte d&#39;entrée.&lt;/i&gt;&lt;/div&gt;&lt;div&gt;&lt;br&gt;&lt;/div&gt;" style="rounded=1;whiteSpace=wrap;html=1;" parent="1" vertex="1">
          <mxGeometry x="6088" y="627.5" width="230" height="172.5" as="geometry" />
        </mxCell>
        <mxCell id="Tu-FaEpAWkRkGIklFACU-2" value="&#xa;&lt;div&gt;&lt;br&gt;&lt;/div&gt;&lt;div&gt;&lt;br&gt;&lt;/div&gt;&lt;div&gt;Si un PJ envisage de s&#39;approprier un &#xa;objet autre que la carte, faire un test d&#39;OMBRE - CUPIDITÉ/SAGESSE : &#xa;récupérer un objet appartenant au grand Bilbo est une chose mais il &#xa;serait absolument inacceptable de voler un objet précieux de la maison &#xa;des Mathoms. &lt;br&gt;&lt;/div&gt;&lt;div&gt;+1D au test d&#39;Ombre - cupidité (particularité des hobbits)&lt;/div&gt;&#xa;&#xa;" style="ellipse;whiteSpace=wrap;html=1;" parent="1" vertex="1">
          <mxGeometry x="5520" y="770" width="410" height="190" as="geometry" />
        </mxCell>
        <mxCell id="Tu-FaEpAWkRkGIklFACU-3" value="&#xa;&lt;div&gt;&lt;br&gt;&lt;/div&gt;&lt;div&gt;&lt;br&gt;&lt;/div&gt;&lt;div&gt;Lors des premiers tests, penser à expliquer :&lt;/div&gt;&lt;div align=&quot;left&quot;&gt;&lt;ul&gt;&lt;li&gt;les points d&#39;espoir (+1D ou +2D si personnage inspiré par ses traits)&lt;/li&gt;&lt;li&gt;les compétences favorites et les tests favorisés&lt;/li&gt;&lt;/ul&gt;&lt;/div&gt;&#xa;&#xa;" style="ellipse;whiteSpace=wrap;html=1;" parent="1" vertex="1">
          <mxGeometry x="1540" y="355" width="300" height="170" as="geometry" />
        </mxCell>
        <mxCell id="Tu-FaEpAWkRkGIklFACU-4" value="&lt;b&gt;EPILOGUE lire p9 en bas à droite&lt;/b&gt;" style="shape=process;whiteSpace=wrap;html=1;backgroundOutline=1;" parent="1" vertex="1">
          <mxGeometry x="6470" y="683.75" width="120" height="60" as="geometry" />
        </mxCell>
        <mxCell id="sK1aJgKQ6P22SOUbBnNF-1" value="" style="shape=image;verticalLabelPosition=bottom;labelBackgroundColor=default;verticalAlign=top;aspect=fixed;imageAspect=0;image=data:image/png,iVBORw0KGgoAAAANSUhEUgAAAWsAAAGXCAYAAAB1FnEaAAAgAElEQVR4XuxdB4AURdOtIx7gwZGzICAgSjIhCIiAKEkEBMk55yg55yA55yBRsh9gREGi5CRJUHLO6Tjg+OrVTM/NLrt3t5e80P3/fsDOTE/Pm57X1dXV9bwCnj9/QShe6n/4n/LLC3qBP/l3L/xfnDhymi4aAY2ARkAjEPkIeAlZC1G/XF4IWxskHscLrO3mxMhvt76jRkAjoBGIVQh4BQSYlnUgL4tlzXY1/w//JwStyTpW9Qr9sBoBjUCUQ8CwrLm8eBHAvBxoPYtVbZK1l1cc45guGgGNgEZAI/CfIOD1/NlTZVMzIbNfmkkZtAzyNh3W4rPWLpD/5P3om2oENAIaAcMZ/fyZP/usleVsErWxwmgsNIK8tVWtu4tGQCOgEfhPEfB6/vzZC8NyFu42GFx42gwFEb7WLpD/9C3pm2sENAKxHgFxg4CMDWo2SNuwrxVhg6wdw/Zu7t1NZ1cvp0yfVaA0RT+K9SBqADQCGgGNQEQjYFjWIGP2UWNR0WGRMQB+a6I4ceM5tOPkrKl0bvV3lL/PIEr9wYcR3UZdv0ZAI6ARiPUIWKF7L5iYVbieYWHH4X9zhAjC9pzIel/vrnRr/176cNa3lCh9hlgPogZAI6AR0AhENAKWz5rjrQN3KVqbYcRhTXHixHVox5Y6X9LThw+o1KqNOkokot+Qrl8joBHQCICK4QZBPLWQNXzXsg+GLWv89gIEHpfixUtggfXswX36/atK5JMjJxUaPy1YEK/+8Ttd276V/O/eJu+06Shz2YqUNGduurbtD7r912HKWqU6JUyZSuqBL/zGvt3sCy9Ptw7up1sH9pF3mrSUq1lrenzpIp1bv5ZSFXyHPTYBdGXrZvK/dZMK9h9GXvFMNw3/fm3HVq73CD089y8lSpueUr37vktXjbpX5nIV6fHVq3R95zZ6dOUy+WTLTlmrfkXxfZIG+2z6BI2ARkAjEFkIGHHWTM78p7WQaESDGLHWcdkFYneD3DlykPZ060jpS39Gb3b82m07n967R4dHDaFbTL72gnrzdu1FF3/aQLeZkEssW0fxXnlFTjk0bABdYxL2YTK/f/K4/Jbu49L0VpeedGHj93R80ljyeT0X3eNjGFASMMkXX7Bcznt08QIdHj3Uus5+z9SFi1K+Hv3IK27gDEHdKyMPHhe5bnvBoFJk6hyKk9A7st6Dvo9GQCOgEQgSAa+n/n6wpYWe4e5QOxflT/4ZRG13g5z/fjWdmDaRcrK1+2qlqi4rf8HEv6N1E3p04Twlzf0m5ahTXyxxvxvX6O/5s+nusaPiPokbPwEVZbJVoYHbmzfga87JNW+260wJkqegAP8nlDBVajo2eRxd3LBOfnurc3e2zt8g/zu3KXHGTOR37SrtaNWYnj9+RBnYKs/0aXlKnCET3fv7pFz3+NIFylG/CWWtXstqr7pX4kyZKXerDpT09Zz04MzfdGjEYLHY87TrQhk+Lae7j0ZAI6ARiBIICFmrKBArRE92mhs+bLhB7GT91/jRdImt4reHfkMp8hd0+RB/L5hD/y77VsL68nXrw4xvhP7BUg94/pR2tm5Gj5nIkxd4h94eNELu8+LpU/q18mdizRabu5jiJ03mUPfuLm2F5N8ePJJSFHzX4die7h3pzuGDlKd9V8pQpqzDsceXL9G25vUpXuIkVGLpGqMdPJj8+sVn5MWDxYcz5pN36jTWNefWrKCTM6dQ1hp1KUfdhlHiJelGaAQ0AhoBL/8nj18IGZvx1UZEiDCruA1g9drjrP/s2ErcEMUXraQEvslfQhD+5E1Vy1EcJsJicxZbLg4j5aqRb+TvhXPo7PIllKlSFcrZuCWTtRc9+OcM7WrbjNKWKCVuEufyW7UKFDdRYsvtoY7f2r+H9vX+mlKyb7rggOEu36jV5m9XiGX+4Mxp2tm2KaUtXpLyduvtcM3lTT/R0W+GU44GTSlrtZq6h2gENAIagSiBgFjW4pNWGfbMSBAhadMtYt/BqIhYWanOT/Hg3zNsOTehVIWKUIG+g63DVmIo/uXfZYvo9Ldz6Y0OXSl9yU/EJXL1t1/p6JjhlKtlO8pc4QuHav2uX6OtDWpQ6iJFKX+vgQ7HTs2ZTmdXLgvSbbH76w509+ghKsqDB/zRipBd3eufJQu4bfMoP7c9NT+DLhoBjYBGICog4PXs6RNZYIQ1HQfuCkSEcGQICsha9jOa2839rl6hrY1qkW/eAvTu8DHGJho5MXA7+rVtW+jQ0P6UqWJlyt2irSNZm1b7gQE96eaeP+m9MZPplRw5EMlNf8+dIRtt3h0xlnzfyu+AzY3du+hA/x6UrXYDylarnsMxyy0zZDSlKPD2y5b+8+cEqxzPUmL5OnG5qE09ru51kNt+nZ9BEXtUeEm6DRoBjYBGwAjdM4sRuudMwIFkfX3Xdjo4sDdl/pzdF01bmflD1DZ147x7p07Qnx1aMuHmY+IdZ9Zs3AJ13+Gwuj1s6aKU+G6t+KhB1vv7dqfbB/ZydMhadp34OLyZf5cv5oXJWZS/90BCZIe9wKqGdf164xaUhcMAnYuylDOVr8QLie3l8N5eXd3ea1uzevTkxnUqiRhyXTQCGgGNQBRBgC1rf8kNomS7JK+1SonqlHXvH7gvFsymNzhSA6F7xmkGwaPAMg/wf0pb6lWnZ/fv0Vu8uJi2WAnDcAdRHzlEh0ci2uKW7Hwswot7+B1Xb6tfQyz04gu/ewmaQyMG0bUtv7ncMXmfIzh2sq8bcdGF2FJPlCGjdf35davoBC8WIpqkyNS5FNfbCMXbXLuqPK/zvbDw+AsvPCbj8MD3x06JIq9IN0MjoBHQCDA9vkzWRn4Q/J8K31MLjIeGD6RrvMklEYfLIbrCzKEqf4L8YEnHiR+fLv38I/01bqTg65uvgITXYQHx3onjbJVXpvNrV1LKQoXFUsbg8OzeA/qjTlVK8fa7HB1iXGcv21s05I0rl93umDw+ZTxd4A0zcRImpJTvvE/xkiShO0ePSMgeiBo5TJJy6CAK4r831/zC5b1A/FjkzFCmHEeWdNH9QyOgEdAIRBkE2A3CWfds4gKI5lAiBKZyrhUNsp1D4BA77aok5PC3ohxyp3L2Xdn8K52YMZme3r0rpyMK4/VGzdm6TUiHhvSnrF/Vpmx1GsixO4cP0b6enelVdmPkZHeGvbx49ozD7D4ln+yvu98xydb5ObaiTy+aT895GzxKfI5UScNJpnI2aSFRJKrcPrSf9vZwfS9r4ZF97ZnZ566LRkAjoBGIKgiIZY3GOOesNghbjpjHXvAux2fmAmSAsRgp16nzjEeycmObOo6PeVHyBS/yJeat36y6ayimwxJHoihTjSaObWdhWIFB5AieBRa1LhoBjYBGIKYgIKF7KkxPEa1aZDRc1oaKDIgVVrdQLaJF8Ds2zZi7H81AbcsKFyIO1C8wjXRJQ2KQNTbCuEnBGlPA1c+hEdAIaATCCwHZFANCVmF7Ki+IwcoGqeI4Ej2BpI3djgaBO7tLlG1tXGoQu0Non+yJMX8XQQNT8sC00sProXQ9GgGNgEYgpiEgbhDEY4BUEYtsF/YyqdawqnGWbcOM4QZRcmCKlq0oQGOTjVXssmDqd/M3iShxVKKJaSDr59EIaAQ0AmFFgN0gvCnGMKNN69pwbYDARZAAoXyy6SWQcCXMz7SwA39Wx43t6sYAEEjI5i3M9joStgobDOvD6Os1AhoBjUBMRcAga7gmTJEBEHMAfMnMswHmgiKsaGX9wrqWeGo+R7lODHCCI2vTwWL6rAPpWkzrlxY4Yyrg+rk0AhoBjUBoEDB91oYajBLONbabmzmuhagN/7RhZRv/Fno2LW4kYlJuEkO4QHG3jaAtZ7ixCcaytM0EUtq6Ds3r09doBDQCsQUBIWs8LMhaheMp4lXkbGTMs4X3Ic+1l5Gpz7CpDbeJwcImFdvyhVjEbKFqELZF7Pi7XmSMLX1OP6dGQCMQCgS8njx++EKF4BmRH2xRP38mlrK1iGjFRfNviIl28FfbFw9VWJ+jW8ORzF23UpN1KN6evkQjoBGINQgIWRvJO9gHHTe+kDXC9AJ4I0tgOJ+ROySQwE2r2Fp4NLaoG2lQTezsMYA2d7Y9+FpFoYhtri3rWNPp9INqBDQCniMgbhBjiznLbMWLbwvRM1hXNq6Yi4+KaA3lGOXKMOKl7blEApths7odQvnMuk2viT2RlOePoK/QCGgENAIxHwGJBsGCYhxWCFehdirSw9gIYxA5BAqsOGvZuQhHs0nGduECZ1+1SciWFW0eN8ICVbigoxpNzIddP6FGQCOgEfAMAUN8wFwpVOQpuxSVW0I2w2DXoT0CxCDqwPhrM/zDFNk1THK1KGmSulp8VDsX1SYbM8OfdoN49uL02RoBjUDsQsCMs5YtMLJ4KCF6Zs6OwIRLhk/6qb8/+bPaeOIkr1iLj7ju8aOHlIBFBOKxdW73WRs5Rmy7HE0LPLB+E2yu++b1K/TE7wllypIt0t7AnVs36Db/91qO3HLPg3u2U6o06Snjq6951IYb1y6T3+PHDm2/fvUSXWal9uy53qQkTmIKrip/xoLB5//9m9Kkz8jnJ/Xo/pF5sh8ryJ/86xClZfX4tOkzherWN69flfedM4+jIpCnlf1z6hglT5WGfJOnfOnSQ/t2UvacIcPe0/vq80OGAGbmOzb/TPnfLUKvcL55T0tov0dP7xNdzncka3sGPfwdcdXinzYs5ZWLZtKapfNo+rIfKUkSBp95+AJrLnZvXZuatOtBJT793EXyJljWJhzit1Zhfrbt6EzWU0f3p7+PH6Wxc1baLohYGFcsnEGrl86hRet3ikumUZUSVIA7Vvtew+TGD+7dpX9Pn6C3Cr4fZEPQ9hN/HaRxc1bLeSDebi1rUso06aSTtusxNNgHuXr5AnVqXJVadR1AH37Mwg5RtMwaP5SuXblIVy9fpJHTl1JCHqRVOX3yL/LxSSYDTlDl7u1b1Lnpl9Rv9EzKnDV7qJ+0drlCVK1eC/qiRkOHOnZs+ZlWLJjO7VtGcW0ZHYHxAxbFyJ4zT6jvqS8MOQJneDDt074BNWz9NZUuXzXYC+39x9X3GGwFMfyEwKx7tvwc8FmLi8OM6FCRHqsWzxKynrbkB7H+8PuFszayLsNkjSLRJXYy5t8cokTMjTEq1wi7XCaP7MdkfUTIOrJyhdjJGs0+988pSuabkpJx7m2UJXMmimUwYf46j8j64J4ddOrYYapcsxHNGDeYqtZuGiyBRQeyvnP7Jn07Yxw17dCLflr3HaXP9Cq9W/gjwebpU39qUKkYNe/Ul4qXLh/sZ7N100aejTwK0UfsrjJ3ZI33BmsuT753HC7t06EhZciUhVp26R9s+/QJ4YPAiaMHKNvrb1D8BAmDrNBV/3H+HsOnRdG3Fi9/v0esbm4I45o7XyyytfJNS9heAK1aNJvWLGPLeukPlBhTdSbgC+fPUI9WdcSy/qhMRTrN1vF2tmyKlSxLW3/dKB/xp5WqU8bM7FqwWdhqsVK43UbW3QaPp99+WCtWbb53PqAPipe20IVrAeR57p+/KSWLHZT9oib5pkglx7f99gPBHfF67rz0BxNBMt8UVLFaXQeXwvl/T9PvP62jxw8f0rtFPqIzJ49ZljXqAHnDDYN7/rJ+Ff3241p2ZZyV5/qqfkvytokY2F+5s2UNN8HenVt4qn9VrLjS5as4dFa0c9PGNXSd1W+yZs9Jn1WqQTfYLQDLunHb7gRSvMoqNx8UK00FCwVqTgKzLT//j44d3sf4+9BHpStQFr7ek4IBcdvvP1LFL+sKZsAEbqDSFapS/PgJpCp1zjsfFKftv/1IZT6vxu3MJe6un/+3Qq6B9fzp59UpabLk/ByXaP3KRXLszQLvUalylalQ0VJum7Vzyy/016G95P/Ejwq+X5QKFXN/rqoEU+pNG9fSyWOHKE3aDNKmljU/c7Cs3bUPdSycMZa283PDyMBg8nn1+lafSZfhVfpz22/UsnM/isdKRzeuXeF7rZb3g/4Aq1C5sm7fvE7rvltAJT/7wpoVrF48mweuLFZf3b39d8J/mHWU4L4DVxhywf/0v+/o9Im/uM+mZPzrWUbBlYvnua+tods3b1CO3G8yflWtGQH6JOq+deMqzwruUs1GgSLUzgAvmTOJXn8jrzWA4nnxbip9Zcw8VP/GIAn80a4yFb50CJs9enAP/bl1Ez1jibu3+d28Yw7Grl4mvo2f+J2XLlfFch3CePuVsfuM+wawXskGHvBWrsYn/M43bVhN//CMNVXqtPysVSRU2FX/sX+P4APUhT55mF1ceNfFuf/DZfnjuuXynRYp8SkP0oWtpgbVH9x1znt3btH6VYvl20XdMLhQgvqmg8P17OmT9MuGVdLfC7xXhAp/VMaTT9Y6V+KsEbKH4ixAoM5SOxpXcadcy2QtljVP7+F7vnDuH+rZpi41YZIp8VklJsPvCVNldO5k7Eu8yMfh4/5m5ndCoMZORyODn5Fu1cgNAsLb/+c26aS+KVJLx4RP+ZMK1ahBK0NiCx/QZiYr1HN4/5+UPGUqGjV9uVwzeWQf+UDictRKUj5+jae86IwDx86Ra9EJh/duR/H4eIbMWenS+X+F6K9xZ4YbBKV1nfKU/53C1Kxjb1o2byr98et6us+d5M3871KbboPkOVwVZ7LGv+/dvcMf6FO5bzHurC3Y4kQBEQ7p3krWB9JlyExnz5wSPB8+vC9knYjl0nyYAG/duMbuFH/C4JXv7Q/k2tH9O0t9bxcqJh8hfLZfDxxHed8uFOKX//uP62jm+CGCwRO/x5TQO5FgATIeOI51Krld6px4TN4Z+bw6TdvLoNCjdV35iDGIHj+yn/wePaIRU5fIu5o3ZZQQQOasOWRwCmraCxdRhkz8DvgDu3D2tJBk0VLlgnyGoT3b0NEDu3mQMP3k3HfgjlFukIcP7rltH2ZKwO7IgT/ZLZVMBggMiugzGDhg9cEHP+Cb2dyfz9Cgr1vImgwwgmGQhN/7kIkLuL+llvfVs00d6tRnpEVk7ep/Tm8VeF/6zfHD+2lQtxZCmpghvlu4OJWvWocwK1357UwhGzw3nhn98yS7z4b0aEPpM75Kr2Z7nfbv2kqvvpaD+oycZvXJe3dvS5/PmSdfkC61xlU/puKfVKD6LTrLtc79Ev0b7xzvFeU+11uxWj2q0bC1/HsDk9Si2RP4Wd6jBIzJAV7DwaBWrW5zl++GI8moZa2yTJJlqFGb7nLOjLGDac+O32nKoo10kwcYu2vvEas49Wxbl26wIEkWftbLF8/JdwFSdNV/7N+jmnnGT5BA1pXwb3zLWbjf3rl9g+7eukkYCPp/M0twCq4/uOtsePdwfeKbO33yqDWrDuqbDgpXDIw47pPMlzK9mk2+r47cd0JTvPwePXghfj2Vn1qEAYxdisr6NUiVuLPNorXL5zO5bLQsVnRufMTis2Y3CCzXWROGUYvOfakoW9fbf/+JpozqJ2QnVrLp+rDI2ow6ARg4t033wVS4+Ccy2sI1smPzTzR29kr+mDLzzsrnQmD+T54Q/JLzp44WsoD1gw8P14+ft0ZeJggJpINOg48VAwo6/eDx84SkYSH1Zn8arFhXZK06Hj5wT90gaOejB/d50TUhTeHn+uvgXpr53S/yfuDDA5EPGj9XrFJ0KhA0rDh0bHxszTv2EbJuyyTw8aeVBFsstozs25E/4umU+60CUtewXm3lPoP4mUJaFBHD+lUf2C/rV9LcySOpaftesu6gzmnbfYhlLS6aNYF/X8v4rpVBCx9GmzoV6GMeoGs1bmu0t17FELlBYGXiXcDyat+wkiw0duw9wu0jgMBGD+hMX9ZpRpVrNZbzFPkpsg6ufbimQ6PKlIvvpdwg0md4pjZpwfdCxCh9OzZiEuP3wwPXK0mT8QznPBNMPSHmVuw+CY6sYc1OHtlX+rvdgkJ/3LrpBxo1bamDS6x3u/oyY+s9YqrcH4N5v06NZRCGlYgPHXiP5H4eXMRUSMjamwfnUTOWyb26tawlm9++mbWC++F9Jt7PqHKNRhbG6/hbXz5/mvRd9FFXBSQLl9ZUNjjgPsVsB322bvOOQqh2sl48eyJtXL2Y+o6aIYMZ1nYw80bdrvqPK7L+hGcCDVp15YF3Nw3jARwDb5f+3wjxd2lajSrwjLFmozYUkv7g6nk68jeIGdGgcXMcZsNBfdNopztcYXDiuHzH7XuG9DN1eZ7X0yesFGNuM1eWrtqtiBdpFwuAVQ3reuriDfKhYXPMOY5gEMtayLqiYVkzWU+Yv5ZS8Er9vTu3qVXtcrLIUKpsZXMrDbfF5q+GsT2ZCf3w/l3sYvnJaiimHgO6NBVrAlNljPx44Sjwl8IiRCd/I+/bQtanuKOrRb5df/xKE4b1pNEzlosFW7fihzJtRydSZcH0MTKFCk+yxmxj3NAetGf77xwdE58XGdOKS2PRhl0y+NWrWEQsLWXNqLa48ll3aVZdrCw8/+olc3gaO90hsgSROZhJzF75W4g7gSLikUwaKuoF7apfqai8PxC4OmcikxjeIcpgng2cYGva/tFimgnfMD6WkJI1Ou+QHq1lxgVrAxYspvl9eRByV+BmWPHtDJq1YpN1f9y7yZclLcs6uPa5I2t7n1HvR6xJXrhUZfyQHrKeAVILjqwxiI3iQRWzjJLc39HvYQzB1TG4e0shxdpN2svsA32l3ucf8ma0eGLJqoJz6jTrIG4+O2EF95JDQtZq5oi65kwazu6f32VmB9/ywK7NZeBQi7IgKFiGQycudOtuQwRT91a1xchCtNj0MQNJ9S3nPo13BFeAmu3anyekZK0W4JWPu1aTdlS+Sm2pqln10jJAAvOQ9AdXeGJ2Pml4b/EKtP56AOV6s4C8J3ffNOpwfkd2XHEcA8eGVYu4rvzyLSvXbXDv0/m4IT6ABUXOnCfiAzYZL5A1LFwUuCtgGcxkF0fvYewbYwsFv8G/NYktiZ5DJwppwk1hJ+v79+7waFvWIGu25lSua+d82LC+MSWd/O16cWOgKNLoM2IaZc2Ri9AZP2ZfYYOWXWjZ/KkCgDuyRrvGM2mCrEEGLWp8KnV0HzzBwmB4r3Z0mC3n8CRrZQHDenuvSAka0ac9fwgHhaxRYL3Ar96p7yiHd+GKrLs2/0r8onjBcAHNnjhcokXsIXPwscKFEdKiMMVUTC0OqntXrdOUqtRq4pKsJw7rJYNp536jZYBQBYSL9oSUrNFxf+IBEjMizDy+blFDpv9BkTXWD+ZOHiEfOVwHKMoCVZZ1cO3DNa4saztZ4xwYFvio2vc0IoJQQEZw68E1AZ8s3DgqwgHWYfMaZcRHDzeIKlh3mcNtLsNuPGUgwAUBvzJ8+8AR7iz0B/TPWk6+aKwJYOblCVmDrN7M/54VzYT+feXyecuAca4Ls6ld/J2ArJVlivWTwh994tCd4AJT6xmu+hlmizDe/P39xLqGKwLFuU/jHR3jAR+zX+f6wpusQ9If3H0zWFOaOnoA/X3iKE1ko/Ofv4/LrNbdNx0Uruoex48coEkjeouBMmzStyH9XB3O8/J7DDdIPNmhaKRCNVKcInhDZLxsPmZYyd2448K6wgIVLLvvv1vIfk9v/vgWi3XgQNYp09D9+05kjXol/pqLihrhP0HWcGPA51m+am26y+4JWJNwYYyatkzu1aRaKSrGvk1F1vjoQ0rWsMjXr/xW/Mf52ed6cO9O+uOX9dKGiCDrJu160vtFS/JL7iDEoshaIlCWzJZBB+4MTOfgY4RbwDl0z07WWPjo3LQ6pUmXQfDBh3yU3Stv5n/HCi3EDAdhhnBLuCuKrLHmUJWJGZbU2uXzZFFt5NSllC5jZpdkfYTXCOB2ee9DHjB5Sgd3FBbl6nHbQWSekPWP65bRkAkLZLrZg/2/IIOgyBqhfp2aGP58teCDvgFXliLr4NoXUrJWMxgsfL2Rt6CQ2W5+TjW7gwuuKZMifMifV69Hxw7to51//EIffVJRyBrvGrH7qThsE+8+a/bc1G3QOMJMD9fA7TVm0NfyjjDDWjZviqwDVfqqgayX3GR3EqzcRm26ySv0hKwHdm0mC5hwFcHyXMMYpeb+omabwZFK/85NeQZwTq7Pki0nzyZOiusRFn5QRfUpfNcgNHyjrsgas43B3VpSHl4D+pjdbf/ywht8+PgOwpusQ9IfXD0TBtIcud8Sw/F/KxaKixG+fZC1u286KFwxS4JrDAYADJWTbLjNXbMldGSN3CBKXMDwiYGwDUKFZS20bZIqPBenjh9mC2+ErL7inBxs6TRp30Oc5zhvs/ishxtuEDtZc+eDG8TwhRv5RgIXNEHWfcWNAX/1xjVLZEqFkB9YkrA8UEC2S+ZMluthYZ3mkS+kZI3OO3/qNzyYfC8r87n5Q0SbsXIdnmSNWcrYwd0kGkQt0J09c9Iia8xUvuMY4B/W8gDEU0JMt7D4GhxZ4/nxvDPGDZFFORR8iLAAsdIOP2uLmp+ye6WNRMEER9Yg2ZXsWkBngr+2cdse7P/7UC5z5QbB71t4cFvMHQ6zJbx7+B17DpsspBtSsgbBYrEQLizcF30vFSvfB0XWuDcsE0yxsagI0q7TtIOsS9jjrINqX0jJGu8HA+rG1UvEQMCghkggkLcqf/y6QWaPWGDDgIwwTeVewGaccYO7y0JeUt/k4ouHTx4+drhzYHmCCHsMmShWFvrikrmwtlfKAIiFZxCZWk/whKyxMIaFVGCMxVHgC7xCStZwUc2cMJQO7N4u3yl85XWbdZR1lKAKnhULjfiepy7+QWZMrsgav2EN6tuZ4yV4AIvbmGFgAT+8yTq4/urueYayiw4GFJ4F+x1kfYOxCOqbDpqs7xHcmTB04RatzYv1ZSpWCx1Zi7o5fzAiPiAbVlAMSS90XKV8bpEsH4WrBBYCyMi+KUIule3jxp/WFnX5t9E+dFbD7RKoPmOkCwlM+qR8Za52/uEDecYd3N2CR/lWWxkAACAASURBVHAo4OOAX9FdZEdw14f0OPBJmDCRhIK5KyBoWMieFhAsSM6OgdqAAPJE53dXnIkYJA/S8KTAyk/EH3JQU+Pg6kMdiHpxF4Hk7nqEcIFAg7ouPNqHwQgWlXLJObcnqH6Ea/Fxgqzt7YTLBL52V3jjm7iLqA9gEsYMlKF5p/bnwzeGdrp79uDebUiOo43YMBbWZw3JvTztD3h2vDfnUN2QfNNBfetJkvjI+kRoi+xgBFnGicOVmBa1fUOLJUDAJ9k1GdXGFZUfRER1zbzXBlcHulRU44z0IEjghNjq8E7eZMnThBaLaH0drCrMPGCRBTWQubOao/XD68ZrBGIBAl4cC2zbami4P6TY8lEr68A4FqgEo/J+qGx9gXRp7H60K8EIT0vFxlmeWlSx4F1EyiNidyV8cXCfIDRNF42ARiB6IGCQteGHCNwiLlY0wvYCeVxtXjG5Vs5VVrWhdo6fkJ3P2JFokbG5WGlwv1GfQfKBbo/oAZVupUZAI6AR+O8QMHODMLmafjLDSubFRck3DfIFKRt6i4E5OwwGDkyjaljMgek/DDIWPjbJWkjayTf93z22vrNGQCOgEYheCHg95XzWIGjDOnbcAi4ULKRtqJ0bfmhEjJjWMxYkbW4TS5zAnZtDW9PRq3fo1moENAJRBgFDfMBcPLSTsWS4DsDWc3sGvUBfs+UWsT+KrBwa5xh/1a6OKPOmdUM0AhqBaI2AFyfm4WgQVjTnBD2GcrlBsmrnolpptIjc5t8WK9tybYDzDT1GexhetEZHN14joBHQCEQRBGS7OVwgEpAv281Zb5H/FMsa5rG1yGhIffFRM0TP2OkYGFctzpFgHsuQ+rIc2RI0EvGLjSqKJbLyZEeRd6uboRHQCMQgBDgahHODMIHCkrbvZFSbYuRZhcDN3Y2KkM3FQ2zQuHb1ouRlllhtW0GyHixUKjUQRZrIh4wdS9j2bfC9LXoknMEVnzsWSZVfPpzrD2t1165ckp1w7qTEAuW+MoVIHiy49mDD0TneUYlUoyGRGwuuvvA+jm3v2BHnqbRaeLfjv64PiaOQzlUl0vqv22O/f1j7EHJvIIWAyvMSWc+GVAHgOefNLvjGlFyhc1ucOSyy2urqPuKzFmUYJzKTTS5WeJ4ZCWKzhJU/Gvvep4zqz6lIN8jWaVUAABLnIF+tIYtlWNVrWEYL23lR5q/7g+KI6wTq6aZ8WHihgcVS3BV6kmbMd1S0rJEZ8NL5szR8yiKXT66S4SAuGlubw1rUtl6VitbT+rDr8gIPtsjvEBEF+ZCRGwMZ7mJzacGpRpFQSeWmjkpYhLUPIbE/EnghmRdyqERWwbeGnb5q+72675qlczkFxDSas4oFI3gLvHsOi6yWur6PuEFwyFgUNOKkjQVHYwOMI2GrkDxjq7jKxDd1dL+XyBpJ1Xdv38zpINsZdQp5vqC2dSuK1YScA4b1ZJBqyK3rwABBd9AhRjzATBalolzE4RLGbbwR8aqiG1nPn/YNIUnOKNY3jIiiydpANSaTNZ4PWSRBjJGpN+opWb/EYRHR4T2oUzbFiHvCXChUuxKF8JDPmitT4gT4B/Il/Pj9Crp185po3MWNG5/TCYKsjST/KNglt2fHZvk78lBDeQKkjPSQG1YtkSxryLRVuzETOd/3ACvE7N31h1j3hVigwDifk0ZxgpztnPilOGfx+o2FBOBLL1+lliT+wTonksFs4IQ7SFyT7fU8nB2shkxzIIqKhPpI+4iENkickjjxKyEma2QH+3Prb5y57ImkOS3w3oesPHORBQ9+YkmrM5wSNCOVrVzLUmzGqPwaJ51C1kFkYEPeEcg+4d4oyAm85Zf/SUY0bAVHAnU1zVdk3frrgZJACS4AZLZT8kSuLGtMzSA5hvwKb+R7WzK+uYu8QQ4LSApBjBSqL3geZPOzW9Yhre+n779jybU1Inn0IQtL1GveSe7r7npY4chi9wH3ASQHgtADpMiQREsVbJNHAiZMUYuwJYk0vMqyVtdDxHj/n1spL8/QIAKAHA0/cR9EMqhMWV7j91vd7RZ7pCrFFBe5zFGgtLOP+xqMhZC0z5N7ue/7gX25MPdvZKZETmNks7vOiZbwLpFHBnm0Vd4QRdYFWIAAmf/Qp5DtUPUb9FHkXlbvAO6j9ZwyuFzlmpSaZc+ANaSy7twyvw3+HQXfOsQCkC0wUZIkIhgCNyWICcnHYDUjhzOyQlp5rcOxD6ENSOYEaTp/TtaGvoHvy1UJ7hm3ckKtu5xjBuIjkPtDql5kMlSJpJzr9ISsXXNY4HtEtkBk7azCGQohjAJ+2GR+G0hAh8Rfqh3u3oUHPC2nejG5KfVaY0HRlgPEsKqxYcZYOETqx97tGrA+4j1Jig91EyRjQWYvRdZI94iscpB+AnEe2b+bM7p1E0WRCUN7cVrNTZItLjMD3KHXcEmx+h1nf8tXsBA95/OPHthjnv8F/cokM2fSCEsiDB9nStZtG81Z6uJzgqQBXZoJUWDQAKkNnbRQXl6vtvWloyF9KDJoJUjgLcfcaSjaQUOHR2Y5+AqRqCptuozUfcgEyUGMFK7w8x7et4vJObeVtxcflkoTCkFWtBOWfV/Ofwy/HHIgjxvSnZ85u3RSSGONnb1KPkx0ILQR7hpMCaHDh6x2IJPPePBxJmt0YMiTIZUspKBAPO98UIwTpQ966d3j/UFi6gRnrEPmQhAicMH7UmTtSX0YbPGhI9FN7rcKUtcBY+R53LUHmRmRcQwDFNKDQkINLrfhkxcJQRziNLWj+nXkTu0tAhHADcmD4nGyG7hB1PVwkQFXEO67PNj0aF1H1lCg9wgrH7JccCO9lFSMEUFqy0csmaZyLH/P+olLOS0pMi0G1z6QuSf3ct33u0vfV30ZWICocW981Ff5XSCZF/5tl6FDn/Lm1MPw7SoZOmCHnNpI4an66cL/bRcjRuX37jd6hmT5Q7rTi6ziBHcVxC+Um21U/05iHGXivgg5rApMbpD2grrNo0cP5N2iv3xevQF91aClcEJ49iF0UhgLyHgJ4RKkZEUGQsNV6liCe0Z8OzACYDDAvw9fOFyF9lzk9hpxPmTXmnYIzDuO43Dl4j/lBgnJe4RhhvfSjOuCMTCkRyvmpITcjzPRv7wmhIFjyIT5Mntw9y48Juvnz5/JphgjrtpwgxiSWwHSCewBHgumjRHRUnQIdBhYjIM4P+2/nJwbZI0PqFXtsqKCghEOBbI/GEmnL/tJ6m1UpQSLaX7FqS2bS2aytvUrcQrKFpKjGWU+3wOj5PSlP0r6UpC1SpSP1KlQ1x4wZjZ37DzUoWFlydzWe/hk0wrg3NSzxksu2m9mLmeSeEU6e/uGX0gCeOg5BlVgkSMZ/PtFPhZZJrhNVAYzLKqojH8/rFkqOalnLP9FSBofFgYmKGqAcGGd9GpXj62gbNy2KXIs4HmAaBVCfw8ajOqZ0IGQ67hL/zGSohSpXKE0AmHYmd/9KnUhz7XyWfdoXVs0KpEjGQW5ljEQ2JVf1DPC8hrH6VqhTFKOZyQoEDDAFFSRtSf14Xoo8iAPsXKDBHU9+gPIGjOb+iwYAeFQaPChf4AgkMQfM4lB4+bJwIWZEGSufJE21kbW5VgJRLnToO4DEd/xnIIX5AyrBXJisDAxY3EuISFrd+3z5F7oJ676PmaGM5b9bJE1xC+gmQnV+82sqqTe67wpo9kg+I6/k5/FAHLbp1h4GmmBgyOy9g2+4EHAVwYplelNyaMp4QR8jxjIIByA/o1ZhLd3Yhrepx09vH9fctRHRB/CehYMEhAZ0otCoQj9IzRkjfZNXvg/GeS/GdCFDrEhNY/zRbuaaapvzR0HgKxh0ITkPX49cKyoJKH04j6LdMfgJcyA4Bfvx/JwEPJAbnBX78JTosb5XgZZ2xI4yd+NxUUUELgSJhjIYpIY3QeOnY1L5TgsThAyyBojOSSbYD0Y0SMk6UzxQc5gua7EPj4GWVf6iqqzbBKs6GFsJcr5bD2hxqf8InE+5L12bv2V5jJZg7QAgpIQAlHlZUHLXexygMZhatZcbNmln4hwDu7WipUdTlDCRImscQZCnaWh3eaiQ9hBg5UJIrXrHKrj0KODOg0GNiUpNgbakDyC4sOCarESxVWkuJN1ItF2WOJQrfF7/Ni6VukdogPBPQL1DFUw2Ewc3kusIVidiqzhAoAMVAK2+CEcKu+HXxM+uA6cNxkuDntZzu3F4smCddusVK2YiWBxB2T9/oclPaoPddvJGh94UO3JxGsSIGu7uGxTFpAoWfYLql6/lUic2QVbUT8GnvMsUmsna/v1mE39feIIJbIpzT/k9/tJeWjzvfzBh4SsXbUPKuKe3Osvdq+47fvLfxYDAoaH6stw/SA/t5qRQlMUclJKQzS4PhUcWe/ibwfWMowHaGki5/l3LAu3jme+6A/29RsYE2MGfi2uJliMyVh9HfnkodoU3n0Ixge+sSusbYnZFr73Au+x1qSLmWFwz+i83gOJvgW8pjJv7R8u0/fifLhWew6d5PCdQKEdQiYga+SM9+Q9qm8AfAYBCVWg5QlrH6Tu6l04NCCE/zDdIMoTghzWsK7VTkUz8RK7QnDGONaiA7FMYGJRCskgahA2Oh0sRxABPkAlGaXaYYTpmJY1yJoTul84+w9LJtWSqZicb8s/gvMxdYT0kOrgSlKp2yBW/EbYHzPVlYtnRVgXVtn4uavYYhkqAgntuYN6mREmGGVTpEob7MqzIjIoQmDqqgrIHiRThqfhUPiYO2mkiBjYyRp+bIysqkARA750kA7UUJD7uRfnmob/ER+pnaxh8UziD0OF0inNQWDq5/fIwbJu9tUnlC3HG/Rl3WYOrxi+TOfUqD99v1wEF4ZPWWyFTypLXFnWntTnTNb4d1DXY03BmawhPQVsQYZNq5VmF9bbDmrPEHFFzL87sgaZw6fdsfdIyyBAO+C2chXmBmsLCuVqMMQCKXzvdjeInazt7fPkXqrvuOr7mIUqN4gnZB1Un8LsbuGMsSLmDNfgXl4jggKNcoMAE7jQMABgNgdRAPRZfK9juE/Cz6oKXGnACVY+rH5M2/Etg6zDuw8tnD5WfLujpi+VAaEbf/+F2HXhiqyDe0ZnssZ7hYh2UGQdXDQIfP/uOMzVewSGkAzMx2sLEFRGwcyhXYNKhLUWJfXm/C7c+dWD4m2LrGXFTmXOk7+blrVEiBjkjQUIEDb8YFiYwOIQFDVgiYNYkGy9b4eGvPh4neWXGrNf6jWRc8cUBUrndrKGvD3IFh0Do+0XNRqK2+DMqb8kBBDnb9oIn7V7ssYgkT1nHlmYg8tkxJSF3EEvS6fFQg4kvB6zqwYE1ZYtSTwHFh4xAkOZxFUSeLQHFjwWDjBNu8/J7jFNxkeMRQOQ9RweQLax79ZO1lh4LVKijOjqYXECaiIYkDDawlUA6bQePKJjNgBXhJ2s4QbJxs8Bnyz8yWuXzhMZIAgJOPusF7HKxkb+UKvUbsxEB3/keRmonAV48dIxWHRq8iVbMMnpi5qNyO/RI1rF7puH7O5RZO1Jfa7IOqjrlU/YHRkKcfK7gDYn9DthfWJhGv5rd2R9YPc29nN3Yqw/5YXVCuJjxQAIt5WrsnTuZF4XWSAuEsyCVi6aKX0iJGTtyb3Ql131fViPRXmBPDRk7bpPwYJrKLM1rBXA14tFfHyH8Pkrssa3ASUffBv4+9g5q8UHDmk4uEfQLyEhhrUACGSMGdiVVZkGyt6HASwPBgMFZB3efQiuJbjhhk9eLJqNcCFgkdEVWQf3jBFB1pjJevIe0ecQYICFdKwxQTlry8/rRa8UxhsI3tW7gDyfp8WLIz4kqE7lnlYbSAwfthLLNcL00CF/WLtclKbhqoCDHVNvOOTVdA7EO33sIFn4QQGBwwkvK75M6o2qlmRSqiZEhn/fun6NpYSGySKbOh9EBon5QMsaERY+llipsqwHsVvmOAtwouCDr8uK0BhkfufV9uXzp4t7AAXWghLKRWjY3l1bHFTU7aDBBwq5KCVtpLT18IzL+aWgYGHoDEdX2Mkalj6eHdNhdH5ImNXhRUIs6Ck3CD4AfEBYDLKT9cVz//IA+I48L0ZlfICQM4Pv1pms4dOG3x4RBIj0gDukEi8GwTfmqgDXGfw+EMEBy/1LHiRhfSiy9rQ+Z591UNcHR9bwD0IJettvP8iMDq4kDJDwbbsjazwjPnbIu7l6v84YYB1iBJMaLCr0RQwKIPeQkLWn93Ld9/vIWkRoyBrECbLEO0SfQoRRXfbNqygNfGfwe2OBtWjJz4SYFVnbvw2s1SgXEaKC8A1AGg4yU9B6LFa6HH3DZI2FR+CfmqOtgBvIGiU8+xD6IaSzYGBAFBiuwbwF33NJ1rh3UM8YEWSN5/fkPaKNcIVASxOzEMwWsIAMlyuiulDcvQuPyVp81vaES5LS1NhmbleJUWSOyBCQ9gNegPAJInk9pLOe8seoEtyrRUtr+zqMd4nlNgpWVPGgRp1qC7rphgliS7pIXMWNQwm5w0o+EzOiBe29e4elg5L6so+XpbXMZ4T+H/zpdpVzV6CBhECcdtcCngnhjM7uBntMLAgZL1x9UKputO3RgwdBJvx3dU93LxT13eNFLVhuIUmYBTmsoMQGPK3PuV1hud6T57bfF4vHWIwLiVRScM8f3Ifjyb2c+35wdQd3XPoUW3yunhMzC/iZXR3Dt4HIGvtGD3UvV3WCoLEW4A7P4DD0pA94ImkX1DMGh11Yjnv6HrG+d5/dR66k+oJ6FyFtI1vWz5D0wyQ54zIVFWIpxAh9GhEjktApNPk8mEQDrIVLU90c95Jx4QUTKAjaadu5It4Q3E8tiorIr7SRpcrEZ+2oSoNpMcIOMY0OrxKVNzCE1zPqejQCGoH/FgHDZ20VQzBAFhnFZ20KCNgy7SkLNTSEDUI1FjBlSDC2uJvuFate03ce2CRTNCwk6VbNAQHXRmYukPHsx0fMb+nygQrY/+1r1XfXCGgEYhoCTNbwRdjcDWLtmvxtJmuS4xZhmxCY1qv1ewiRcSBsbLpRW8DF7QILG5EnhsnthThvIV78T3AZ/ULYAH2aRkAjoBGIhgh4scvDtKFNVlTUjSgQW44QRwkvi0FD5C91wEW5Q5SFbZK+2vIuG3EMo95WtMBuNOxbuskaAY1AOCIgbhDZVu60qAffr5G/Wq3ZGWa22pIeaO2arhJHdg26ic7+a8tnbvrDHXjaYO2QLKKFIy66Ko2ARkAjEKUQkB2MARwCBmIWq9bMgscLjw6Z8KzFRmvRL9A1ERr/taAgQYO2zH4qEsUy3EHUoRgMohTEujEaAY2ARiDsCIjPWuKp4Y4w/cJ2hRgjfA8KMsqzbdzUtHetbH1htn6FuG11m1kAw/6IugaNgEZAIxD9EWANRpb1QlieudhnETbWHU0fiDqmYpjVY1uEbbK3ce3LC4HYEYhkMdgOfPbMKUkYg0x5npb9HLSfIdOrDltlPa0jpp+PWNjrnN0ua/ZcIU4JG9MxwfM546L7Umx46zHrGQ03CFvWIGyVfEninfk5YetK3DIo2Ayxs3zHVry1nGjsY5FYbBW4EUjayKyF1IVQvcCmFKRsVLkaQqo8gtjvBpU/EvUMe8KkmPU6wv402MWGHZgqB0XYa4wZNdhxwcYP3ZdixnuNTU8hZG3f9Wf8ncPnTNUYu0tEYqMlWsMI5bMWGR3I2ggnsWf1spM1tnIitapKzO+J8gi2IcM6d5XTIza9tKCeVZO1a3SccdF9SX8x0Q0B0WAUbUKbz9r0fwQmc8JTMUFjOzgyWyG5NkgTyWCScOpSnH+Mc3T8yTkXkO/hLd7rX/ijMmZotJfkrFWWtVJ3QL5rV8oj11lA1lJk4UTeUNPAlmIUpciCDH1KRcZZscGuWgJXy0ecK9dVQea2vTv/4NwLUMYoyGk7K8kCKzJ9Yfs61EdUwX0xuECCCBY+8nIcP3pQtnpjIwwSBKmCXB5QJ0EyKyR1QRIoVwUJi5DtDO4h1IEczVC8QD6B4BQyUJ9dyQJJq5Qmoiuyjqh7YTv+j+uWcd6N45L5rTIni3Leio+2YrswcmMg+x0EEz5hTNQ7RX84yqlpvU2JJyS+QVEqLnjXwAkzvJKcbwXpCH5Yu0yOf8p50ZEWF0X1K+Sg2bRxDWGr8PtFP6Z8nEoXxRkXe18Kqo1Bve/wUgCJbqSh2/vfIGDlszb9GEK8yoFh5AhRDXtByyUf7nxJZwqVh26cqzVt+sz0A3+wSC6E3LlQY0EqU2znRjIiuLFb16lgkbU9+Yor5RFkxXNUZHmDE6jPlEbYt3WrxDh2xYaHnLjJrlqCLIEgP5W60A6xszIGBh4kl1q7bC4nqppJ05b8IET6DwsrICF+ux5DJbvZ8F7tJAUrsushGc6Vi+dp4Li5koIUA8DQnm05V0MCkR5DIqN5a/546c0iRzASQyG7IMgHeSeQHwOZBpEYPrg8vq6ULJq27ykDkzMpReS9VN1QbznHaxFQ1LEPXHhw5JvoySlioTL06muvS9/ow8nzQcrI9IZ3BNUbpORE0iKV4EolgUKiKshUIc2nD+cHTp4yleRABu4JOYvc2DmrJBcD+tVfLFWFGWGKlKktxZ167HpDNkNnXOx9Kag2BvW+DQWQf3j36rvSHneix//Np63vGtMQEA3GQJeFPUzO8G0YuxkNxp4+ZpCksBw2eSFbUumE1JHQqXXd8pyTthS16NxX/N7QRYQ0Vu8RU1j+6W1qU7eCHK/XopN8VHY1b+csbkqRhd0znPbxZUUWpfisyNqu2OCsWgJLH0n/IQMGi85eRBmDCQKWIAQQlDIGcjC35vY2bNWVLd6qkk8bSjfIB3xgz3YhmEHj50nmPRTkvoVcV9seQ5iU6opFN3DsHMlw5ypZzT2WHWtVuzxrCRaXAQAJnyCVNZVFFHC/4Mg6fcYsLylZoI2QS0Mb7aSEvNARea9pnJcb6WehGuMqlzTwQc5lpIgcNHauaG9i5gUj4Bhb00h12rhdD8kmh3WTcYO7S4bCGZysH3mFkQtbiRPAcp76zQDJKY61D6VgAmk4DMjoV0ixCmEKKHgoxR3MwOC/B8Z2X76drN21EZkjg3rfUACB7mi/UTNClEwqppGHfp7IRUA2xVgLg+reKp+1RHcYLm38iXy5sBxBSCCzIuzqgAYflBWQmhHpP1EgcdOoyseS+xmSTJ6QdXCKLM5krRbSglIt6dxvtFjCqoAYVEpIZ2UMnAN1EcgO4SNsWauspJCEbJTKW6um8Dj3iZ8fZXg1Kw0eP19UU76s3dRtulKcD8FWpIiEEIFyXeB3iBtgNhIcWcP14E7JYtaKTSIRpkgJs4KIvBcsYbQF6XKRatNVcqyBnBsZ7iVIUdkLVEuQZ3r+2q1WyOhBHgyB/WAeDDFDswsXOKeKxWwE8kvNO/Wl4py3PDjFHYhmuCNrt2008xS7et/DJn1rKYBAqagdJ+5XLpnI/YT13WILAoYbREV24KkDfSAWBoER0CwhxWkXF0wfx8n119MAlvdKzJbp1y1qiiICPhoUhOf1altPpLY+/LhsiMk6JIos7sga9w2p6olSxoBVhtzRdmUM1IPZw1gWMEDu5xVMKiOmLhF/MixEWLHtew2jlKw8owqscyi1NK9Rhn2khdzm5sX55/89Leo4SgcPv4k1z359ZVkHpZAB10xQShZ2yxq5gyPyXmg7/NHIjw2ZKswolM9ZYQO1lTMnj4m7wp429pf1UAEaIUnxVSJ29dwTF3wvA4CnZA3FncmLNogEHIpS3Jm6eCP7vbe6JWt3bQzufeMeSgEEMlVT+D5QBNJFIxARCFiWtXMuDnF9WHlCjJjrnaxygsTaN65eoWk8JUUIXdFSZVn3sKUQNNRVEvP0f82SuZKfetS0JfLvNnUrinQPrNMJrC0If+QwVrhGsbtBkPM1OEWWoMg6pKon8JO6U8ZAm2B5w30A6xrujkHsk1ak2rlpNSFmSJEhT/DBvTtE8BP+WCQghz8ZPlIovxzlpPEtOvdzeG9wK8EHDh8s8AKe/1uxUHy5iqyDUsh4/Y18DkoWGdmqh24c/N/FWJHEIUSNB5GIvBfcDilSpWZ1m0vixmnJzwpVFHuBK2FYr7Ysw1ZYfPJwS3xSoapE9ICM4W/+vHp98duvWjxLxAHg2nIWLgiJZY1ZBeTggD/Oh+JO7rwFRT07KJ+1uzbClRXU+3ZWAIHEFgQhRvTtwIIQ9ak4K9noohEILwRsKVKdkyUp9wduZfisv1uAqetCIbOcefJRd9ZCTMCEdffOTZrNai/YaAAyeo0JrhmrvWTOmo2v8qI2rD6NaBAh62GKrL+V6a+zzzo4RZagyDqkqid2N4grZQw86yL2uW9YtYic9RixiDhj3BBeUDonmIC4uw4YI4tg+FCRL/vn9SskciYtR7OMmbXypXeFTStTRvWXBUmofJSrXIvVUjaKOg4sbhSlkAGttqI8O0EEilIBCUrJwpmUIvJeWGCEKwNpb3Pmyc+CDuNdJrqHxBnwhEwVFH/wHJip/MPqLdNZtQSbphCRhOiNxm27y8JuaMgaijsg+00/rJZ3kbdgIZ7d9Re/clBkDbzdtTGo921XAFG+dDwTxFIxAFVjEVVdNALhhYBsN3dMcBf4L5UqNTBTaoAsEGGK6sMSSfjAVDw2GgRrGj7VxIkxDVWp84y4bfVvqy7QuJu0p+4UWUL60CFVrAhOGSOo++Ha+KxA40qFA7hB5zAoZRbUDRcCps2QbGpX/3MHslbH3amA4LgnShYRdS8MkE9Ymim4Z0V777OyjasYecyooIQCHEJb7AvXaBPIGn5vT4u7Nrp7364UQPB9uOoXnrZFn68RsCMgKVLxg2E7q+x75im2xEqGSwT/Y5wJopZdjSq2zwrxM+oJzPNhkr99RDDrUnXoV0IuyTqicHE1METUvSKrXucoo8i6r76PRiCyEPBiyziQZm3kbGTSM4UI7KQNKjZFhuCm4gAAIABJREFUAoS0ZYu5mTrV/LedrpUlbUVvO5G242acyHrsqHcfuIPgj3a3iSY8WxyZ9wrPdgdVF+Ljr/NaShMOBdRFIxATETAsa3u2PWVdK/vYZjE7WtYgc7g3DGq2immnG3/ABeKUo9ruB1H3kDSoKm+1WaOtSuOYcqvExNegn0kjoBHQCASNgGlZG0Qp/meTYK0t5+p6uxvEYWu67QZmmlNnH7jl+1bJoExrHFda+UXk74Y1r1wuKi+J+MbNQUHlztZiBLprawQ0ArEJASZrsLP6f+WTNknTjoSTz1qIljc7BBrKRh1SDAYW1g1cpDTPVBtu5BT4WfD/nDNbrOtAUrbGCKUH6cJKD5Paemx6y/pZNQIagWiPgANZi3WtgqtN81hJfsHqthwRL7k2LHM4EBAXm2vUgqRRp0nW/AeiN7DLzVI6l4YYUSQvXnCKVnMQsHJtBzK5LQGV1mmM9r1RP4BGQCPgFgEXZG0xofEX07IFXyIDmcGxhhUcuJHGRtYOPhBjMdLBZQFXifrNFrrnoFJj3tduqCvtR1E9lygUGVnM9kirjPu4CQfUfUAjoBHQCERnBEyyNkhZLGfThWElcFJyW8odoThSKcsY7C1kabGnMsEtRnVhZpuoGa4P4wK1jqiUztXgEBTAFkHb1h9lINFFI6AR0AjEIAQCydrhoczlPLakHdKkmv5mkKmyjuPEjSckHaiQrsL5lOlr+VMCz7OTqeXKNhc5bXHb9g03NhPaaqkZP2Ka14EP4E5eLAa9N/0oGgGNQCxD4GWyFkvaFjcnnGv7hf/OErviEgEpxuEUn2LJmtcFujzsJG0St5wHV4rNV+IYOmJY505x3coVYyxIBvo+rOgRu1VvsLrb3ZGx7P3qx9UIaARiCAJuLGu7VWyqfhl2sZClImvkrlYuB684yH1tXmf5U5xIX3bZMFmbIXzif+Y6pNjcGM4RJPbQP+ShEDo2r7OsaydfuQrxiyHvST+GRkAjEMsRCIKsbciYVrMiTXVEpVa1by63mNe0jo2di4GkbXqnzSoQ8WG6P0DCZpSJtfnGbkmDoJV/W9wwsOzVlnejOkfi1tZ1LO/b+vE1AjEKgZCRNegWoXsmoRoRGUY0iPpNiNO0vgM3s5hq5w75V01/uAljIOErXA0Xi9uioj1sC572c1WkiBWxEqNel34YjYBGILYi4AFZqw0zRlw0rGXERgdueAz0Q1hx1Ja9a/NxWHsRTWvYjCSx4kUwKNiJGC4T0z9u0bkcVxEkpmUuA4g6w7C47Qrr7l6wWsQ03Dn2dsbWLqGfWyOgEYiKCISYrNF4RWwgT0VrShldHk4tTtosbwf+c3BhmzVY8Xp2eAJ3Pop/22Zp2+OxXf1d1fKyYrsr+J12WJphi1HxRek2aQQ0ArEbAY/IWpGx2qGuvBuu83QYcdOGEey80GiCbpKjcp9YO13UNnSJHDE21qjBQNKHvJRAyjSp1Q3N3CVBLTLahYADMwI6rVLG7r6hn14joBGIQgh4RtYmcSIiQ7bBcARIYHHc+OKYYtW+Y8X+9BZN2uK5nRYdzdMDydW+cBi4eKm2sgcStLsFxkABYKNqu6J7FHozuikaAY2ARsDOsEYiJ8+KPZTObvGC+IzMfcKB5v8oX7eyfhX74nDgrkX86hDfreowwwEDEP3hsFAJE1tGD7NC/Fv5sQ2ftavy0kYbHZPt2cvXZ2sENAL/CQIeW9auW2kjTGsDjYsxwE6sqiKLw03VGafLLD+5mRNEDQ7WgCHWvfhGrKa5VaAxd1465jQxcp3oohHQCGgEojIC4UTWtke0k7VTcIXjZhfbNY6h2PbKHPzVdh532CkpRnag5e4yN4hJ1A5pVa0BQ5N1VO6kum0aAY0AHAehcIMECZxpPTtsg1HxfQ5si1pMipWFSJvfw3R9OAaPOF3sgl+D0nRUsd8WWVvJp3Q30AhoBDQCUR+B8Cdr+25Fk3QdYbCb0c77G3EmfNzGnxY9v1SPbTHTlvEP298d8o68hL8K1bMvKrqKrXb1W9R/mbqFGgGNQMxFIALI2hksg3xfTg7lhldNd4U9htrKOWL6luOYoXtqy7mxTR31hcCdYe3iUe3UxBxzu7d+Mo1AzEHAy/+Jn8fRIDHn8fWTaAQ0AhqB6IGAJuvo8Z50KzUCGoFYjoAm61jeAfTjawQ0AtEDAU3W0eM96VZqBDQCsRwBTdaxvAPox9cIaASiBwKarKPHe9Kt1AhoBGI5ApqsY3kH0I+vEdAIRA8ENFlHj/ekW6kR0AjEcgQ0WcfyDqAfXyOgEYgeCHhE1s+fP6Mnfo8pbrz4lDCht9snfPrUn576P3F73qOH961rEyRMRPHixXuprpCcY7/o+tVL5J0oMfkk9X2pLv8nT+jZM3+KGzceJfROZB1/9uwZ+T95TPHjJ6D4CRJGjzemW6kR0AjESgQ8IuvjR/bT8N7t6YPipalFp75uAZv2zUDa+ccvlCpNOho1fdlLKUgbfFHcuhY6ia9lz0UNWnWlV1/LYf0eknOePX1Ka5fPo1/Wr6LHjx7KtanTpqeajdrQ24WKWXXt372Nxg/pQYkSJ6HB4+dRytRp5dj233+iGeMGU7nKtah6/RaxsgPoh45eCDy6eIEO9OpKCVOlpoJDR1OcBAnkAXa1aEhJc+amNzp1k3+fmjGFrv3xOxWe8y3537lDezu3peR581Oerj2tBz6zcA5d/ukHerN7H/J9My/t7dSG/K5fs46n/rAY5WzRNtC44W9sd5tmFMDfXcFh31DiTJmtYxc3/o/+XbyA8g8cTq+8lo2e8bm7mjekdCU/oewNm74EsmofDsT19qYkr2ahTJWqUvJ8Baxzj40bRbf376VCM+ZRXNM4vH3oAP01aigl8PWld8dPs3RWDw/uS/dOHHe4j+9beSlPl560vUHNl+7/arUalPnzKozRZsZqshwHlj7Zc1D2Rs0oUboML+EYh406vxvXaW/H1nLMK24cSpQhI2Wr15iS5c4jvx0bM4LuHv+LPpgxX/59a99uOjZ2FOVq3YFSfVCE3LXzzW59gu2I4U7WIM12DSqxZe0vN+8+eALlfivwBeA3EHFctqZfy5Gbbly7Qndu3aA06TLSyGlLrAaH5Jwxg76mQ3t3imWcNUcuIewLZ89IHfVbdKaPP6tk1dfsqzJsRfvRG3nfpq8HjpUBRJN1sP1DnxAFEdjdrjk9On+OMlb8gnI0ai4t3Fq7KiV7403K23ug/Pv4+NF09fdfqdiytUJC+7t3ovunT1GReUsoXpJXJMvlziZ1Rbzjg5kLmHji0s5m9en540fk+1Z+qSMZE3imCoHf0OVffqSTk8fJscxVqlO2ug0tdM6vWUln5s+it0eNJ58cOenZwwe0rU41Sl+mLOVs2e4lFFX7UhYqTAHMFfeOH5N75+7QldJ+VFLO39e1PdfzkN6fMsu6/tjYkXRty2/y77z9BlOKAu/I3/9ZNJ8eXThPtw/sY9b1YtIvSEmyvkZZqtUUcscAc2vvn+SdLj29kjUbpSleglIXLkpXNv1MJyaOoaRv5KE47DG4c/ggJWXixWDkCke/a1d5EGogJJ0oQya6fXAfxUucmArPXSKcAjK+c+QQFVu6Rq6/sWs7HR0+iAfR7pSm2Edu25n1q9rB9rRwJ+stP/+P5kweSSlSpaFbN65R0ZJlqUm7Hg4NARH7pkhF4+asYvfEM2rf8At6eP8eTVm0nhIn8ZFzgztn1x+/0tRvBoiVDPJNmz6TXLdn+2aaPKovJeCRGOSfzDeF/K7IGn+v1bgtlalYTZN1sN1DnxAVEVBkjbbBkvVlizk4sr7000Y6NXUC5WrbSazdu8eO0oGeXSjzF19StvqN5TFB1gl8k9PbIw1Cdi44/8E/ZyhBihT0nF2LsB4xM0YJLVmrweTJzRts/beRpG+F5y6WenfwYJKMSTRPZ4M/njGZ72hQixJnzEQPzv5DaT4sbs0kVFv/bN1EBqd3x05xaL7/7Vu0o1Ftyli+EuVoEjiLVmSdt88gSvH2u7SnQ0uZiWBQQ3Ee9BRZZ65cjS3qRnRoYG+6w9Z+0cWr5L7BkXVw7Qyqv4U7WQ/t0YZOHjtEnfuNpkkjDNN+wvy1Dj5uELFPMl/q1GckXb10gaazKyJdhsw0bNJCq63BnTNz/BDa9tuP1LxjHyr80ScOzzhlVD/6c9tv1ObrQfRukY/kGMgafnSUePHj08Axs+mfv09oN0hQvUMfi5IIgKxBKAFMmPGTJqV3x01loq0XpGUNC3V7w5piNefrO4j+njWNLq5fS+9OmEZJMmeR5wRZP713l8nQcG+8+mUNtj4/lL8/vnKZ/mzZiNKWKEWJmCz/ZUs2X/+hlDx/QTkeVrJGHadmTqFLG75nS3o2JUqfgW7u2UXeadNZ7bvy6090YtJYytWmI11lF889HnBA7PHYvRkcCQZH1qk++JDisoWM2UgGng283pwHDi7uyDou3zNeokSEQSZj+c95AGgp50cbsr525RJ93aKGWNXfzPxOiHDH5p+pWYfeVKREGQtQuz8aP8IFAh94tpxvhPicIT1a06ljh2ng2DkOvm5UsG75Alq1eBZVq9ecylcxphcga5TS5arQhtWLKSv7yUuXr0KzJgzTPmsLdf2X6IAAyBolY7mKdGr6ZCHQG3/uCJKscf5fo4fRjZ3bhOD2dGhFCZKnoHdGT7AeWcj67l2e3hv+WrgQUhcx1n7+XbKQzi5fzAT+FfvL09CpaRPZlfAxvdHxazkeHmT995zpdPH7NfTepJliPTuXA72/prtHD9MbnbvLn5d+WE852RecvvSn1qmhtaxVBYnSZ6R3xk6yfOTuyDph6jTknSYt3T91kt0+r8sMB66kaEPWq5fMobXL5tErPskoHY/Od2/fpOtXL1OefO+Iq0IVkHUCjr54s8C7dGjfLorPvqJOfUdRzjz5QnzO7InD6Y9fN1Djtt2pWKlyDu914vDetHfnFmrXY4i10KjIesqiDTTo6+Z09swpypA5K106/68m6+jAULqNFgKKrN+bMJ3JoZ/4YlFSvPOeW581jmOx6/CgvuwGKcO+2p8oR9OWTPifO5C1KzcI/Nt/8gImXAD2Eoe/4cLz2LLlKCzlTsCCHhYm4R/f16WdWOev1a7/0ttzJsGn9+/Tno6t2G/9mD5cwEEJTHz2otwPzhXBT1+AF1pVCS1ZY+H10aWLMmOwW8rBuUH+XbaIzi79lgqOGCsLvHL+5k1UePa3MhieX8u+/HmzKN+AYQ6Lp+7aGVQ3Dzc3CF5o1+Y1eMHw8kv3g+N9NFvaKXlERrH7o3ds+ZmmjxkkxDl04gIHslZ+bVfn7Nu1lSYM60nJGJDOfUdb1rXymSfmRZSRU5fQK0mTSZ2KrGcs+4kuXzhLfTs1thZBdTSIZsLohICdrOEOgZ/16d07wZL1i+fPaWfTuuR/+7aQISzs+D5JHcg6gF2FqQoVkd9APulKlaE7bMUeZKsWi4HpPi4tx7CQB8sWLgmc85hn1YgUicf1peaoh1v795EfG2r5B41g10ugEaZupkgwHVvFWGBElMfTO7fZ/dCaMnxW4aXXoUjxVbb2EbGBcmHdarr71xF6f+ocjt5IL7+FlqztPmu4NorM5wGD/ebuyDoJL1LCor6550/B/v3Js8R1AzcKrsHiJvC7tnWLLDwWmj5XFnaDG1TCnawRApc8ZWqp14fJsMeQiXTi6EEa1qstpc/4KvUZOdW65+LZE2nrph/oyzrNqMKXdV4ia/zQo01dIdDRM5ZLuB+KndDdnTN1dH/atXWTgJohUxZ6zCvQt25el+udXS92ssbxXzesooUzjIUUTdZBdRF9LKohYCdrtA2EcWRIv2DJGueenjuTSW6VEO9b3R3Db+EGeWIL3VNujhMTx4olXmDIaEqW502BA4S2syn7yfO8RQUGj5TfrnKUBnzhzzhYIA6H42WtUYcyczieq6JIEMfiJEzIoXtZ5VxY5a7KrhaNhBQL88JfXD5f3e84R4dkqV6LstbkyBYuYSVrRJWcW7GU3h49UQYFd2QtN2MS9ma+yvJVLWsQg9EKS/oi+95fPHtKcJfkatWekhd42+GxIs2ytt81abLksoCo3BJVajWhz6vXs07569BeGtmXR19eQBw+ZZH87kzEi2dPoJ++X0GN2nSj4qXLh/icgIAA+vl/K/ja7+jm9asUJ05cyvxadqrZsDWHCxoLH6o4kzV+HzOQQ//27dRk7fLz0D9qBEKHABYpYWErab7Q1RK9r8IsBrHm9plLWJ/IIzdIWG8Wkdc/fHCf/eB6J2JEYqzr1ghoBP47BGIMWf93EOo7awQ0AhqBiEdAk3XEY6zvoBHQCGgEwoyAJuswQ6gr0AhoBDQCEY+AJuuIx1jfQSOgEdAIhBkBTdZhhlBXoBHQCGgEIh4BTdYRj7G+g0ZAI6ARCDMCmqzDDKGuQCOgEdAIRDwCmqwjHmN9B42ARkAjEGYENFmHGUJdgUZAIxCuCPCW7QD+DzsgY/MuSGdMNVmHay/TlWkENAJhQoBJ2u/yJbq5ag2lqVGd4qVMpQnbBFSTdZh6lr5YI6ARCDcEmKif3LhKl6dMJK+jpyhenhyUplVbipc6nSZsBlmTdbj1NF2RRkAjEBYEXvg9oZPDR1LatKkoQclSdHP5t5Tw8m3yad2avPPkivWEHWqyfsLisxC7Tc5aisgdjXLun1OEhEoQpdXFQACZAf0eG8rrXl6shmyTINIYaQQ0AuZ38uw5Pfzfj3R14y+UfWhv8kqZgp4xl9yfx+rse49Tonb16ZX8+SWzZmwtHpP1RVZWmT9lNJ06cYReMBEhl/Tn1epR5ZqNaFS/TnT18kXOS70sRuOJgerkX4dEtR3K6kEV5OlGvm5VMLCVLl+VqtQyRErDq9zjxO0Xzp0RVR5dNALRCYEXTNT3fvmZrq1ZTZnatadEb7C8Hy8uojz3f0r3fvyFbqzdSBlaNaDEBQvGWgvbI7I+f/Y0DezSnBJwYnFoGSJHNQji8aNHVK95R7rJauZPWIEYqi8xuezb9Qer1PSiiQvWsfiCb4jIuhjn6c6WI7fIjR05sJtadelP7xctGW4wLZo1gY4e3OOgthNuleuKNAIRhEDAs2d0Z/2P9PDXXyhV4zrknQ9kbCimq4Lc0I92/El31/1ISRvWpsS5srOF7XhOBDUvSlXrEVkP7NqcLecLNHDcXEuiC0+DqT7A2/bbD3SXLbxylWsSLL3vVyyktwq+R4f27qQ3878reoiPOSH3bz+spQtnz1DaDJmoVNnKIr0FhYXtv/9Ix48coITeieiDYqUoR+63BCxVF5TKD+/dxfe4RUVLlaVcefLL8Tu3btKP65bR7Vs3RAj3s0pfWddAzODv40foFP+HwaV0+crstvGxXsLFc//QFtZyfHDvDuV6s4DoOapwITzX9t9ZUfmvg5SY3Re45x1WyPiFVWYO7tlBJcp8LveC3qS7oixrpVzz6OF9al2nAn38aSWq16ITrVo0izJmySZKOXFZaqkiz1ICuHNu/uV/LAh8hJL5JqcSn35OadMbAqJPn/qz4MJK1pA8KcLEFb+sK23cwudjsCzyURmq2aiNvI+gni1K9ULdmFiJwAtWZ7+6bCnFPX+afGrWp4SvZXNrNWMW77d7P91atpqSN6tLiXLljHUWdojJGr7o1nXKswpMfbdT+Cmj+tHli+doEJO5Iqm48eKJ1FepcpXpvcIlqF/nJnSHhXQzZ8lOF8//Q90Hjafsud4USxUWa+as2ekhywKBeBu06koffVLBqgsuhGS+KejalYtM7sTK5rMpExMdlM4hfAtfOQYT+/1h5d+/e5tlyNLQ+X//ppS8sjxoHGu2MfkeO7yPvhnQVeoAke/fvY3e+aA4S4L1ko9n3ODudGDPdjkO8d/PKrFyO8v0rF+5SAabNwu8R1/Vb/mSurr9y3Mm6z3bN9OkkX3oixoN5b929SvRQyZw+P5RX4OWXbhNXejvE0ep4PsfCuFeuXRBpNKA2cpFM+l/K76ltz8oRuf/OU2d+40i6E5uY8L244Ew55v5qUOv4SyzdiDIZ4uV7KAfOsogANfH7dkz6OG1G5SuZUsO0UsZLPmCsO9u+40erfqZUnfvQvHSBH9NlHngcGhIiMn6379PUP8uTal5xz5U+KNPXN7aFVmX/aIGfdWglZy/ZM4k1j5cLcSTJVtOgu8XrAtreuzgbkJUsCKfP39Gk0f2E3fBpAXfs2TXFfH7flLhS6rdpB398/dxGtClGVWr25zKV61NXZp9JRYotCAxOMAyViSZi8kLgroJWLcN9Y3u35kHG0N6rG/HRuSbPBUrqxsacru3/8737UvDJn/LBHmexg/pwe6dTlSy7Bcye3jEGo+vsFzRZibHuZNHeuQGgZo7/PtP/B7zPVPSgDGzWOw3pZA1dCf7jJwm7VZCwH1HTadsr7PvjksvXlzJ9Opr1JJdJ7MmDBNXyuAJ82V2gxkJrps2ZiAv8P5tuUGCejYMnrpoBP4rBF6wH/rOsvXkte178u7Vl7wzZwlxU14wN9zfsY38fv6NkrdtTfFSpSbDux3zS4jJGu6LlrXKCjmCJF0VV2TdrscQcX+gDO2J6Xlc6j54vMPlqxbPpg2rFtOM5T9bvqiDe3fQ2EHdqN/oGeTNbhGQtb2uFjU+ZRKtTNXrt6A/ebSdMXawkF6rrv3Z0n3dIuum7XvShx9/Zt2vR+s6lJ7FdVt1HUBNq5eWBcL4LAcmhYkPM4j2PYfygHCCLehvaebyXygOuyfsJTRkDSsZlnGqtOnp3cIfWRE0IOtC7PLBIIQCt8i67xZQEpvqtL+fn7QZMwnMIEbyQq4/D3R1eZ2gcHFj4LST9TP2Awb1bAXfLxrze7Z+wiiJQMDTZ3Rr7Tp6cvwoJedNL4mye+7OgIHid/wverzhZ0rauCHF800WJZ81vBsVYrLGjYf3bkewsPt9M1NcG6qAHOKxRRscWU8a0Yf+PX2ChXMXy/mqbNq4hhZMH0Mjpy2lNOkyyM8QwYUy+phZK8QadSZrDBzw+4KsUeD+AGFdZZfB+LmrJawQ11SoWoe+rNtMznnMi5+dGlcVf3h9tuLb1K3IPu6cEsliL3CdwH8O9fMRUxdb/mJ1TmjI2lltXdXlTNZKdR2DCSxnVbzZbZPRXLiFhQ+RYajG9xkxVdxIzpZ1UM+mwwfD+zPS9QWHAAgWro/Hm/6g+2eOU9qG9YkSJgrW9eGuXtR3b8cO8tq6lRI2qEMJUqcPdV3BtT2qHPeIrOEa6N+piezbx8Id/LzwO2NBrGHrr4Mla+WGyPf2B+JKOc1+2Y/ZxeDjk4x6tq1HPsl8qXyVWrKAuG75Al7wy0+d+oy0rGS7ZW0naxBc9lxv0R+/rhc3yzczvxPLE2QdL158WfBMx4PLph/WyGJjr+FT6HVevFw6d7KoqsMlovzdIH3MHNCGnnw9oj0wm7h18zql5+dFBIczWZ85dUzcE1jYy1vwfYd36+yzdn7xzmQNXz3uiwEDi5cJE3qz++ZPKlqynPjGd23dJP7t69cu08xxQ0jNHJzJOqhniyqdT7cjdiAAYn1yjSPFvltJ9/buJt+O7emVvPnDTK7iEtm0mW79splS16tFid9gKz0GR4l4RNboWrBYF80aT38d2icWL9wIlTlmGIQYnGWN62ENLp8/le7xol+SV3zEz4wFPPih50wawYuAp8VV8m7h4hwt0Vl8xIrw3JE1LH74veG7RQwzXArqGiziIUrl+tXLcj8QatGSZeUreer/hJbMnSILdM+ePWV19IRCzJW+aiDHz5w8RnMmj5DFRDwn3A4YpJzJGtEYM8YNpmGTFoq7wl48JWtci+iTeZNHyWItSkb2V3foNYxSp80gC4xwGT3nATLnG/nE3+6dKPFLlnVwzxY7aEI/5X+NAIja/+IFujtsMrsZH1OC2lUp6ftFKE78wJl1WNqI0L/7v/Ci4/K15M1x2L6Iw3ZyW4al/qh0rcdkrRqPBTdYn0nZGo4b13Pg7929w1ZrspdGV/iMsRgY3GYTZxBxHULfQFwozgR/n0PzXmEL3lUWLyxo3r97l5LyIqWr+E2E2yVI4E3x4sd3+e4QoogIjamLN4Zr/OeDe3flnuqZ1M1BxH48UAYX443zg3u2qNQZdVtiFgIg6mfnz9KZ0ZMo6euvU7o61YhX18NsUTujFMDhrJeXLqO4v20n3687kneu161NNTEJ0VCTdVQHwZU1HlFt3sb+7asXz1OV2k0i6ha6Xo1A9EIAFjW76vxGj6Un2bNR8gb1KZ63YUhFRHnm709P/7eB7m7aQcn7daaEHGIb00qMJWtsEJk1YaiE6cE/rYtGQCMQOQjAon566RJdnTadEufMTcmrV6U4PFuO6PKcXZnnJ02ieA/uUZqmLSh+mjThbsVH9DMEVX+MJev/ElR9b41AbEVAFhN5fejytNm8iPgWpSj7GcVNnCjS4HjK7tUH4ybQg2vXybdBQ3qlYAHyihcztqZrso60bqRvpBGI4QgwUT+/cokuTZtDyYoUpldKlaA4thDdSHl6qMzcukW3Jkwm/0OnKUnLBuRTqvhLeyUipS3hfBNN1uEMqK5OIxArEYCP+uY1ujFqOMVPl41StmnBER+uF+QjGh9xw1y+Qre79qbHz/zJt1tHShYDsvVpso7onqPr1wjEAgT8b1yne6NHsAUbn5J2607xONLLkxLw9Cld3bKJrm3mMLwL5yVeOvGrWShtiVKUtvjHnlQl54KwH546STe+GUuJeIdjyh49o/1OR03WHncDfYFGQCNgIQDXBydeuzJzGt3neOosrTrwFvLsHDrnGUZXN2+i4+NGubwoXelPKVfrDp5VaBK236njdHHIWEpa+H1K1aRB5LtlPG61+ws0WYcjmLoqjUBsQkA2vHDUx/0ZM1jV5R4la9mGvDlMLzSK5EGRNTDNN2AYJc9XwGN4JbWUg+ADAAAgAElEQVTqvoN0e95CSt68ASV6K2+0jcHWZO3x69cXaAQ0Akh65s97C86zmyF5xozkU7euhMophRdPEQJZn1u5jDJ9XoV8sr9OD878TadmTaUATmKGkqlSFcreoKmn1RouEd7t+/jgYbq/kcULalQh72w5QjWghOrm4XiRJutwBFNXpRGIDQjIAt7Zs3Rn3EQKyJuHUtWsQfHCqC3qd+0qJcAOYpUBk4E8xm6Ra0ziKGk+KklvdOgaanhlFnD9Kl2dv4iSFf6AfD4oFO1cIpqsQ/369YUagdiHAHJxPD56lO5ymlPfYsXIu2jRcMvz4YzmsbEj6dqW3+TnbPUbU+YvvgwT4Jz3jwJu36abo6dSnLdyUsqqlcjLNjiEqfJIuFiTdSSArG+hEYgJCEha0p3b6dH0SZSiRj1K8EmZCEuaBEt7d7vmFMDSXyj5B40g37fyhRlGPMNzzgN0lTftxHn4lFJ2YE3ZlMnDXG9kVKDJOjJQ1vfQCMQQBPxZK/TWxAkUL0sOStGoIcVh8ezwLvAxHxrQi+4cPihV+3I61fwDh4fbbZ5zHpHbG1ikd8sWSt+lEyXIkD7c6o7IijRZRyS6um6NQAxDQDLp3bhBV8aNJe8cWShV3ca8ndvzrJtBwXJ67ky6sG6VnIKcIu+MmUSJWVw7PMoLJuo7a1fQzV3bWfuxAyXJlj3aLDZqsg6PHqDr0AjEMgT8WUD6wvAhlL5EWfIuUzLc3CHX/vidjo0ZYaH5RpcelObD4uGC7nNWirq1dDEF/PwjeddvSEk/+SxaiRVosg6XbqAr0QjEPgSe37hJl4aNobSffkzxS4Gww5Yw6cE/p2l/904UwNYvCsL4sjcMXbie89sIePyYbs+fQU9//43iVK5FqapU/s+2w4e2p2iyDi1y+jqNQCxHAC6RR6dP0cPlKyhhgULkU4YTJrGMXmjKUxba2NulHT25fk0uT8aLifn7Dw0Xix3aj7e/W0U3N66i1LVqU9JSn0Y7ogYmmqxD07P0NRoBjYAgID5sTkt6c8lSSpw+KyWtUJpY3shjdE5OGU+Xf/7Buk6kubwCLfW0JUqGass58Q7GB/uP0MPVq8m3Xk1KkIM3xERTnUZN1h53K32BRkAj4IzAM5a+uz13CSVKlYqSVKvIFrFnhP3X6GF0fdsWt8AioVPu9l08A/5FAD06cIgurlpFmRs3Ie8smUO9w9KzG0fM2ZqsIwZXXatGINYhEPD4IV1dsJB1SBNSyjq8qzFRyEUHwpusxUVz5DidnzuPXm3BOUFezx1toj7cdRxN1rHuk9IPrBGIOAT8r1+hW83b04uKZSgt5wuJEy9BxN3MXc1M1H4XL9LZ/sMoU9P6lOT996K1Ra0eU5N15HclfUeNQIxFABat385tdGfMRA6Pq0nJPqvIhM3+50gqskORlWJuTppC3u+9Rz6flIqWi4mu4NJkHUmdSN9GIxBbEHjx/Bnd+eFH8lu1hpLVrkvexYtEStKkFwywbCWfNZGSvJ6Hkpb7PFLuG1nvVZN1ZCGt76MRiEUIgLDv/r6Fbqz+ntJUq0Q+HxbjnY4RaGGzRf345nW6NW8Jeb+agXwrV6K48f8DF0wEvmNN1hEIrq5aIxCbERDC3rqZ7ny7gtI2bkTehd6NmEU+Jurb5y7Q45G9KMk7n5APL27GSeBZNEp0eE+arKPDW9Jt1AhEUwReIHzu4EG6umw1pW3eiJJkyRKui32o/+7xY3RzVH/yKVqF0tTlNKr/kVBvRL8iTdYRjbCuXyMQyxEQ8dp9++j+6vXk27gOeWd9LVwsbEh23T+wn+5MnUWJ3s5HqRo1Ii9O/BRTiybrmPpm9XNpBKISApz29NbKFXRnxzbK0LETJcycJUyEDaJ+dJiluiZPoSQsgJCkerUISdcalSDUZB2V3oZui0YgBiMQ4PeI7syeS/4XrlDyTu0oIe92DI1mI4j69sG9dG/sNEpdrhwlrsI7JqOR4ktoX7Em69Aip6/TCGgEPEbgGcdAXxg0mpJxpEbCzi0ocZq0HhE2hAn8jxym65Mnkk+pMuRTpWqEyYp5/HARfIEm6wgGWFevEdAIBCIA//WTc+fp/vjpdOf5E3qta3uKl5GFBby8goUJ+o+3f9xA91atpxQVynPSqLLkFUMXE12Bock62C6iT9AIaATCFQEsOF6+RH4zFtCdhw8pU9vm7MMOmrBhUd/ZvYfuTJtKqWrUpCSleWdiOCvUhOszRkBlmqwjAFRdpUZAIxA0ApJa9cEDurtyHT08cYLSNGvIUSJZXS46wkf9eO9hurlgHiWv/AUl4R2RXqFIwxrd34km6+j+BnX7NQLRGIGAp8/o4c6ddHf9RvJt1oCSvMb5pm0uESHqfXvp4rdLKf1XNTgpU0FOvxq+mo/RBT5N1tHlTel2agRiKgIQCPjpZ7qxdg2l/boTJcqaQ3zYEp7HG2rufLuEfFs1psTZcoYp3C+6w6fJOrq/Qd1+jUAMQCDA34/urePFw82bKW3rVhQ/R3Z6eHQ/3Zu3mFK3asP/zhariRqvWJN1DOjo+hE0AjEBgefsErmzeg09/XErxS/6Dj09uJ9869dlfccCsZ6oNVnHhB6un0EjEIMQeOH/lG6vWUePVq2kZE1aUJKPP6Q40GPURVvWug9oBDQCUQuB535+5Mcq54nSZeQNL5qo1dvRbpCo1U91azQCGgGNgEsEHMgaSgtqHxGHQYZkU5GGVSOgEdAIaAQiAQFtWUcCyPoWGgGNgEYgrAhosg4rgvp6jYBGQCMQCQhoso4EkPUtNAIaAY1AWBHQZB1WBPX1GgGNgEYgEhDQZB0JIOtbaAQ0AhqBsCKgyTqsCOrrNQIaAY1AJCCgyToSQNa30AhoBDQCYUVAk3VYEdTXawQ0AhqBSEBAk3UkgKxvoRHQCGgEwoqAJuuwIqivDxaBG7u2U/xkvpQsd55gz9UnaAQ0Aq4R0GSte0aEIuB/+xbtbtec3vlmEnlDyVoXjYBGIFQIOJD1nSOH6MnNG1ZFSbK8Rq9kfY3unTxOj1ng0vetfJQwZSo5fu/EMfK7cZ3SfFhc/v3oAisWnz4lf4/r7U24NlG69FZd+GhvHzpAvnkLUMIUKejpg/t0a+9uSsrWVqK06ax/44I4rFjskyPnSx/388eP6cafOyhB8hSUPF8Bq26/a1fp7rGjlDjTq+STnVUmuDy+eoXuHf+LUrzzHsV/xcc69//sXQWcVcUXPtvddDdKd4kdiImiNCINEiKIgvG3QVHp7pASRREDBBQEkQ5BkO7e7t7/98199/F22Xhve9c7/hDee3MnvjnzzZkzc8+JPH9Ofe/o4SE+ddEfi7ZYIlj6/odSAaq3V7XP2UW8a9U2Y2Ft33zurmvuE9scfHC/CvrpW7+h+fvEmGgJ2v2XJEZHi3ftu839Yb0F2f+00mWJhx1cWLqVKw9ZgYN4e3tz1pt//iGJERHoS5TCyq9hY3Hy9pGb27feIawl27SVpLg4JRPpjQPLSkF0a5bPuryq1zRn0+WWMkHZ0FPwgX2SEBEuAc1biqO7h1lGS7ZuK4wBGLjrT3Hy8hL/Js3VI0lxsfhupyrbvUJFczkx169C3v8Vz6rVxaNSZfV9XHCwhB45lKqtlKmAZi1T1WPv7HyH7Nm7uKi55FqylPm3wD27JCk2Rkq2udccCDYQcsAymdfaZDmHiblP3fqpfEGHQfZjMTf8GzdVY6Eny/nr6O4uPnXqoW7PVNWmhwMzWCsLHD89URacff2s7VaG+axpU3p8ostTqXsfMMssg/Le3LEN89tZKCNMwYf2i8BPEvFiIr6JCPJbomVr82edMyl7vsTb5NLVElNmdsbu0q9Rk2z3ORVZHx3/gQRBaPRUuVM3qdK1p4QeOyqH3x6tBrDhR5+pzp2YPklu/bVD2i7/VmW/vP47ObNwbqqGlH7gYak99DXV+BA4Ev/7/bek/rsfYXI0k8hzZ2T/yKFy14jRQmLUP5sLQB11Ro1Rwquna1s2ysnpk8UBwtRm0UoFKhNJ7K++PRBE01GaT52thODGtt/k38mfS9OJ09UkYzo1Z7pc3fCTubxy7Z+SmgOG3Fk3ctz/3S+p+pK2fay7/v8+VoNjbd/uHjlGSt17v0ScPS2Hxo6S5Ph4VUfZx9pLrcHDMVljZd+IVzCZrikvWm5ly0mLGfMLRf/TStgd44UMXjVrS9033haXEiVV9h3dO0oSFh09UXa8a90l2zs/e4fAtlmySikKlAnLpI9D2rLKP/ms1IC/YyZdbis+30mq9eytvkvAIvFXn+4g+ARpPm2uIl9dRlsvXK5I/fD/xoBwD0uDD8arxT8Oyseu/i9J9T4DpMLTz5mbcRxydBPy5NewiTR4/xP1PReCIx+9m6qt7hUrQf7m3FFPerJnB4WkRt9BUq7dE6qMC1+vkPMrl0mlF7tK1W4vqe92D+oDpaey1Bv73h14ZfRF2jlMZaXe2x8owuYCtXvgyxIH96NVe7wslTp2NheTdv46QsFp8vlkKFzlMsWBP2ZXFmxZhDLqb3pjk26b0vCJLk/13/tY/BtpRBy0b48c/eQ9ZbJrs3il+u4g5ilJvMmEyWZZi7pwQVrOXmj+bMmZVDIbjftCKZxpMeXC2ejjCVaPZdqMd5B11IXz0vDDT1U+rupcXalV70EMNKZqvftLxWeez5CsG0+YIg4gMhLrlfXfS7Ve/aRih45WE1qNfoOVtv33e2PFs0ZNafj+OHObD2HBiDh9CiQXJzrx6T+SrOODg8Qfmk39t9+/g6yvbQbRz5gspR98RCpjQiQnJChy4IqpCxvrphbGlHbLbpnHq2YtOfzuGGhRLaTO6Les7pve5nMrlsrFNSulIQbOs2o14HtNadDcebDfXCArPvci+npSqI3rqSD7n1ZwLPHwA4bUOE7Pn6VIr/47H6rsnBABTVsoYmDiIkqSIllQUz0+8VOpNXSE+HG3BYKPunBOkXV646CXVblLd4zjFOz2Tsi9q79XioNOUM7+AdJq7hKlHFz5eb2cnjdT1ZsRWR+fNEFu/vG70vqbTZmNRT/6DrKmIrCzd1elXSUnxEureUtVfu4CEsJC5fIP38mVn9ZJMygJnCsuaEPaRSGt7HHXdHruDAnH+DbBfOHYX9u0QU7OnIJtm700/nSieGPhyy5Zcw5zAbr47Wq5jnKbYQHxwELChYkLFHeGLiVKpFIE9DZz/sZev6bGpkr3XlL5hS4Kw4xw4G/ZlQXLXUd2GMzaNqXHJzpZl2x7H5TCsar6fyZ8IoFQQG0la50zL4Pvrvz4vTQa/6U6n7HE1NnHRxG45c7P1j7fQdbh/x5XRMHErSlJSydrpd5DmJp+OU0ur1ubrmatay18fu+rg8TBxVWtStZqn1WgVXhWqyHHvhgnZR9+TE1cJpo19gzqLdT2KdgeMM80gGarJ5I1Jw9XQRKAPULVW2rWFNIYCGHLWQvN2xT9WV3YSt33oNLCnWEaKY1/WyY9Dxcfz2rV5cjH/8NWqI3S/q3tm07Wt/7crvrHcmq9MsJs6ojDYrN7QC+hVlOj/2Cziakw9D+tYOl4WC6ap+bOxM7lR2m7cq0ad04Imqb0LWWFpzuYsSe5H373TWh97yvTgeWkT28cWBbNRRWe6iBnFs1V49xs8iz1HMma5VGL13du+18fruQ2CSaYTMka215BYNZS2N1Vw6KSVrO+/tsmOTFtotTEzufUrKlSFZp7JWjweqI2TK247Qr02c1NfZ2eBp9W9nQtvuLzL2I30MdM1pxjrjALNp04Q/a9OjhbmnUUTH1133pPLq1doxaj5jPmiXu5CvLvlC/UnOUcO7tonjT+bJLa6Vi2uR4W2pirl9Uuue6b70qJVm3U75nhkFNZsJW09PzWtCkjPqE80SE0F2ByFhdj7sS4gJBUbdGsI8+dVTzAXfsN4N1m0QplYtLlgJzl4OYuXjCd+sI6kd2UqRlEF3ydrLltuvLTD7AZloPtroqyH6c1g1iS9ZGP35Ooi+eVtmMtoekd8YTdsOEH48x2s/Orl8uFVV9JEywU16ElX934s6blQJNhIll733W3xEJLZXs5Cc5Dg9XNIHuHDVCrmr5rSI+I9e+4nde3PWkJXf/sABtoA2j93tCyre2bJbFR66GGbWfvIHVeH6OIn4nb6+OTPpPEyEjsSF7AzkTb0RR0/9MKWHoT9NK6b+Xs4vnScs5itcinNV3cu3qd2XSVGVmnNw6WZdEMRu3To6JmPyZZ0z7I8aVdsHLn7iC6QVIWJoZrkJPMyJrtKNGilZpo1WGWOLNgdiozyKF33lDk1RzmKJquuEiwPD1ZQ9bpyR5NEju6PKcUortefd1M1lV79JZzXy2Sck88Dfv9vmyRteW2nAvf3a+9oUxs3CH4N24m1bE73g3Fp+yjML8N0sxOabfsNM3VHDjUbM/NDIecykJ2ycuaNmXEJ2qnBiWBHFYdc4yR1DmWvtgZhv1z1CaytsRbN+umhymV4Gov9clud1OH9VJCf+kSNBZt+0gbMLeZOlnXeuVVpRlR0+AKxN8zIuvEqEjZPbivIjOSPg8kD44ZabZR61v+umOoobY2b6VIstRCAnfukHrQDgKat1K2tj2D+6iDEctEIiOh6WRNG1glbNsOvD5MfUebsE7Wx74cr2xSLabPMx8MpiViThplI4d9j6urZdIFkvVx28+tq34AY23f0ppuoi5egB1/LMrxAgHMMVdHe+s/n30EoTkirblKg4AKuv/WkPVhnEkQC8oE5YYTgnjW7P+Ketxy25sZWac3DizL5+56sIvXUot2BZjiSDqWZE1l4uSsaVLqvgck4tQJZXemaSErsm4xc4GSGR76UmZ0mzU/08abNtFUQLlmsoaszbIHktft+brNWzcr6mYQtoWa+o2tW5TJiGY6W23WEWdOg4SHiUvJkuKJg36m679vlhNTv0zVFcpv60XLIevOZrKuPWwkTDtrVVgt2t9p8skKh/TI2hZZyA57Wdum9PiE9VGeSrW9X4139OWLIOsUHOjfpQ4PqXzpmvXfH7xt3pHzuYNvjYJJKFaaTZphlr1I4E2TEc2A3MFwx0L51xdAKi/KBAju1A8fs9PnOzTrsOPHIOQdVFk8UOQBmiVZl330cfnnc9h2QKbUcNKStW5C4XaLtq9Gn3yBcuoKbzns6tdTaT5lHm6HU9etAOmyMtRTICwHnFuv3QN7wdRRTZk69ANO2pfM2zbYCrntpEAxUbMmWVOLsLRX6mQdCXvoAWyNSXw0r9BmzVsr3KLodZNYaF5hol3bMqUnkPrvtvSNB4y3dm5XtnfelqF27QR7VnPYTCmAnPw8iODugbdwWi9cIdHQ7HjAW5D9Tytclpjx8I7kG4aD6CrdYOd8UbNzKjMIbm4EtNBOznmQrJ8FZEbW6Y2DPrl4EMuFLOTQQbnnqzVK+HXNmtcDqT0mQ4vkQk4ysoasWy/4Sh36HnzzNXXjRCdr86EfFAAnb29Jxm/nli4U/WDaWrI2yx62xmUfaadu+lz79Rd1E0XZurFLsyRrJ19f2f/aEKWcBEDrt5WsucuwPJhmO2kGJIlXgc2fKfrSRVUnz1yIt6XpJj48TPbjoFs3+WSFQ05lITvEZW2bqCCl5RNLsuZtEJrjmLgI0+ZsSdZ6PeQ9mjK4kFmOvy57xJtWBxK2bl7SMSUnkqt4+4eXLrKbrLoNkpasqfntGzFYXTVK7zYIrybxGhftRZZX7IL27pITOByibZlmhJqwy+qNT0uGJ3AYyCte93z1DWyFMH38vkmZU3TN5NzyJXLxm1XS5Iup6qqVJVkTDJ7UU3uxvA1C0uehE2161PIqd+khlQBkeqfZGd0GSasd68Db0jfm/XfaJFxrCxcnrLhcYNRtBNisudUmaVOrqoYtcYVnnsNOZlKB9z8jsub36upe+QpS7rEn1PadNw/0CZH2Noh+A8AaMwjLsLwNQk2IZK3f9NEPciwnDO2ytBvSRMZrgNaSNeu6uPZrObdskZmsd2M3Z2dnLy1m3r6RQ82KRMdFlLsvazRrlm0pe8SL9neaGfTrrZZkzVtAYdihHHrrdXWInVOyppbMsxASDnfHTOpw7uWuqh313/ngDjs7+07bOQ/4s8KBmql+iyc7spAd8rK2Tfp8teQTXpfVF/+a2IHwLIx8wB0YD50tyZrXOXn2xWuU2OKLL64c0j7t5OWtmm0pe7ywQIVUP5jN09sg2QEtO88kYOV2RGf1SZ2dMnLyDDVhbv04aLmdbOkb7wDrg27ZDpqQHFzdcrRlyqxfedn/3MazuJWnsMfhd1ozW3HrZ3HrD0mbdm1HaNcFlYw3GAsKeaNeAwEDAQMBGxAwyNoGsIysBgIGAgYCBYWAQdYFhbxRr4GAgYCBgA0IGGRtA1hGVgMBAwEDgYJCwCDrgkLeqNdAwEDAQMAGBAyytgEsI6uBgIGAgUBBIWCQdUEhb9RrIGAgYCBgAwIGWdsAlpHVQMBAwECgoBAwyLqgkDfqNRAwEDAQsAGBQkXWyfBoZpeSDAdRqZ0o2dCfYpOVzqtSEuLw2rlLgb3pWWzAREeIZzK8McbDcY9r5SoGplYMLjFjpB9HT89UEYCseLTIZinMHFRoyJquJ6O2w/nT33vEp/fAdF/DLrISkI2GJwQhbNSsGeL6yH3i2eLe/8xkyQZUWT5CB0wJh4/J9ZVzJQ6RY6oMhW+H6gZhZwociDr26BEJmjtPfF7qIR7wUVJQ7iGyHOBcylDYOahQkDVX8Mh/jknM5NniYG8nMfXrSfl+L4mdm2suDUPRKoa+rIMXLROXXfslOsBX3Hu9JD5N6ivXrUayDQESddSfOyVxziqJfaiuCmwRs3GHuD/TXtxbNoOfjtsxEm0ruRjnxnyMP3FSghHcwS45SeKrlJXSL/cRp7Kliy1hFwUOKnCy1kA6KrHTZorHww+JY5t7JHABYuSVcxO/PoPFwRR8shhPjVRdo0fDsCVLxPHqdXHv01sSrgVJ0OqVEgAvh+7wLljctZvcHGfKVvTePRI0c7Z4P/KweHd8XuwQwSb88B4Jm7dYPO9/TPw6wkugYXYzw56clCjRBw/LrZlzxbV2bSk9pL9EIwRb/A8/itewV8QxoFSxk8GiwkEFS9aYTDGn/5VbCLXl2qCVlOj2DGy0jpIYHCI3P/hcXJrXlgD436W70P9CSoEf5lsLZ0vc+XApgZiXrpXLKU9fkVt3SOjX30qpka+IC0IDGYRthTRAthKuX5frn00Vz8b1xLsrfAqbAiyn4Fwk7sQJuTFjgfg93l68HkeE6/+YUpAegrTXhv/+u8TPmSOu8B3vNaAvdrfukgSH/DfGviOOMfAS2b2r+LR9IE88VloxqrmfpQhxUIGSdUJosNycOkMcG9SXUk8+eZuUOdFCQuQaA31WKCu+nZ4XBzh/L86JEyVo/TqJO3pcSvbrIy7wJaybPfhbxK7dEvbDr+L/9KPi3rql2DvkvnvX4oRvcni4XBg3UdxKl5aSiFju4OmRqnvUpmIO7peI+evEY3B38aj3314EU5ISJHT9egla+4v4dukofo88ZF7c6Mc5EQEwQld+LdG7jsCG/YJ4P/G4ihRV1FNR4qACI2ueMl9fPA9hh6qLzxMg6jQDz8kk0TESuHABiNpLfLv3KD6reRoJ58FG8G+bJWbvTinTf6g4IPL0HdozNOz4U6fl5tzZUgLmERdE8TE07PSpgnbqm0uWiuP1q+IzbAQOq0HU6dj7uWuJ2n9Qbn37vSIo34YN/5OYKrv+rxskYv1P4tevv7g2bnTHgbaaj4iuFLlnn9xcNFv8n39BfNo9iTmJINpFNBU1DioQsk6MDJeQGQjH5eEtAQO0KA0ZpfiIMAn6aimijtcU90ceEYdisJpb9lVNlI0boVVvkXJjXxWnSpUyJAxOmIjjhyV2zffi3eMlcalW9T9JLplxQzJue0T+8JOEXbwsZfv0VEEuMjuYJWHHwkYbvGK1+HR+VtybNC+2SkF6uDGMWeTmXyV641bxG9xfnGrWyFSmiFfE/j04V1oipZ4DXg8/UiTxKooclO9knYyIC6HzZkjSlVviO+J1cSpdItN1Wd31DAqSsEXzxbF1K/FpjWtsxcS+qDQ7xKKMWbZY3HoMEI/77smSfFNwOh+7b5+EI4afd2/YtRGg09CwNRFKiY+TsHXfS8Teg1L69VHiVDKdHUq6jJUs0cA0CAfbXi8+J94PtP1PmJm0A9j9Er76a/Ef2Eeca1pnCkpJwgJ38iQOIb+AOaQDDm8fR+SbomMSKaoclK9knZQQL2Ffr5HoX7dIwLtviWv16tYRDQkbcQlvzpsnHo/iQKhpoyK5mlvyBIk6GkFmgxFD0r3DE+L3bAfrCQJmk+h9uyRoyzYp1RuTDHZZO1x5/C8nHs6GfbNaQnaDqF8ZLG531bJOtkygkbhi9xwEYcM09+zT4vN4u2KjFKQrFyTqo0flyqqVUr5bD3Grc7dNePEcJfLIYQlZ+Y34PPQQCBuHjkXgHKUoc1C+kTUjTochyG3M5i3i3v8V8b7/XgyuDfYu0+n+1S8mimvVGuL7UjdxgS27KKZkaCbROxDhHDc/HJrdI/59EYnb3c2mrtDOHblrl4Rh++749DNS6mFMliKk3djU2SwyJyNaePA8yNbZE1Ji+DBxq1YtW3fS1c0bBGmOmLxQnPt0Ef/27VS8xOKW8G6sxJ8+I4Er1oh/x6fENZvnH1zgkhCB/crUL8Xv4cfF84EHbZvT+QxsUeegfCFraj2hq5dJ+Oa9UrprJ3Ful71BpXDEHTspQZ99iS2uq/iMGisu5crm85DnrDpqJLHbN+EAbK14N2wivn27iZ2Xl9jhP1sT7d1hP/wiiSuWSMI9baTMwEFi715wAT1tbX9u5E9OSJTr06dK2J6jUnHMSPFoUNcmDTFtG5JxiBazbZtcWbkS2vWTUrrD0yLF6Ooo51DChatyBS9dlRvcCwcFPVEAACAASURBVLuyMjnCi+WFH/xbIqYvEP+XnhDXex8DYdvnxtDmahnFgYPynKxTYKMO/mqVxBw9IX4gJre77s6ZCYPCduWKXJ44XZwcnKTcm6+KfUBAtjSpXJUGKwrjCweRIILwr9aJe6cnxPeB+8UeUcxzklJwoBZ14KBcmjRbSrZqLgEDe4ud63/jzc+U5BS5AZOaw/zZ4vbGG+LRtGnumC6gYcfgEC1s8jJxeuZR8X/uCbHL5BA8J+OXn8+q16mP/iMhq9ZJQLfnxa1enRwRtd725MQkCd28CbbvtVKiN65Bti1c7hGKCwflKVlzNbsJDSUh6IaUeLG7uFaqkCukqrSD64E4kZ4vztil+kKjdPT1y0+5t7kuaoDhv22VsG0bxPeFnuLVoF6uXXvSJuFxCVk4X7yaNxafTl1ALi42t7EoPUAZiL9+Q259PA5vvj4qvs/w3m/umSzULZHdeyRk2nxxA1n7PItrakUYU3XraMduuf7111IOJkSPFs1F7HNPA06OjZHQ2Usk7uA28R71prjXa1Ao/NkUJw7KM7JOxsn8zQULJDk6TkoPGqC257l5a0HdEgkNlWvTpourp4uUGDQEdaR+8aGwkA8nSvimDRK2daeUf22YOORw65lev9QB2dmzcn3yNPG7r7V4P/d8sbS3su+qr3hJI3DJMvG9/37xaImXhPLiSifedIzfvU+CZ84Uu4fulxJduomDa9FbBCl/ET//IiFrf8I86Q3HYLlL1GYNOyJcAhcvlbi9B3Bfu4e4t7kvb8bFyold3DgoT8iaV6hC4c8i4sBuKfXmu+JappyV8NqYjdrVzUC5OWe2eJYqLd7wDlbYbLbcIkZv2STBP34D+/Qr4tWwca4uWqkQ4wn/v7DpL1okPq1aieczTxXoZLFxNK3Krs4tzp6TsJVLxevRR8WtWavcMX1kVDtfTd+7VwLhZMzl8UfEH6+t2zsVIedPwCvswAEJnzJX3Ho9LwEPPAy88uaaHQ8uk6JxkWDDT5L8yw/i2qGzeD6OHY8tFwmskoKsMxVHDsp1sk6Bv+AbeIklHgeBZUbjrmupPHb8whPpyCi5+e06SQq9KWW798QbgIXDhs0XDkI3/iwh63+Rsq++Cr8eNfP8tFyZiG4Fyg3cEnHycpdSL74g9jjALA4e+2jzj//3uIR/8614tW8vbk2bCTx9ZT1zc5qDmP59TG7M+lIc73tQyrzYGYeORYCwqcxcvCDnP58k5bt2E/dWtOnnDVFbQqycQe3YJYEr14pXx3bi9xBenMmPcTI1orhyUK6SNU/Sg5evgEb9l5QZPgr3qDN/G8pygAN375RLa9dIbOAt8axSVar2eBlvLVa3epolx0Gb/2q5hP/9r5QbNkicq1ctUILStp4bJHDd11JyEDTqJvAHbOUp+eUf18mtP/8w99271l1SvXd/q7FQV6qwJQ2dNk0iIhKlwqsDxbFMzk79ra48jzKyT3R1Gvrdt+Ld9yXxuqs+bKJZE3Us7uefX7lMwo4fUy3zqllLqvXsLa7YidmSNI3+tITNWChOzXAu8EKH274zbCkon/LyHCPpzDk5O2uOBNSsBrNEP9jcc8+mn1U3lNJw8aLcXL4QrhEaSonHcUibDwff2eWgULzzcHHt1xKFxc3Jw1P8GjeRKl2g+NnQ5rzmoFwjax7IBH3/jcSu/U383xkpbrWtd+cZDIc6Rz58J9X4O8DG3Qz+dF1LlspKLsy/J8fGS+Dq7/Bywx7xf+EZcb/3ngIxA1BQQ7dtwXWmr8RvxADxbIOtug2HOadxu+HKT+vM/fJr1EQavPeJ1TiojJwsEVF4yWMZrmpdFP9uHcStSdMCwcO2ht+ZWxHlyRNyc+EqKdOnmzhhh2Lt+cdVbMlPzZmeqlBnP39pPmOeOMKjnC1JnZMEB8n1hTDB4LDcp2MHHGoWPg2bmmX4L1sk8rvvxAkOqgIGw9Wwh219tQWXjPIqpSEwUK7PmSvO/h7i17Mvdnt5925ETjjo2BfjUylI7JN/s5ZS/+33bYIiLzkoV8hancxfvShhb7wlTu2fFJ8unWwihX8mfCKBf+2Qkm3vl8qdusnxiZ9J1PmzUq1XX6nY4QWbwEqJjZPwjb9K6Jo1cP7UXbzgT8TeKWsNzKZKMsmsvR5/U0LGvi12te/CSxrDbb72FfbvMfT/nHC3EXIIhzXZIWsTYSdFRUs4HBVF/L5Z/Hr3Fg/cx86Tw7jcAjBtOdSoz5ySoM+nw9tbF7gbaGXTLQaSddC+PRLQopWSqau//KhquHvkm1Lq3gey1erE4GAJmbNEXJrUE0/4YC9MzoyU6e379RK9YrnY4+C11NBBIOq8I8isAFTcgBdnbk6cJ26V/MX35ZfRHg+rF9usytd/zykHHZ80QRyweHtj53UDL0aFHj6oim4FFwQu/v7WNkPTk/KIg3JM1tol+4sSMWuaJDi5S8lRI8QBmost6ej4DyVoz1+KqCt37i5HPnpXkRRNIZU6wj5oY+JWKOJnHHKs/Fnch/YT53ua57pwpNckhcW1GxI5Z5bEhoTjcHWkOOTAd8fZpQvl0ndrsk/WpkYmQdOKwJWtlJ93ivsomIgQdcZazdRG6HM1OzWl8INH4Rdmkfg+1wFvyNFnh20Lb0JkhDh5amTF8dn5UidhJJ6ag4ZJuXZPZLu9ibeC5dLcBeLetI6UfAy+MawwyWS7MmsfxJuxYb//KRHz5khyKV8p98GH4mgj0VhblU35gHsMXsSJmztL4suWF79undEuv1yTwdzgIEs5iTx3VvaPHKK62Hz6PHEvjyvHNqa84KAckTXtYhG7/pLwbTvg26K9uFarrV1tsjH8VOCunfLPZx8pOGj+SMLrww54WaQJ/WZkAyg1MXl18JuVEr17t1QYiZh7lSvbCLdt2TV3m3slZNMW8WuHWwp31VF9sRULy1pzi6xZZnJMtNxYvkgd0FUYORaLSHnbOpjPuTkBI3f/IZEr1ov3i53ErQ1MODYSddomR1+9InuH9FNfN/5skvAsILtJ2dC3bpPQZXPFf/QYjDfuFdv+Emp2q0/3uUTaiN/7nziVKSvug4eIB99rsDGF/H1IkiArWSXu9hwQdcfapAj1zFmJeW+8xN9dWQLeGA0buvXPZ1RPbnGQZfnXNm+UkzMmq3v1bXFIaosJ07Kc3OagHJF1XGiIBI4ZK84eflJi3HsqZFJ2Ugy2SQffGCEJ4WHmx70wkRp+ON4mgUgFFCfTnj/l2vLFUm74aPGoUTs7TbP6mQQ4u7/59tviGCdScuI4sTdpc1YXkE7G3CRrLeLMJrn2w1qpOALkgkPcwpyS42MlaMLn4nz8grh9MBYBbqvlSBPjpD787ps4aPwHh4y1pfGnE7M9CYlbFFywRiOgccL1a1KKGixc2xZkgrhLzL9wDPb5p+LbEx4c8XZsdnZPe4cPlOhLF7PsSss5i206pKWbhZid8PC35mvx7Pa0eLa8L1vtS9uw3OIgvdw4XHDYN3IoorqHS4VnO0r1l7XFPTtJLei5yEE5ImsVHgm+gENmLhD7xg0QkYO+qW0/cd736mAI/3nxbdBISrRsI1d+/kFirlyWcvDNUHPgUJtxUiCdOCLRC+Cj+OWe4lzHOtePNldk8YA6BEM06FDcFkipWgm3YQapkEg5SblF1hyn8EN7JG7VT+LbH4FPi0Bkb+0wL0RCcAXR+doVcRkAT3oIc5Zd9fX0/Fk4tP1B7F1cpMmEKdA6s7/Tos36KjRY+5uh4tV/oPg8eA+2hLn3NmB2ZSYZ7nNvIYhA9P5jUhEhuRxL2maOZL03cQuJTvmzSqXuf9DqA1rloY+h6b77XnxwbuKNMGvZ1VbTtiu3OIjlJsMr6KG3RkvE6ZPiXrGSNPl8Ss6UxVzmoByRtQKOJHXob7kCk0WpJx4Vjy4v2nQJPh7a+V+9u6miWi9eKc4+vhK0d5ccHfeBuJUtJy2wENiS1EHD5Utya8IE8Xr6abhufDTXBCPLdrBuRIW+MmGiBDSsh3BRA3N0vSs3yFotIgh4enPqFPHv/pJ4tGmdKxpNlljkUgbal0MXL5aYi8GIQdk/W46HruNw9QQ8wzHdPWqMlMJBdnZTUlSE3Jw+W5JhXnPv1l184eipMIW34ktYkVt+k7gDR8VvYK+Ct1ljRxf2F7xDLl0lAaOHigeCPmd3wc1wzHLIQXq5J6ZNkuu//aoOGpt8MUXccd6UnZRXHJRzsmZvGGjzj51qW+g+arR4tWhiNSEkwdHTjq7PK9KvO+ZdnNq3lnPLFqmDNa8aNbG6TbUaL0VMZ+AUHT4KXO+uI/49Xsj2ymh1pXcu9RK5/4BEf/ap2CM4QMDjj9m8WPCuJ/G4vP47ub7lV/GG/bsWDsQYUYcLmLWJpo8YHNTeWrRKvNq2EV+4w7QvhFfNsuoPI76HLFsg8cFR8Cw4IP2wZxkUEoGbJAfHjpIUHDrzRkjVbr1UTmc4/9IPHrOqX/+dN2uCZs2SBDgl83wOQQra423AQujgKSURfuN5AwimmjJ9XgJhB1g9H63Fwpp8yk598hSuOq6QUnA5m6fBnnPAQezLFdwSOj13hupWFchICcgKkxvOduxt8LqYlxyUO2SNTvGtpeDvv5fITdul3BjEvatcxWoBOfblp3JrxzYFjqOnpzqtZ6IJhKYQa5L20sJZCZ+xXJxbNIRvDJzQY8tbEIlYhP++VQKXrpbyMPG4NrHtFfNtHdFnEG3axK1ZcwQRtibp8QWjFn0vbk8+IF7tYCPMRUdH1rQhN/PQIU/ghp/hIvewlOoOU04m4c8s6/0XGvUNaNZpky2yxWeT4xMkZP58CTqFK6XcMeGlq4J4jdpaTHkDKOyb7yVh30HxGYIAzNWsf0HN2joyy8eIRhH/HpHwBUtxk6ejujKaHRu6LW3JCQftGtBL4m7dvKO65tPminuFilY1I685KNfIWgm0eotwmSTCsbn/q6/BYVFJqwYoMTpKTi+YIze2blEkxZsglV7ogmt7nawCSUVfPn9ersyHYOA1ZG++VlvAgTxppwtDtPKYjZukxGsjs4xtZ9nRHJM1bNQxBw7L9TVrpSTumnvUwUskObxJYd1A5G0uYhqCwMIR326UEtiNubdtlWV0kn+nfKHJVZpkC1mn8PXpXfvh43qFVBn9mjjT3l3QVz+sgRo22OtrVkviH79L6cFw/dCgTv60m4eJ+/dJxC8IPfdCR3GmW+R8eM09JxyUY7LOBw7KVbJWYMFVYtjqNZIIDcR3+GAccljvG4QG/viQEHEpAZK38o0/dRCFw8lb0+aIS7vH4IcAPqILCTGlJCF4K4LhRm/6Q3wHWx/jzpp5mFEe4hGzD1cIV60V955dil3EbhUhZ8MGif1+tdi3f0YFCHBwd81W8AZrcCZRB4HsYxgs4tUB4tOkSf4QnjWNsyIP51TwyjUSt2GzlBgxUFyat0D78+4wlOMTg5BzEZs2iU/XggnqnBMOsgLSO7LkFwflOlmzJ9yyhkALSTp3WXywZXQqYz1h2wKWdhkerjK/mCauj8Em+0Th8zKn/AgjenTkpq3i0+dlm2Pd2YQHfTDvPSSBi5aIH2yEHs3xmntR0ABt6SQVAmAavfMPmCW+Avk0kRIvvwRnVYhintuJ1x337JVbcxYhAMGT4vVE+6L19qcJjyS8URe4aoWkbNkq/kOGiHNLOMDKA8JW47J7l4Rs+0NK9OqBYM4VC0z+iiMH5QlZaxp2rET89pvcwqu+lYcMFaeAzKOY2zrPlH3o1EkJmT1b7Oo1kVLQIm05CLC1vpzk5yvA0QcOydV1a6VCt67ZjnmXWRv4xlTUzu2Ic7lGPDt3RoxLvO2XFz6ecwJELj6rBxwO//IzcWl8v/gO6pXjqDupmseXnEDUV5eukDKdOiH6SR75zM5FTDKVDxX5/SeJ+e5n8RvWT1xbwrGYlbtXa5rIiEWhP2yQKLgDLvnOW+JcBkGcC1hRKG4clGdkrQgb14jCEe4n9vJVKYlXTB1yKzgANepzZyTow0ni2LyB+PLE2y1n4bGsEcic5FHmiSNHJOS7H+EAHiYReH3LNWEmsWBhDJuxWNz7dRNv3EDJLxthTjDJ6bPqEHX7dji8Xy7enZ8XX1zTzA0/HWqsjh6ToBVrxa/Ls+JRD3EdC4lpLSeY0cFTMMg64QeYKEb0hItZmERygbBVpKL9+yUG12UT+w2SMo/hlox9Ab/OaQKqOHFQnpK1Monw3ueOPyX4wBEp3wM+AUrm0Nc07zJfuyq3pk+RlDKVpVw/vIhTVILEqquFZ+Tqsm+k9AtPi3vdu3M8WVT4KcQLvDR7nvh3eE4CsFUvDsRiLSkxUnzs9l8leOnP4jW0L1644Gvf2ScKdUcWblWvzlws5Xv3xK2mcjkqz9p+5Fs+7MBuwNETAwSU79pV3BBpJyc7UvUC2t//yKXxE8WnZT0pPWy4OBSyHV1x4aA8J2ulYWNCRe86ICE//Shl8TqrI8JaZes0nRr1tWsS+ukUSYB/5hLD+4qzZx7YKvNw5jCaRsL5q3JjzkLxf/axnMXC462PXQjsOn2Z2HV4WEo+93SxDeWV6Rafh47btkrI5l+kPPyoZzdsGokn9thRCf5mvZTo3kmca1TPs4PLPBSxLItOhski+JeNEr9otXi9ijBf8D6YLZMIdyC4Lhs4dZq4wS+Qf3+Yogqp4lQcOChfyFo3idxChI+YfQek3Mjh4lS2rE0aCydSyo0bEvzJJInz98bbbMPEyYfe1LKvRWUp1XmUQdNGjsi1OQukLIOXNs9GBA9TfMDAqXPF5dmnJOB53M224fJ+HnWtwIpVd9s3IyAxzEF+XV8Qz/oNbboVpEwfx47LlRVfSfnOXcS9fv3sKRQFhoBtFdN0EbZho0SuWy8BffuLawvb3gVQeCGE3I2Zs8SvJYMxdM6X4AK29TJ1bppEijIH5RtZK8LGoWPQvGUSefqYlBr1Kt6/r2w1YSchVFXwuE8k2a+U+CMSjBOjmRc9njZLj7qCth2hjxD01asHzBe2xMajOWUvIm9PnyUuTz8jviDrwvgmXU4mVnaeVRHkN2+Q8J+/l5KvvC6utWpZFZ1HmT5OnZBg7Ha8O3cSdy6eOTClZKftBfGMWuDgsyNizXcg7O7i3sy6WyLqFhZDx33xpXg1B1E/iyAMRSTye1HmoHwla6UdR0RK4IzZkhQWDTPGAGjYWZtEkkPDJGTSTImKCpIyY9/Aq8LWR48piElgbZ161Onwb34U/4F9xA3X0LJyhKXudCIe4M3PvhDHx+7DwW035crRSBoC6vrYls1y87t1UqJvL/HCIVpmW3xFPKdOS8gs+C1u94B4PgL3AIXM5pqXY6vwOrAX70asQzShzuLauGHmJhHKHzzSXVu4THzggtXzmSeLlOmtKHNQvpK1EjoMdhLeWLzx3XpJwJ1MfwS49aQvkQxOpZNiYiQYHtPibwRLyaHD4MgHRF2MtB5F2IcPy41FSyWgzl3i26tXhiGYtNdZT0vg5+PFtc3D4tcJvk/oP9xIqRDgdjds408SvPYbKdV7EOQLGiNMRGm1ZXU4e/AQ7mvPg9OvJ8WDQQT+Q0Stg0a5CoUMhq76VkoiVJlHU5hE0puPXNgQKi5s2mRJLFNOSvXC/faiiFcR5aD8J2tdQvB2X+jm3yEgX4s/rt55t733DhLmNi1izTqJPLxfSo58VZxLFC+ivm0TMUWhnjxDfMuXQcw8OCtKJxRTQhBMQZ98KSnN6iBqeWec4he++H+FZd3g3fZwBCwOW/qNuLWqBzs2biLRi5ppoafvjJDNvymCCni+vfjCQ6Odg+3ufQtLf3PaDnWOAgdVUbOWi1e/Z8Wt8Z2moKTIKLk1b6nE4Oyo8lsjxd67aB3u34FREeOggiNrIocJFblslQT+vkURtte992LCOGoKOO1pW36X4J2I9DIQvnmLeHTuLCcTt5enzsiNcRPE/u6a8A2OPluEZKIP5WsLFosHIuf4v9gBmqJB1Flhyl1L2I6tkrB8lSS6eUnp8R+r+H8piIQSgZBcsTv+EOeBA8X7wQdtOozMqt6i+ruKurIBt2o2/CKlh/QVl9r0A6+9ms7FLRyvrUcizFqZN3FBAPOxWOxwixAHFSxZUwhgj7766WeICHJEUjp3k5Jw/GKH/8J+2y7Jf2wVTxwmOiNM0X/hwIeTJfxHvJq+ZIEkUcNGuCj3iuURIRpO+OcvEadq5cULsQgdCqFbzsJKUMrGjwDGEdNmivMzT4k7ghjfQGTz2BMncAg5QNxho/0vvEBk7fjwTcSQb9fjKuSv4tP/ZfFu2EJS4MY4/Nu1EoadSIlXBuIAFucAxcgUWVQ4qMDJmjbs+Os35CacfTtcuSgeOLCITgJdXwuSEr1fEPsSufimn7USW4D5+JZZ6A8/SdSab+HWsqK4PdZObu3cKwHNGonXwwjVVAT9URcgnKZjEi2Q8Y3FC8X5/DVJQXBb/xGDxbl2reKhHeYywMnwhx29Z59Er/tF3Nq1lUick7j+9o84DoS/Gbg6LZJ26swwKiIcVPBkrWwe0H6gPQbjkC3h0A6JvauWVBo2Whx9fYvVCm7tnFL21q1/SdTyBZJsFy9OnbpLyUd4+GVbZG9r6/sv5FM2WfipCVv6lQQMwL3iesX7HnVOx1TdkjlzXs5P/1Rc4Ae9TFfc3GpYp/gRtQ5UEeCgwkHWGl9juxUncTCHOCL0jyO8qBWnrZbNkwdvfSYiDmV8VKi41q4LFw4GUduMYZoHePuDgS0cvbz+27JlJZDqjc4L58UZZjd7RCgq7vOxsHNQoSFriwWuWJxbWDkfssxGASpG5sEs+2tkMBAoaAQK65wrdGRd0ANl1G8gYCBgIFAYETDIujCOitEmAwEDAQOBNAgYZG2IhIGAgYCBQBFAwCDrIjBIRhMNBAwEDAQMsjZkwEDAQMBAoAggYJB1ERgko4kGAgYCBgIGWRsyYCBgIGAgUAQQMMi6CAyS0UQDAQMBAwGDrA0ZMBAwEDAQKAIIGGRdBAbJaKKBgIGAgYBB1oYMGAgYCBgIFAEEDLIuAoNkNNFAwEDAQMAga0MGDAQMBAwEigACBlkXgUEymmggYCBgIGCQtSEDBgIGAgYCRQCBIkfW8aGhcnP771L+iWcQXNdwyF8EZMzqJsYj+MStG1fF3dNL/PxLWP1cbmWMDA+TWzevSaWqNcQBgZsP7d0pZcpXlDLlKtpcRTLiaQbevC6OTk7iX6LUHc/HxcaIi6ub+j4GAXyDb90Qb18/8fL2zbCuOMRCtLe3FycES46JjkLAjmSVl5+dnF1SPRcdFSmhwYFSolRZcXa5/ZtlvTZ3ynigQBEocmR9esEcSU5IkFqDhhYocEbluYfAlYvnZMnsL+XUv0eF0VyYKlSqJh9PXZx7lVhR0o7ffpH5U8fLtKU/iIeHlwzs2k5atn1Y+g0fa8XTt7OwP1988LqEBN1SX1ateZeMeGu8+PgFqM/HjxyQr+ZNkU+mLpFrly/IO6++LEkgd6aWbR+SAa+9oxYLy5SUlCivD+gsQ9/8SKrXqiMj+jyvyJjp2c4vy3Nd+5izL58/VTb9+I36TCLv0meIPNz+OQlB/vdH9ZOPJi8Wb5+MFwWbOmtkzjcEbCbrpJgYCfn7oMQFBopH1Wric1cdscNqzxR5/pyE/3tM7LGS+9ZrIK4lb2sUoUf/lrigQPFr0Eic/fzNHQw+sE8SIsIloHlLcXT3kJt//iGMQWiHMFYelSqLR+UqKm/05UsSceaUxN66Kc7ePuJaqrT4oqyb27feAVbJNm0l9sYNlV9PzhBOv0ZNJHDPLkmCVlOyzb3meHKBu/8SRw8P1WY96X3h9z51G4iLv7/ofdDzeFSuKp5VqiqCCd6/R2KuXxOPipXFt37DVFq/3nY+5+Dqij5VFTdEbNeT5e/8Tm9r2o4xzFLokcMSdfGCet63bn1xcNO0s7jAW6p97JtXrbvEq1qNO8r3qFRFPDFmeopAINToSxfFq2ZtcS9XPlX/OEbEQx9bPhNz/aqEn/gXZVRXY6PG/NwZ1R7L5FaugnjXRDBaK9Kl82fkg9cHQMt0lYefeF7KVagsoSFBitBee+czK0rIvSyWZE0N98LZk+IXUMpmYjtycI/89st30rj5PXLx3GnZ/PNaebDdM9Jr8Ouqse+BMFvf+4g83qGLXEOQ6G2/roc2X1P27/5D9v/1h1oc2j7UPlXH/vpjk2z5aa2889ks9f2uPzZLLDTyxbO+uIOsJ38yVi0QJORf138j169ekonz1qAvJWXiR29IWWDctfeQ3APOKClfELCJrCNOn5R/PvtYEYOe2ixZJU4gz1NzpsvVDT+Zv7fD9q9G30FSrt0T6ruj4z+QIBBlxec7SbWevdV3CRER8lef7iDnBGk+ba64V6goO7p3lKToaHM5VV/qI5Wee1Eur/9Oziyca/7eB0TV4H8fy/bOz94BFNt0Y9tvd+Rv9PEEufD1Cjm/cplUerGrVO32knp296A+INDKUm/se+pz2r6Ua/+U1BwwxNwHvcLKnbpJla495dgX4+UWFhkVfwuE2nrh8lQLUtq28/nSDzwstYe+pkg9vb6xrZaJC9o/4z+UsOP/mL+uM/ottehc/32znJo9XZLj48y/lXnoMak15FVFtnr53iDxxp9NMufZ//pwicSCVnPgUCn3+JN39M+3YWNp+P44c/7jkz+Xm8DVr2ETafD+J+r7s0sXyqXv1qRqq46XNRL8wegBcvPaFWh7i9I1F1iW8e/Rg7Jv5zaJQz/rNmgqre57xPzz6iWz5K56jaRh09bqu983rsMimiIPte8g4aEhsv6bZVKvcXP5e/8uqduwmTRpea+EhQYrAgwKvIFnG6sYg7pmTbJeu3y+VK5eS5q2uk/+/H0D8odIeSx4e//8XUqWKS+PP9tZXFxc7+hmInZ+NH/oafTAzlK6bAV5/f0v5eyp4zLxwzfky/lr7niWX9wa6QAAIABJREFUJqDRiCD+4ksD5cnnu6cq9/1R/eWpF3pIs9b3m7+ntt2340N3kLVl/X9u3SjzJn8i74LkqyOWJ+v//L2R2D2sF0fH1Nq7NeNl5Ck4BKwm6+SEeNk7fJAkYTWv9coI8apeQxFHQNMWShs+OWOylH7wEakMEkwE2Z6eO0PCQe5NJkxReXWydvYPkFZzlyiSuvLzejk9b6bqvSVZs0wSIckhLvCmtFm8ykw4jVGes4+P2GMyOMHGFwdNm9re8YmfSq2hI8SvfiNxKVFSrvy0TpG1ZX5qi9c2bZCTM6cIjH/S+NOJ0ABrpyLra5s3puoLTS7cEfg3bqr6EIUAog0//FS1mVq3A+yOf7z4tNLy67/zoUSdP4tFp5LSoPWkkyXb4oDgo9e2bJQr67+Xar36ScUOHdPtm+Xug+UcnzRB7SKq9+4vJVu3lZibN9ROxM7BXvaPHKo0/BoDhoqTl6dcXLtGrqOf1bFYVnjq2VSLgY4zteF9rw5STbQka71/XNBubN0irRYsV7sK7qh29u6KxUhghoqXVvOWiktACUmIjFCLKxesZNic6739PrR9d7TDy9z/5Ph4lc8FY2+ZovDdkB5PyjOdesnz3fqqnzaDPG9cu2zOVgME0/Leh6EhrpEVC6bBBltGXF3d5fLFs9Lm/seUyYBpQOfH5LGnX5QXevRXn794f5QkJSfJmx9OVqaGsUN7igPIqWz5StDgn5NG0Hr/91ofiYLCULFKNdjKr4mnl4/cvH5FmUFI1sN7Pavq7t5vuMz8/D1F9PaQW3cPT2WPpsli8OvvZzp7aQp5HWTdvkNX1bZ1Xy+RM//+IyP/d3sxPvb3frl49pQc2L1DLpw7Je99PkfKVaxiLvfEP4exiIyTz2atVDZrPWVE1pYNWjpnEjT3H2Tmil/Mi8OATo+qhaNWnds7yUw7YfxYKBCwmqzDjv0jh95+XRFi2YfbpWr84f+NUSaAlrMWmrf/1L539X8JmvSL0KT7KKJT23RM7PrvfiT+TZoJNbuYa1fxXVQqsvZv1FQqdHgBpDlJEnDo03rhCjPhkMRJBl61aotvnXqqHSz38LtvKqIIaNZSfacTZNr8OllzsXAtXUaaTpwB0hps1qzT64veWfYh/N/jUhGaPhPNLTTH7B02EP24ohYY/saFxDLpbbHUuPeCKB2glTWZMDnTvrGcFNgzt3d9TmnRd48YnarsC2tWyvkVS6UFsNdNKzTL7B06QEXxbgJNWq/fAeTOnU417FbOLJ6HhWujwt6SrDnO5R5/Qm799acyR7FcapzXf9skJ6ZNlJqDh8upWVOlKnZHlbBL0tOhd95QhN70y2l3CPaJ6ZOw0GyTe5Z/YzY9MdO50/8qE8jA196V1vc/qp5bMP0zOY/vmWgiadr6Pun9yhsyovdz0vyeB6T/8LcUYW74fpWsWjxTxn4yTWrXbWgVWbeH2aHzy6+osr+aO1l+B4m9NW66sgHzQO7Td16F2eJUhmS9f/d2mTj/G5gX/GTyJ2OEJDtn1a+pCNSy84nAb8K7I2DquAD79FJ1gDj9s3fFF4enPfq/as66eOYXshVtYWrYrLUMe/PjVJr5lHFjpQ52Eo8+9UIqbLMi68P7/5LJH4+Rp198ybwYsoB3hr8sD7Z/VtmxjVR0ELCarKk9H4f21PCTz80kqXdz77ABatuva5yKYGAO2NGFBNNW7nr1dUXWtM0yH22ylTt3V5pdWZDHtY0/p28GgRZRs/8raoue1lRAUiTpMGVG1nob9fw6WVft0VvOfbVIyj3xNOzN+8xknV5f9DL03YH+WV90Ym5cl6Pj3pdoaKs+sPPWf+cDRcR6So+sj3z8Hmy959UuI7O+sQzegPkLWi1NLlwQLNNJmD+ub94g965el8pO/veH78IefUFpwHr5ZR9rL0F7d0nLOYtl14CXpUTL1gr7tGYQO0cnZZoq2fY+LA5vqHJJxjFXL0vzGfPl0NhRagGhlq6nzMg6/OS/Egn7eLnHn0rV9uioCHml+5PyVMce8kLPAal+482HQV3agaA6SuMWbeUzkN7bn86UmndpCzR/HwhtmuRLErZGsx4+9hNl/mD6ZOwQscN/b42fbq5X194z0qxpX6a5hmnDutWyatEMmff1pjtuYugF0qTy17ZflRZ7d/0m6uvxbw9TZhXuAvRE0iWx/3Nor0z79B15+oWe8nz3fupn7jI+HD1QvoTN2RVKimXKjKwvXzgrH785WGoAr5HvTlALnJ6mjn8Lu4kaqQ4lUxVsfCiUCFhN1tFXLkNb6y/ln+4gNfoMTNWZY1+Ol6B9e6QFJi9NEEw8ODzy0btSDdv2is88bybrSh07y8lZ06TUfQ9IxKkTUuHp55RZwtIM4l27jtq+u1esZD6k1AmHROMMDYUEol/dy4ys0+bXybrFzAXKfs2tPu3rNHPQZm3uy/R5aptvmdSCc+mSNJusmW7ssK3WD+BIXmeXLFDEWOd12JLv0UiBKS1ZJ0KL2z24rzqEI+Fn1je9jJ29u6n2UFO2vLJ4FWR7avY0qTvmf4p8meJDgmUPxsqnTn2pj92GXn4jmH0OjRmJBfJJaNW/SKOPJqjdkiVZc0FtAUK+vuVXoUbcELZzHhTvHvjyHQJMs45+kJgZWWcm+SSUK5fOywcTF0ipMuXMWXXiHD52HK7OVZC3hr0kfYeNkXsf1s5AqAH/77W+MmDEO9LmgcdkcLf2igT1mxvvjugtnjhLsTSDWJI1SZH22wmzV6obE0xLcFj3+8YfMtSsLclab19GZP3T2uWyZukc6TPkDbnv0duLFM0zNWF+eBamn7QpGTuikf1eUP0d8/FU9TPNGDx87dxr8B35MyJr2uJJ8LwaSFu1G3ZUlunTd4ZLgyat5InnUy/8mY2T8VvBI2A1WbOpJLJbO/6QErCZelWvCZv1UaU1xwUHyQGYNHjQWPaRdspmfe3XX5TdstnU2cq2qmvWTb+crmyfybGxsNn2hd3X8w6yLtX2fqmF7bZl0gmHGjJvQJBAeEjHlBlZp81vSdZOvr6y/7UhuDlyXQJatFJkHXnhnNYXaP9lH35MXROk/ZkaLfsQdvwYFpgOql4fmGF4I4O2dd6KCcficwPmgjpvvK3synqybDu/u/XXDomF2ajRJ1+gjLpmMk2vb3oZOinz5gZJmWanEmgzbeX7Xn0FYxAoZR99XJxwR5kmC45J408nKTK1XCyOffmphP1zRJmhavQbLHte6ZvaDGLqX8ihAxJ27Kgia+ZXh7IvdMEYe0sytMBzOFi0PEjMjKy5kLMMjnfaRA2QxEJ7MkmtRMnScvL4EXWIx4PA0R9MVLs0EgxvVpDkeA+bB4YJsJGPm74UNmQv+Yikj7Jo/yZZbfzha7m7QZMMyfoATBpTx7+t6uDNC9782Ai7OE1I1mjWmZH1UdwG4dU9Hio+gFsgTFyIuJjQzJMEmdJt7bw5snv7FnWQefzvA7Bbb1c7Be4YaNPn4eTHUxanOnwNDwtVB55s69dLZ6s+1GvcAoerrZStmwvg6RP/4HAVO9vS2q0jLmg+vtotrNf6dpROvQZJ6/seVbbwSNjtR7w9vuDZyGhBpgjYRNZJ2HqeW7ZYkQEPGjWb73RFxqGY2DwsjML1PWp+vL5GjU23o+pkTa3t3ylfyI0/fldb9OD9e20ia703vA2i35iwxgyi57cka7ey5STsxHE59NbrsHW3MN8GseyLPQ4EK3fpoW6kpDWD6LdBaOcOBRkJJk/Je2A6eE0zHaQla37mtUZPHGhVwU0UXmNksuY2CPNdxQJ4YdVXSnN29PKWulgUeL2O1xl5gyXk8EFlZ+aOhESctnzazIMP7le257tfH6uu96Ula97YYXLCIW659k9LFZirdg/uA7u1vbSYOd/cp4NvjVLX/nieQBt9ZmR9ev4subljm7Sa/1Uqm7Ve2PUrl2TZ3Ely8tjfkoDDS9qESS4dcSCna70k4MUzP5dD+/5SJFW1xl3SZ9ibUrFydVXM2ZPHZcr4sRIGbGiDJsG7YFHPSLPmMzRlfL9yocTiumP5SlWVueVHLAI5JeufvoVWvWxOqonXAERKcwRJdsvP38n/cIjIxLvl1Lb5sgp3aTy07DPkTfUiC8u5dOGMDBr5v1Rl6buKtDNb32X0e+FhmFUSUv383hdzFWa6+ehL2N4D8LLO6EFdpGr12vLK6A8MqizkCNhE1npfOBG4lacWlzYlgsTtYfNMe8hWyHFIt3mqL9gi21txxYkLGZOlrTqv+sybFelhz10Ab2pw8Sxsie0ilpklbuujIiMzvdfMtxwTE+OVNp020YwQFRme6VuAufFMTrClnX70oK5qEeGbkkx82zEsLAS3UbzNi1NO6sjsWe4IeOtkzMdT1ILW/8VHlH38iedw08dIhRqBbJF1oe6R0TgDgUKOwM/frZQzMFMMG/NxvrY0AffTeY+b5wDVat2ttPlF2K2QqPlSjpEKNwIGWRfu8TFaVwwRIGmSsPmaeH6mSLxY9cfmnwwtOj9Bz8W6DLLORTCNogwEDAQMBPIKAYOs8wpZo1wDAQMBA4FcRMAg61wE0yjKQMBAwEAgrxAwyDqvkDXKNRAwEDAQyEUEDLLORTCNogwEDAQMBPIKAYOs8wpZo1wDAQMBA4FcRMAg61wE0yjKQMBAwEAgrxDIFlnrb5G5unlk6B4yOw3m/VP6FWb4I4903o60jB9Hh/IR4aHKv7Eeyy69OhmrTjmIh5vP2JgocxY+kzZ0kv4j3WU64i1My9h1GfWHjt7j401vL+KZ9JzR24oF20zfDqXh4L5U2fK2Pm5T/jAVleVgKkf+NhVgkdmI75dd5IznDASyRiBbZE2nOXwDi/4EWtzzYNa1WJGDYYsWzfhc4k2vbd/zYDt4WRtrXgws49b9selHWThDc95OUqV7TUbtSJuuwpvbuLeGqagcjFf35uDbXsb4ui2jg6RNDJc0e+KHyncwnc5nlX7fsE7FD9QTF48uCJlkGdEjqzIsf+ciRKf4DG31FFxl6s70bSkjs7z0DUEfHIyqQr8bdIj07VfzlAvOADhRym4y4vtlFznjOQMB6xCwmazpdGfMEC3kEN0sWka8sK7K9HMxhFIU/CbQ2Qy9kNEbGaNw0LENk2Xcur07t6qIHnT4s+nHb5W7zAmzV6VysclnFoHQGfGDZE5tdQ88uZHA6ZEtPbKmlklXnPR2ZitZd4ILSwc4b9qKeHq3EKvws1krskV++kLE+IOVq9WCo/rU0VVygjGf1b3N6c6KGMfvErzV6X6ic1K+Ed8vJ+gZzxoIZI6AzWRNb2J8VfYBuLPcCg130vxvzYSSUaw7EiU1ULrDLA1fvYxQQV/DlskyblwQQnmNgl/fF3siFl3H7pnGrdu+5WdZMO1TeXfCbOVtTU80kbwBhznjp3+VivD+ObxPxaBLj6wZVSMiIkzOnzkhDz3ewSbNmhFE/OHF7OCeHTJl3FvmXQdf8d2C4KnX4bie7isfQVBY3b8wF6jylaupsFMk+pp3N1Bx/04e/1seebKjNIEXuDoNm0oMCPX3X75XHtiouT/Q7lnlMY2JXtv27PgNYarayE7E22NUEHt4yNu9Y4tcQXADmlEewy6BeB85sFsFbz0Mz3UPPPaM2o2wv3yeWOtmn8xiHbJ9larVVJGyz8HTHdunB3c14vsZdGMgkHcI2ETW9Go2qv+LUgEE07P/CHljcFf4xR1s9jWQXqy75q0fUFoxt/V0Z3nl0jkZ89EUFbwzo0TNecaE/ylfxvTVm17cOrqaDIJrUPo6YODPT6YtSWWDXrd6sdK++7/6dqpqMiLrHb9tUM7nP5y8UN59tbc8+PizNpM1NX0uZprmPlVF6v7fyL7KlFMHvpWPHtqH+IFu8uGkhYoYGeOPuwk/hHmq26i5NEJIp6/hsJ44ctdy7yNPqHBO7wO/EMSBrIio4jcQrYXj8Na4acr5jm6GcYZdvixiP9LZ/WkQ+O7tvym/z4w+UqVGbXl7/AyhqYluN7losj46tKc5i2acmct/Up7ssop1yDbT/SZt/rRR077fa/AoRO/WAhcb8f3ybrIaJf+3EbCJrI9i4tP37uBR76lAoh+9MUhpfeOmLVUo6mRtGetu5cLpyn/vuxNmqW09baaMAJ7RoWDQrRvy/uuISAMt9E2QOuP/pRe3bswr3eX61UuqXvo9ZigkPdEn8qh+Lyqyr1hF83esp/TIOhia/NvDeynH9o/D8Tv9AdtK1gy5lARf0qybBMtQTqsWTQdBbpYv5qxW/aU2+vqATir+HsmNxEdNmbsC9pPpF8QWXI3Yggu+/U0tPgwdpeE3W7nU5I7hg9cHque4O9DJ+rV3PzNH9maIKLaD7dn04zfChWvGVz+pQ9tt2A3RPKSbQfTnSdbJiAaeVaxDttkPEWve+3yuCkXFyCZV4Dif/WUy4vv9twnF6H3eIWATWc/+8kPZtX2z1INW5gSn/NxmU3vVHZvrZG0ZPmncW0OhWTooYskqkfg/efMVaGsRcM4+12y+SC9uHc0mtLduXP+1rF+zTN74cJIiSSZq2zwo5HdpU3pk/eWHo5Xpo9egUUoLplbPyBtcABjDLrOkkx3NFl6ILsNFhnH+WM64sUPlzKljqWLnURN9FHm79R2WKnq2XkdasiZ+PAjkwqMnkvkWmEXmrv7VTNa6Zsw8P37zlXy7Yr6KMcgQUVehqdOGzsglmZH1BUTYzirWoWXEb9ZF01E4fDHrzvSN+H5ZSbnxu4FA9hCwmqxpdx7+8rNwkO6T6uDszMljSkt8aeBrZs3akqypFZMIP525QpkrMkrc2jNi9Il/Dqstu+6Ynfkzi1vHuHhjh/SQDl16qz9M1JK5xWd0DmvImsFW9Vsolvm5KOkaY0bt1slat1lb5mPfTyFE1dA3P0p1xdEvoKSyb6clPj6blqxnfP6eivb96czlZjMPo11fvnhOPsehqqVmTDMGF7ohPZ5SNu9OLw2UpYjivR2LlzVkHYpQYFnFOkzbZraF0Vl0sjbi+2VvIhpPGQhkhYDVZM1bDgyrxFsKDWFb1ROJ9BzIZMqi73FH+qqMHdoTzs1vR5HWTSe0wba+/1FlI32wfQelgVqmb5bNlR+//UrqQ6OtAzs1E6+X8XZI2rh1vG5GDdUX97F3Inr0hTMnRTcDMP7d8gXTlGlGNy2wrPPIw+t/NJ1sQ18eRGy8UtA0+Tdj2qWkJJubQ8Jqfd8juDY3UGn3mcWpy4yseZA36eM3Vb/vefBxiUVsyr1/bVVmJCZryPrY4f0y4b3XFOaMmcf4hL/hwFI/K0hL1rzJMrTnU2oBfRFx9pYh4CoPHq0hazd3zyxjHWZF1pbx/bISPuN3AwEDAesRsJqsGYTzBkwekxeuTXWQ99e2TTJn0kcy9I2PEMeuyh1kzabw8O7rJbPUdpl207GfTFOHlJaJpE9it0wMGkr7d9q4dTzAWwVTAGPx0Rb8TKeX5MnnteuELKc57n7fbxFRmt/rB2dpoUlPI05rs84sTl1mZM26ft+4TrgQkUS5eFBbH/XeF1aTNTPu3Pqrsl0TP/aXtzjouJ6mlrRkzfxczNauWKDqYHw93tKwhqypmWcV6zAzsk4b3896MTRyGggYCGSFgNVknVVB1vxODdYLV8gsNV5rnksvbh3fduS1OL7tSNLKq5Rbcep4h9vD01scEVw2u4lXI3kFz5r+8qYGTUv6NUFb68ws1mFGZVnG97O1PiO/gYCBQOYI5CtZ52QwCipunRGnzrpRSxvfz7qnjFwGAgYC1iJQZMi6oOLWWQvkfz2fEd/vvy4BRv/zGoEiQ9Z5DYRRvoGAgYCBQGFGwCDrwjw6RtsMBAwEDARMCBhkbYiCgYCBgIFAEUDAIOsiMEhGEw0EDAQMBAyyNmTAQMBAoOggkJJBUzXXOsU6GWRdrIfX6JyBQDFDwCDrYjagRncMBAwEiicCBlkXz3E1emUgYCBgIFBcELDeDAIf1PmeTD6e0623INqT7wDkYYX5iW1GdRWWMcyv9uUn5nkoOgVadEa26ezSU36NfXqgZSYP6eQ3yLpAJa8AK89P4ijICWENxIW9fdb04T+SJyUDsrYzyNpCAgpCC8pPQvmPCLu5m/mJbWEnw3xqH52CZZRsdW72XxNXvb8GWVsx8onJCfCWR+92KYg/oqXE5CSJh/c7J0dn/HGU5BR7SUlMUsFfkxOSJBGhpRztHCQxKVHs7O0kDp8T4QnO2Rme5+Apj9FmGPHFHjKcDH/STo5OKD1FkpOS8UwSnhFJQqgp+pq2RzlOTo7i4OiAmu0kQfAdItDYo1wK+u3/GDUMZeA5R4fU3vj0qZKM39kHPsf6+D2DzOr9Ut+ozKZv1F9spKnj5tVdL1ErhW24nfBvtJs5tIl4u3Tt33rN/KT9rufinDZPa9WF2yXT7Tb7pzsaBJwInBCPcQDWGANXxGLkb3yegp2EP6pm4JEQn4BQXPHiANwkJQk4Y4xiYyUegSUQAwzPYhxdXSUR4cQIvgPGleU4ubihbOKOPpqILRnPEzN8IQl41sn+dmAJrR8cg2RJSkrBWEJWkjBiGFd7jAnHTYM0Ed9psuGKmJRsv46kwk0gT1pPbv9bgcNx15BWHzmelAGoV6jV9MTt8WCIM4lPVHnZ/ES0w84B+VFvDHyMp6QkqNoSE5KBjaO4uLnhE2QY5Tm5OYmzwiH1+NqjHvYvGt4NWX8SsHR1dVF1EC991JIwR3Qviei5WYQ0mdY6oZVN+dNk5HZdGgrpK5PsjMp8W1hURiCPdqlx0uVWjYY2j9g+4m/KqYGo14Lf1bjhM+dlAsK2OQBoR8y7FGARBxnj3HZ2dFE4qlmEAh3xnzlx7gELe+RjJj5nUQPEUGt3EuSHCSiq79hUyqXKnQzZ49w1Pap+Z1nJiQpBDU87iSe/ODip+uLRaIi4kjEHyJEz24xcsQgj6ObigPrQF3AI6+BYxcXGKUw4JsSF8k1ZZbQqcpoDyvXz90dfUT5+d8BY8W82n7IfhzmnzUONfyi7juhzAnAjd7liHiVBtpNRJjuSkIA+sG5g6gh5Io6ukC1bktVmkGBEZGHDHDkpUD/j70VGREo0Oufi7CLu7m4gYgAAQWGj6WKTzvYJTCImCiRTDQo76OCEgcRgMHhsYkKiCsDKZ7y9vFVnWWYSZzgnFv5mXXzOGWTi6eEB8N1Qd4x4eHjCv7OLaVDxO8jfASAlk0AgWBxETZvRxN0OdcTGxGBRwKDhD39zc3MVR2dX8qomXIQWIKuBYGQbPGOHPiWjjUqA8YeAsy8kHu0B9EkJp+Jn1WeKvAvKZZ5EkGQ8SJKDqgRNEYw+KcmL+F5NXE4WrR0szwHuVPnHnkSJ+imNSQlxWnxFkEAKhRTtCY+MlMioKCWk7uiPM8aDpE3BtEtmnSkQwASJjAyHkMaKIxdOVOSCchOBU0RIqMSDdDxAUh4ebhBsEA7a7gBBjcXvLsCb7l3FHsLFfqom2okz6iLJstFRYREKf0cSPSc76iNOFPzIiCD1b0Wq6D8JgAnLOsqn8DoiWnuAuGFsmS8JIDo7gCBNk565OQE4ESlH7HsSiR/lMD/J1wWy4eLmon7j4qUAVkOj/R0TFghypQIAUkZZxJfuauNioyUB2Km4lZjxVCBc0V/FKZhUrvDx7YV2MW8SSdA0u+wwYWNiYiUIcTX5LMvzR6AK4m4HXLmIkuTYVxIXF1MqNwkmWbHnBEddmqKBbgEHrX0aaXP+UOFwdoVCo9ZEki/kgmOKf6oFD7LFeaI4G5hFRkIG8B37oFZqCBpxImlQ5tgeezU+aByIi51MglyloB7KKceOMyA6KlrC4H6Y33MBYixQSYxTZZG8HPGHihvxp2wmu2oyquYc+uDm5qGRK9rmiHoVBwAjvQ9qjGMhH/g+AfVrC629movsv5Onh0n504ifMsS6k0l0am6g3/hM/Ikvy0lKhNIRH6v4whXluCMmKhGIxbPOztq/qQwyf0x0DOZLJOYRMMZCzfI4fsQyBvOD5dk5e0iFipVQjgd80UeqpVRxBuqNhbwQtziUTTJm8Gs34MRZH6OInvPQTS3mcaiDC0NyQqziHbWQmuS/dpsHTdJk3V9Wk/WfP36vKlKSQiHAoFCYKIgkawUgOk5NiYIRB2EjuTmZJi81ZJKrKwaCmrVaLfEMO69pJtrqRrCZCIwLNW8MUAyEJxLO+znJKFBqUKkFEWC0gwTEfLqv6HjTZKRG5Ii6mI+/cxJTu6SG7oTJlwABZPL09ESTHU1CpRGytppjUph0DU4gpfnhe0481uuApjojPiLbSUpQGgXJCPn0xYLfsSAOECcopUZbtEjsWt/15QQKIwbcpL5DeIkHy2L7NcrRsOdCoHYCLI9CHAWBgAbB9lHouaNRi4cL+k7iJl7Iy9BlbA/Hy8nXCwLmhvHBJANRR4aHSTQWX3o3VJOCCwWEm9oVOZL4JcZgUYXm6QoCcVQLgosafwp3BCYLhZQt5BgSH21imRY7yg51MRPpcOFxZoR0jEkkQpGpXQE+U8AToIU7oXxdk6MMsdfM4w4yTIyIlqAgLACol7JAclK7OfyJS8IYm8iTZbG//J1aGcnKBc+rv0HsLtR+2K+ICDXxExO5uyOhUVvD2KidA0gO37FP4cAoAcqFWgCo5WFM2S4SGsv19vKCwDhIJMiAGjvbp7Q8yGEC2sVdpheCb1DBiALWakxRFst1cMR4KqLWsObiqrRYYB2POUVs2TYuNiQI7lZJwnHI54k5RU0uNCxMyZgbiAIjrNqtL2jUQokHP3MkWBOfj0W/iZGSHdUedkFbTBn7kzJIeXdwxjjjPy4C8VhYYrijQEFso4uTvcI8CiTGRcPX11fN8Tjk40JqJkPumKnooB3UXDl2bDd5hPOb3xNwDypgSBwbJfXcVZMLUD/3QJy/XKyYn9+zz9RROedI7GpPxn5yUUceEjcXPyXLGD9yANtJWdQgA7pyAAAgAElEQVQ1fOYnBm5QOr3hM94DQaG9EVM1CuMYeOuWhh1K5ri4q3EXLGpRmvKDuaK4AQA6oO3kFp3juDBEY+eaBMJ2oKJhUkI5B+95rpPqn7XJarIOv3lV2zYDWG3rgobp2hUqZseT0Vq19aUGgU4lQ/gdoUU7Alhuqal52WMQ1aqrtCz+rXOQtk3jwGlaqtpnKS0+CZNXOcPnimdaWe1S4jXtAp8pAFwcSFgxUTFKW9RWO1cFPoWObU+A8GjbK03Dj8aKGYS4g9TYS5UtpwZbDSTpkP2EcCVAI9ZIwQ3xJz1V20j6ShBQP4WFf3SNi23iQqMWBqUBcxHiRIP2gbrZDrXQsQ0kWm6tWBcFTzG41jat89oWS21tHah1gPwguCyHE1fhhO6QSEh6LEsJN75UBEbhYd3onyqDCwcJk8SmTBG3TVrUgkjmxDABAkgSJoZsN0ulBh8fH6Npbqyb/aHQos4E7iSoFbJ0av+shxqkiagcoCWb97RmpPA7vuWOJSw8XO14qGkqIaf24YzF00S6nAxqq4k2sV/RMZESHIxQbMjn6+eDsUFkedQZEwktOQZygTZS1jSNDROZiw4w4TiwfGqXHCPiwDKS1bhrZhIHgsZ2KUWEsgdSVuMGzVVpY6adFdpGbd6ZMoY/1HiV8kCZQVsUjjTxccy42BAP5Hf3dMeccIacRmkLAuUQ/7ZHPVREKFd8jkktmCaTkSYjNC1yJ0oS1HaeHCfKOBeeeIyb0qCJodo50DypYacpV5p8KJMjyJIpNi5GYZ8QR8OiNvco69whcN6QCJW5Qc1vTUEjeVNWqIBRhhKh0XOesH3sgzN2ZTSpcbEjX6hdIjCMi8FuGyRPufApVRJKhDY3OXbElkSmFDeax/A3FyS1AwEOLpBFYuEIWVK7FeCqMFIKCjUgaticO1obOQ5qLqjpA7xonuBCQcJW84CJCqam9Kg2msyILlhEUmgmwx9FTyaS4vzhjtHZkcoXxppzAuPB9mgmVcgP+E4pV6ZdJDVwEnwSzSAmMzIVLbUQQ0m0JVlN1tT4KDB2IGSStEpqr6iRqiYEtGNSgkzfqd/15pj/oZ4h2ZuzsQBmJXmbytVyp2ev0/KqXZ5eJBUdUxt0klM2Ok44bjmYjxlMpxNa8zViVFtECJIdNEZ9y8x2mLjSlE0beE2TYlncjuMZZT/W+qeK1GEx5VGDY9FGldUCBg1DiyymPllAqoOntHi1tJt4XJNCLWlN0HDRP2s0zAXRJLDaJ7UQEQcNG83Sb+4Tm6eZA1VSC4rJ/qm2btxY3a5Qe8401IrjzGNgbppWjoIhdcfV+LBP/Jp482xCtUfTqJy5TdfH2Nwvyp92dKAv+Cp2Jrfk/F7X2vW2qL81gDlW+s6GDdWbav5bibK+OPJbrb1qS2zRdiUbJpT14tVHk9hrmFGzswREU04UVqbx1uTGZAdn+/RS1Q+ahql/q8k6TWV6zVwUWRa31HxYU5JIGubdr5ITi5abxslS3rQWaG3QW6v33Pyk6Qs7AEz+U01Q/9M0U9YLvtMw1goEAWplKoMOxsbUVfyGASeHKGWMC70GBsdFP3cg0epJ9c8Eri6pugnBnEnHDYKhP6pNXw3s2/3R2qYnbfqg/UTA3EBTbeZO6vNFe1aZMVmsboc3TTkzB6h+s2va/DLLCnlGDaGGsl53RqcRaftmbjNWyAymWOpHEpQJBLwGAbBXk51bTAgI7c9mUYNGcFuWLZBRPdB6bFqlbqPGrzVtUg2iGnBTkywI6fYImiQi1aGGXqw2OBSeOwbA1DBdo9fr0AWOm5xUvK4GR/tjzosydILS5JXCpE0qChZtrWqVVpOGBZClzEyjdUHHR/9nKvR5IHMbNktCceIhmCYpmtCZF0ySlF7HbdyIhHaMp5diaqepfDuleVj8rpdnmnH6wqWvxxo5cuKZtA0zFlr5qi6T5qbNXFNFStvXWdlSptBCEHIS+6MOaUyLA7IobUrNPPaVrGTqr2kRBRcqeVHaLwnWNDlUdguZsRQfbuJVUuXqg6sPiAXoZvkz4cXKLGa5uS7VpNTPmXdEiqRUI80Dru1HOVbaYbb2m/Y7CcNJAWDqp+lRTYY0edaVIn08+Kz6WTXBRNY0K5oIyp4ZzeKgKw2aAqPJoNY/rQf6bk6rJxVRm7Iqw0iqNYTlaOVRg9b6y27RfKSPs0kOFITmxqp/mxdP9RP7Qg1ck2/afk3N0gjP9FH1KT1OYGZ7zcxmxtxEjOqcwzQT9F2qVjYL5Qpu0XdTs/kTdF8TZ5mHydwmpTRZJH0B1ttsnlY6DmqYyZ+6iVPDXtO+rE9Wa9bQ4xVQXDXV4YQuwwpL00pqGiV9xdTsk1pj1GqrBMGyl7ex11dU9ou2ndtifhsjTdC0ia3ZkrVRpLavNDWTgJqVHzUo+v9MbTGdwKuBUvNF05IVcPoEMufheJqEwFJIKBPcSqkbBbefM7XGvIJqE0xrl1mDSSVsFmiotuuDZ5po+qSirQsTQ5d5rdNmYJU5QQ2L6XHtsPS21mZGXIFqmp5qYbEoR+cWy/lgmiTmweCiYEEyppVM9S8BQs9x0JA0TVIFPb/PTCj1Mk1toQLP9puhuK0d6STgoAjURHWWE8I83izL1Gt93pu2tHqXLMWQCohWoM5upo9qB6XJG7fVSrOyIA/1iOlR9ZdeuGluKDunaVDUgbTqG2/EaDdrmJRpQg0EzzQ0zZgHkdzy68+aTr/vJCqdkHU54y6AZj6lJFC+LRdkfUw4wKzZRIIm05lqTCq5NwmCDo1pumhnYxwTk2atbvO4mgbDRAtqSPX5bhrfVMSl3RJR6xM1UJNM8q8EmEKcdH4xNdM82Ioc7oBZGyzIRCr517ujYNZJ0qJAhR2JRO+g5XqiyRzt2VQGeGNEn3xav/TPGox6Yl/03aH+nZpy+N/tu2amX/hDKqK6XU5G/7KerM0zNi2NZl1JscyR2SqfboeLO27FvX+5JcVpcUoPt2ximc3HstczvbLcrjS3y8te77SnClNbQPrWmkFy0mXjWQMBAwEDAQOBnCFgkHXO8DOeNhAwEDAQyBcEDLLOF5iNSgwEDAQMBHKGgEHWOcPPeNpAwEDAQCBfEDDIOl9gNioxEDAQMBDIGQIGWecMP+NpAwEDAQOBfEHAIOt8gdmoxEDAQMBAIGcI/OfIOi4oUL144FqyVM6QM542EDAQMBDIRwT+U2SdDIc0uwf3leq9+0upe+7LR5iNqqxBIBrOfOixjB730ktnTx2HN7soqduwmTXFSVhIkIRgca5So7ZV+a3NxLcOjx3eJ1Vr3g3XsfC0Z0UKDrypcvmXuK0kHNq7U8qUryhlylW0ooTbWW7duKqcKZWvWEU5C7t84ayULlte3OHOtbAn4nDpwhmpUbueGTt+5vcNm7bOk+aHwlnb9auX5K56jfKk/PwqNNtkbemXNb8aq7/Cmt36oi5dlKA9u6RSxztdE/L1cbNvkuxWkMPnCgLTHDb5jsd1R0Jp/WZkVU8k/CcP7fmUdOk9RB5/tvMd2f89elAWTPtUvZ49eNR7UuOuelkVKUvnTJKDe3bIpAXfZpk3bYY4eIc7dfyI1K7b8I7FY8O61XJg13YZ8/EU06vjGRd/7cpFmfbpO3L10nmNrANKyrjpy5TP8YFd20nLtg9Lv+FjbWrf7IkfypWL5+SjyYvkxrXL8ubgbjJ87CfSpOW9NpWTncycg2dO/CO+/iWkRKkyNhVx7PB+mfjRG8p//egPJqpF94evl8raFfNVOQu+/U15KMxOCg8NkcsXz0qdBk3veHzq+LelfKUq0rF7/+wUXWiesZmsb+7YJhe/XS3RID5nOFuv2r2XlL7/IXOH/v7gbYk4fUqq9eorZR9pZ/7+1NyZcnP7VvXZCX5/S7S+R6p262UmyAtfr5DL67+XgBat5K5hI1MBFHH2tJxdPF/CT52Ak3MnKf3gw1Kjz0CUt01OzZ0hdUa/Jb5168vOl7veAWylF7tIyTb3yv7XhqT6rUa/QardLPPkzCkSdfGCOPv5S42+g6Qk2maZLNvuCEf0fo2aQjvvB5eXruY2WOZv8sVUcStdRvaPHCqxtzSNysnbW7xq1JIqXXuIW5ly5uzxoaFyZvE8CTm0XxLht9ujchXk6SkBTZub8+wa0Ov/7V0HnBW11738VcAG0qQKAlKlrnSQ3qsgvffelqX3uvS29N5BioAgCEgTBKRJlY5LLyIgokgR/e65a57zZt+bebNF2P0Sf/5038xkkpvk5OYkcw/FzZiZMnXpIb8FL5lPNzZtpNyTZtKtbZvp6lp3MMKkU2D+Mrn3/vGjdGp0IMXkGMO5Jk53BT7HNVf5OP5BzHjxKEXlqpS0REib4dprceNStgHD3GxhrBMuJCr4MaVv3YGe8mA5O2kc3T9xjDUKYlKyshUoTYMmodrD2w9nTh6lEX07ugax8T5ERlw0YwIVLVOZbrOH9OjRb1SsTBXbvAN7t+fQoa9TQP/Rtveab9iyfiWtWjyLZny22S1gE0Kfzpsyimo0bM2CCfZU2tjB3cQLr9+yM8V9JwEdObiH6jZtz2FN36TLP56jeAnelbjJTtKLBOtHHHu8bb0K1K77YMpdoKiTYtOM8UPoh6OHqNvgcZQwURKxgX+zTykZrxDqNusgK4WwpiWzg+gHtnPgpIVuWSBO+8IZ46hZh57SF6JycgTW19avoYtzZ8ogfidrdnp6/z7FzfShADbSHzdv0IG2zeT/46TPSDlHjnfZ5szEMXR75zZKkDc//XH9Oj26doU+aNGWkpevJEFf9jMgPfn5DsXgZXCBecsIoIj06/lzdLQXgzcHT4nvx7Mm3/ucl4DZBwbSre1fC0Bk7TeEAdRPQOkvjjF77/ABip0kKb31fhp6t3BRejttOtrfqjG9niw5vckzLFKychUpXrYcXN7mDKi3KWmpcvTswS9cr2wMNBXd2tRY9se3btLvly9Ryuq1uN6NXWWIkykzxYwbT55L17KtAD9A9jmr3ryTJTs9407z4MwpBrLX6KNxk+mNZCnoT17SH+rURuodN3MWBtR4dP/YEQbt3yhDxwBKUqyk5Le79iecRzbK2new/H1h9nS6vuELyj93Cf1y8gTd2bubfgu+SI9v36IEufMKWGICQzo9fhT9tGuH/H/WAUMpPk80KhnLh7I9Y8DNNWGaTBi4hvL4jZrgZgvjM7gQlyfJFBWryIR38+tNPAkXYqUPFnPgdsrQrrPbs1Z/fL3hc1oyayJNnL+WQS2+260Atb3ffC2iCoWKlxOvEvJLpSp8Kvc95v/fvW3jP+CXiH+vTnG47G3rlaf8RUpxHPK49PNPN6lg0bKUOfu/9Uc++zjfuz/fpvSZs1GRUpUkDC6A+tvtm+junVtUqmJ1+qR2yKRz4sgBOsbUBQA7b6HilCVnHtv69enYSGIpD2dvOiSA079p9ZLZlCptevooX2hKDnHPv9n6JXv3J9ke8WSiSpw0hTxsB9ao1y62x2+//sIrgxz0cYnyoSIEqlJY3bv/2+1S39gMqsXKVpbVwKa1n9GOzeso20f5qET5qqGoi7OnjhHonft371D6TGzT0hXFW9719Ze0buUiacPcBYtRmco1acemtYRVSso06ShD5uyyqkI6fvg7WREh4V6jtwwabMemL0KoHx5DJcpVpe92b6NdbKu7TKUUKFKa6vBkiHa0qpuVfY1tBI99/apFVLhkBbpw5iSd539BW5WsUNVFO3mrs3o2S87cUiesJMKz+vEZrAEg+5rWYxBKQH6jJ7B3zDJPnP7kgfIqB39HCl66kK6sXMYeZDrxrnNPmSWghKQA7+PlX9BTBq79LRoykBajTP7dxfs7PqCX67n0bTpS0tLl5LkjPfzp4cXzlGP4OIqTLr3bO41gHd8vhMd8ev+elDN5hSoE7xnp8U+3Bazfq1qD0jRsamwL+rbup/TKG29QrvFTpE6eqBZj2Z+zyMHehjXZoyxMmbv2cpswVBnUC8yAd4+95xOD+lLCfAXpwx596cdF8+jq6hWUtlkrBrxP5DFsgB4O6CCTDrxjgLsVWGNSQDo3LYhubvmKCi5eyRNdSFBztM2+xnXpjeQp6LfLwcLTK+8c143lu8LlCObyZBs0XCYxK7D2BOInAwfS3YP7ZYLGRO3Jjg8vnKOfv9tLqWrVk3oZE7zV7/fvpkkL17v9fmDPDvHIIBUFfvjBL/d4kLxFmbLmpBad+hD425H9OjM/fY9S8OT8060bNHDMTJGegteG4PZYroOzBFiOn7NaPNmDe3fSzPFDBShwHbRGyQrVqFbjtjRr4jABAFAWfgykdRhEls2dTNs2rqGsfnlECANenH+/kbY867J5U2gzA1KmbH7UpG13etewqurYqArl/bgE1Wve0a3OsN3YQV3pAtMNOfMUFNC5deMa9Rs1jd5LldYSrE+f+J6f7UYpUqURUIEnj8mgZec+bu/AH1b3grIYNcBfeF6IchQpXYk5+ow8oQYRKClMMmUq1aQCRUu75Yu2grDCH3/8Tmd/OEaVajQQ+mH9yoW05ctVEqscFBYAdc3SOXRw3zeU6N2kUl5QOQDGNUvn8kSYWw4C/MDlaNy2q4AlvOQBAc3pF96LgB2uXw2mnkMmSr/Zs3MLywj+TumZturcZwS/+6hXO9jZ11ihm9cuU6/2DcT7f/jgvqyErl66QAl4ZTBkwlxZHXirs3oWogZJk6eUyc2XFWGohvrnB5/BWgFqGt6ce69ytVD5iXfMgIgEAD7au6vL+8RvCvDgkf4WHCze7/t1G1KqGnVc13IFTWdw7iKeXc7hYxmwntK3dapRvJy5KGufgaHe6RSsX2MPJRZTN0gAy9jvJna9+zWW8knXuj1TIIVCvUeVPTkD6qPrV+n+kcOUiYEa4KfK8DorzbzCkxboDkUdeAI8eNLPWMIo/5zFYiOAaMHFq9w8HwXifmMn0dtpPggzWN/atoXOTh5PGdr7022moH49/QPln7eUXuUOpsAaq6NYLGGE1QVWIDmGjmI1n5iWYI1Vwhu8MYaUsjrTTEwbKTvE4I6ZslpNSlW7fihv7sLsabwiWCd0zJspU7nZeXC3VrJM7THkX08eS+5urWpTytTpeAAOl+srFkynjWuWUm0G1bKf1BagBi/cZ/hkSpQ4mXi98ABPfL9f+NF6LTqJBw6P8LP5UxnIZ1EiBsxurWpRvo9LUsPWIZTbYvbqDzGAT5i3RvJoXbuMAErpSjUYnEIomrbdBlEe9vSQ+nVuwsv21NQ6oL+3sSW/YwPwMwZsAD1Ubhq09BfgQfIG1t/v/5aChvem/qNnUBrexESCh54iZWpq03WgJVj392/K6jkJqUv/UfIcJqUpo/rT8CmLBTCMyereH8+d4kkrkDqx3XPmLuiafBVH7o0GgRrL76z1icl17OCu/P8PaejE+fJatAc2kfuOmOoqRstapcXG1eu3oF95ZevftCp9Wr8lla8aQmli3+EwAzpWXGrCxKSVKk16aSestNEvsNq4EnzBRYNY1e0mr+qt7Gu0kQJc7F0E9B8j6kknjx6kMQMDqFrd5lS5ZkNRoPFUZ/VsOe6ncALCm3wH66PfE/jotMzpYtlrTr+cPE7H+vWg+LnyUnKmGE6NHS6gkHfmAhm0CvDkOf47/kd5KHNATzH23iZ1GOTiCvd5edUyBpVTlGfqHAGR3XWqytI+S8/Qg8IxWDN9ozzRLL0GCFhD5ufy8iXC+/7NGx8ZO3dz4+BRXLey899qRYBrqgyxmaN+BTJF7J1nHzxCqukJrMH5PmEvsACD5pGeXZgOuiresDGpFYrf6InCc4fVsz7atzs9+OEEZWI74783Nm2g9ExNqL0ElO9PljbDSgibr4jNjUkSdrHyrJ+x1t/ryUJ4d0y22BNAwp7EhTkzhE5KUqosZWjbya1ez1k+6tGN6zwpfOD2Oyb61nXKCogZvcxjh/bR+KE9ZHCrDUUsOYf37kABA8ZQ2vSZherAQMCAMKaNq5fS50vAOW8RWSjQGrODAilowToKvnCaxg/pIV6RoibgPUIaaxJf//HcaRrcvZVMHJmy+tFyBvmvGOzf/Gc1ifeAesGSth0DuC/pIoMfAOUOe/7Dghbwhldqr2ANemQde6LG90GyK2mKVDR4/ByvYJ2NT1O0qFlSVhMimovEtgVgduodyF76v44IAMbqXtQb4IplfxkG05qN2gi1YAXW2FuYNLwvHT20l0EtNsXlVR/sOmHuaimKHVifOs7efH9/WTkpRRhIZ0EKbNrSr6QvQDYPG7vmZARru7oFnz9jaV9j3gpwW3TqTQWLlXVd6tWuvrRHu+6DvNZZPRtRm78+g/Uz3q0HvQDe12/kBFERR8JyHUvaM0Fj6faOraGMqJbVCvDyzpgvXCi8N6Rb/MxZftacUjIIpGbP+3BAewE0vzGT6E1WGza+0ylYe6JB1AmM3y4F86ZaO+FgcwwZ6VYcY9kvzJ1Bd/fvY8+8H9MZBRzRIL+ePU1HegUw956b+edBwv9jHyADb6gmKV5K3vmMxVsP+7cV77vgohXCPwM4sZmZe9IMuefE0AF078gh+vizNXIdyUyDKOrHbFfsMeQIHCM/GwFZTbapeVMQnrFTGkTZEeU+0r0ze+p3qNDSz0PRHaEamn/46eZ16t6mDjVt38PldeK+PTs306wJw6jrwLGUJUfIhuuqRTPpy88X03gGACypu7asyd5NI/ZyQvZKVMLSFJ4WgBEJ3u1eXioHLfjClS9OlRhPNEBPEctr8KtzmZaZzJTMW+xE4BQKltr+fUe6rRbiMiVodyLCSAcpMGrUOoA54CpewXrbxtW0aOYE8eSNm5jgjrEJZ8VZt29Qid5niqJqHXe6D8t4TE7GZHcvTt6gLEuZAoLnW6FaPUuwBs88MbA3te8+RPYGsMGLUz6+gjXoHqwgKnxaj/wMEwvKnDbDhzR5ZD+6dPEsjZjKq0NewRmT2bO2qtte7ldW9jXmqwC34qf1qXqDlnIJ+yVdmGLLxxQWuHtvdX5hYI1C4sTGpWWLKBZ/UAJ+Fkvot95PTe9VqyEnMWLxTIpTIEjgjs/PmEKJi5agjJ26unHWCqhx31H2xsX78+dZk4U+kbB0B6UAYMc1eOyv8FIH4IgEQAPYOQXrN5nTjJM+5MwtygXgOjawt2xEgnK5sXE9JSxQiD7s5s7vGTlrcPcAMgBull79XWWAPWIlTCR5g96Jybwo7vuL1ZYT5i1AT9nbvPf9IZFBwcQDu4FOONixFXuiD2RFEotPZNw9tF/sqjZfxR6TxvN7tvBqJLd473f2fisbksZJxQzWl3i1cPmzxYRJT3my19atoQenTlKeacy18QassXy/njtDv/OElb49e958IsR4DWUAD52kRGmvv1+cN0s4cqyGrn2xWtqywPzP3AbUnX176ObmjbL5qTaQcQOAEMerivEm2rv/bKLBa36HwbAnezDYSCpdqToff7tMW3kjEqAzdclGWZrj2BqWoOWr1hWBVYCtX95CQlMAoADISFi2Any6Dx4vPDfyzZQlJ5XhY4LwkkGbYLJAwsmCg8yVgxJBwiYkwL8k0ym58hdhXvy6nOGuVKMhAYAXTB9LAGBPx8YAIvDAwMtiExQ8ce/AybKh6Y0GuX/vZ+r9D0+KY4xQTj959ABvrpZnSugDS7DGpLRl/SpZnsM7hieMf2s0aOXWFvjD6l541A+x4c5tAO4a9cYRQyvPWtE3rfz7Cec8vE9HoT18BWu0z5AereVsfGW2bbL3UskqJw5vOBcqXtZFP2TzyycbxzhCWKzcJ64JzEiDWNXNzr5GQynAxR4IqJkkTCVt541RbDb24RUfbARKxVOdXyhYY3Dc3LyBqYrl9JQNio25NI34CBt7yQA0xUGryuKkxRPueBi052dMltMg2GBUYI1jbTgFgpMlijoQcOKTBbf4ZEF29nBxCgJe34U50+UUBo6lJS5cnL1Rf8dgbWyE9LxET8pL9R9GDmGAPCgUyFup01Lm7r3djtbhGSNYo+xHegdwWS6L54s64USKMYHCAYcNwHvyz9G9V3kJDboBx9nwHpXgAcM2OPL2N69SQEHg6B4mE5UA6li5CNhzG8TJkEnoGgCuSmaw3t+6qdAR+XmT8hXm2ZBu86mQM3w6JFXNuvIOY/lwwgd2TdO4uSxBjdfwrKJ+vP1+Zc1KusL94jlv8mBvICO3DyY0Y8IEgg3VXEEz5GijSl8sn09rls11u1d52Ts2f0FL50yS5TQG6ePHj+Q+AB4STopMHzeEMDBi84Temb3fdJmyELjQqrWbUsXq9eW+Tk0+kTPNOCKG9N2urXKkK+RDnJhUnDd/sJGINKJvJ6ERjEf+sFG4FRtkfErjbfa26zXvRPkKlxSqBScaeg4NElrGnMCFb/9qrSh/g0uvUquxeI5I3sAa10D3zJ8yWvh4JNAm4O3By1t51s/YOVg2b6qsDnCeGe/E+/Bec7K6FxTU1DEDCefNEyRKzHYdIROhrzQI2iIhT1C/8UTqK1ijfDjRMXfySDnuCLzByaAm7bpTjtwhjhrorBULpjG/fV82nHsNmySbk2bP2s4OVvY12kkBLk4E7dmxiSf6m/Je7GfgZJKR+jHX+YWCtbESWO6Ck/amNhyqZ0TAD8+Zt4PGnFr6R0CWkgV46794s0KdooiofJ3kg49ynvPAsCoDTqL8zYNenb5xkv9/cS8G15+87MX+g7eEFYzT9gMH+fTJH5Zf6D3kY2pv8hd85uNxVvVGeXGKBKdDfHkOR/B+501P89FCAJrVGV6UH+XDc+B9nSScgADnHvufE1e+PgsQecgrNhxhtHunt3vh6eIEBDxbJx85ocwoL8od1gSbPuWJ5+04ns+gYzMSk6ZduezsYGdfM+CiHXEU1PzeiKizna185qztMtLXtQW0BbQFopsFIto7Do99NFiHx3r6WW0BbYFobQHQMjhFhGN66XwIcRCZxkBvRzoAABmdSURBVNBgHZnW1XlrC2gLaAtEkAU0WEeQIXU22gLaAtoCkWkBDdaRaV2dt7aAtoC2QARZQIN1BBlSZ6MtoC2gLRCZFtBgHZnW1XlrC2gLaAtEkAU0WEeQIXU22gLaAtoCkWkBDdaRaV2dt7aAtoC2QARZwGewjmpabxFkn/8sG3wBdYcD5CP2Q1iljSKzsPh89xoH2okMrT98KfeY4x/HjPV6qAA9vtQJcTpOnzgin387Tb48C43AN954Sz67Dm+6eonz4s+VEaAJAfDx+XzMmLEdf+33MvUXX2wYVrsZ9SbDmoeT5xBM6q+//5JP61+25DNY/9daby+boSK7PN9u/4oP3w/n4PvrvH5iG9llsMo/vF9yWWnkqbxbdu4bKpi9pzIhjvG5U8clMD7ieiBg/ecswTV21krHgOrLswEtalD2XAWoYSv/cDdB56bVRA4LoWBVXOSOvQIl+JST9DL1F19s6KRuxnuNcVDCmoevz8EhQfx09EOjopCvz0f2fRqsI9vCPub/Mg0+T0UOL1h708jDu5yCtYrSpyY2RM27yjJPYfnCzJdnIwusVSjWcbNXuame+9JlXqb+4osNfamTp3v+S7CGsg0CWNVsFKIw9bKlMIM1YhDv/3YbSw5d4rCWyak0a9Uh9q85IdTiAdZygzeBqFWIAYx7f+IwlQgZiUhV5Ti8pRIN9aZnpvKBjNDurRsl8A7CRxrjCaNM0K37hSP9IVj9xxxSEmn39o0S0jA+Lz1Llq8mZUBaztG74J1l56DtSIjw9vdff1NxDrsIHT4EqVI6f7iOoPAIkYjYyvAmzNpqvuq6IS/IU23bsFr0/zJyqE4EhjF71lZadGY7I/Tm4X27RJkEQfGz5wqpk7LJPf5sFuoaiKOMkJtIaI8HrDEHGx4/vI/jIGcU6aFDrMxxjAPIp+ClIMKCInawAtT2PYYQvGRITiF0aSmWwnqDAygheWu7rVxPTxp5qg5msLZqa4Qy3coxljGoipauLH3g4cMH0scQBhRKHmin95hOQqD/myznlYtlrT7kNkPUvCtMQ8CLRchPJPUu9Sx+O/zdLskf0dWgfYiA+EbPGjGat321hm5xRDyEYUWfUrGi8e7kHAUOdXqF+yjCqBqT0bNezbJW6HMQPEDat+trOseA8YwDRuUuWNRNMsyqv1w8e4pOs9RWzYatXBQa2hYSZ4hrbdUvVR+AziPEbFv69+Xxc5c2r1tOCCX6ftoMLrV5b+Uz29CTDZyMDaO9zGBtZSNfxoSn+uI5b2MNsau/ZZwKvnCWqTDWovwnJKv5Xf/F32EGawQl3797u/BvP7DMzfsfZGBppSmhygxxS8T7hfoDoo4h5CO03O6w8OzbHO0MnRqBxfuNnCbPetMzU/lAPSMuC9Pe4OcAMpArwlIYHWY0DyqEtsTkceXH86LH9j8W2r0SfF6ChKNTI/YxZIYA2EZJIbwbMY+fc1S7HoMniGbcWg7dOXHeWo6yFYcucWMN7NqC2rKs0nvvpxVdNqO2GoDDSjfPaBgMAsgO/c5xud/jWNoIu4hIXoiTrLxFKy06s5GhYgI1E0xGsEWixEklYL8nm0B0FXJRiIo2dfQAFibdQwi6j1CaEDkFqEHSCe11l6W+EF4TQKYAFZJY0Lr7V4suMauXzJX7vbXdyoXTQ2nkGSPBmcHaqq0xkWz4fIkIpqKstVjBBHGN0cemLtkgEwdCj0IDEGriEI0FbZKRNRtvs44hBFfxL5RmsrLgrXqXehYhT9ezsCviOKNNHjy4J+FZCxQtIzQIJqr+XZpJJLvMrKt4kgEODgdsgIkC70ZkvnjxE0r5mrTt5hWsQeX8xhONElHt3aGhxGZG3TBOug0aJyKrdv3lFkvNDevVTrQHEUoU0QE7sTwWJMgatupi2S/RBw5zPHFM4OgbA1i/EnnduHrJFQ97yIR5Ugdv5TPb0GyDxm26+jw2zH3bDNbeyuDrmPBUX6uxhraYwjaCpNoZ1nWE4AXED5wq0kcEmIcZrBH2EV4cCv81eyyISTxl8QbxRoxJNWRXHhxQg4b3iCWckrpZzIoY8JSUKoc3PTOVj3pOARRAHmA/MKAFh9F8TH1HTpUBiwE8rFd79o5j0Eg2LoAd5Q1oXoPVnstRjYatLcEaA6RL8+pUnzX8oKAMLTisJCbOXSPB6wHWRm01O908o01Q5x1b1klMZsRARkxlxFDGpAKw5sidllp0xryw0YSBCU+xFXNtWHEgfCQ6kzebVKnVSOIbC1izoOpEDrIfmzXzeratJ4re47mOCD+JCQWbf1BbsdKiq8oqLVVYrcVKf88cb9hYB29g7a2tv+FYzRDYVRObJ7CAMG1f7hs//3RL1GSg4zho3GwJFg/vFmrd0EM0PguP1r/pp5Qzb0EWLRgoKwqlVlOc+wDAeumcIPaAt9KYGcslLCr6CfJHP4EYKoAKfa3fqOkew3caPWvzAEb/RHtCXsy/WXVRJUe+dv0FYUTRHwEo0EZUuosDx84mrKis9AbRB9B3IbQApwSpa8taoqiOWNFwSFQ4UG/l82R/ow2cjA07sPZWBl/HhLm+drqPCLGKMYDVFFZS0Pzs0HOoiBBDlAKOFhIcJAgiRGYKM1h/uWoxfb50NsXgf5Lwchie7shpS2V29gTWynMxD7T9rCI9bewgGjNzOXtribzqmZk7xKWL5xiMmkuA+EzZPhI9OUg7VarewPX6QV1b0iUOTg+vTyXwa6A9AARWnjXuh2YcBk+vwEnUuUlV1mArw8HrO7qAy6itZqebZ7QJPBfYrTeLvKoE2gVB9gFAODFgpUVnlGcC/YEOhIEFUU+VlA6dJ5tgRdOl3ygBa3hwynMyA+r8qWPoxJH9snEXHi06lCksYK36jLGts/rlJV/A2qgaDoCE96o2CDEppc2QWdTRjf3qEquvQxUFajJG1RfoPOYrXEqeD2QH4OL5U27xpTHZgi6DsIGVoADs4A2sEd1tVP/OQlthBQpQQl1bd+kvnq5VfwFYw3nBJmvQgrU0fewQVgD/Wbx9u35p7gMoIxTlofwOwG3bbaBMdFbl8wTWRvvblcEK4IyetVUZjHl4GxO4x1xfO91HOH3wrJ9wLP0kLBKNFQfEEIqUqih9+vzpE/LqdJmySltFZgoTWIPnbVe/ovCZ4MkWsqe4e+uGcIM1QMqbnpm5Q8AL7e/fTMAanbpDw0r833y8kxsiyYWd3YAWNWU5jOUhlqoqgVvHpNKmbjmZISFXhAQpKFwDDYIE7nLSiL4Ez3EN84ugT6BK4WmzzU43z9iIyPPH86dp1PRlQlsgLZg2hvnLdQLWWGpbadEZ81K6daoDGa91aFSZl/p5Q9kkOy+Vm7GEVVjA2pMWHRRYsufyrkUXXrA2t3VkgTXAoF+nJtSAQRmrKSRZYbHeXrGynwhYQwcQAxTcvZHKgaMBGiqsYI2JGvUaFjRfaJd+nZtSrgJFBADs+gvAGn3Gv1k14ci/WLGA6rFTUZL3E+z6pSewRr1x+gtgBOoIK6+VrH3prXx2YG1XBl/B2spGvo4Jc33tdB+BMa+xiAIoKVBwYAY8jbXIBGmVd5jAOsOHOah9g4qy7KvBO6eLmCKACGV4PesrwRe96pnZgfUq9iq+5E0/aPWlTpeJNwW+onOnj4tHgg08bBr+zecnsSQDBQKaYEiPNnSdOSkIrmIDZ/O6Feyl+7nAGksgLIuxgZWaN1rA9SJ5Amsnum7qNAP4SEgDQZpqM3vWEJ0FWL/5VhxLLTpjx4DaCYRJwa1hoGIJjSUbaAnl0RhtAk8CauGgjsIC1p606EDn4J3etOiiCliDChrE+xK3GKCgAYh9jU3ssV678iP3nxAaRCmuY8kLtevHjx7RwX07XVqPYQfrINq5eb14w1BIGdStpWzKA6zt+otSUwGof8+ita++8qrQGqAk7fqlJ7AGuKbNkIUPAGxgsF8jKytsOHornx1Y25UBm7V4D/qRomJUHzd61qCgvJXB1zFhrq+d7iOoQHz3gD2gA3u2s1M1NmqBNZaUIOWxm40EIIOnGF6wNtIgZj0zO7DGpsqqxTNF7w6dHZ5zsw49xfuBOrXSsgNH3JVnydd5gw1inBOH9xJpJ/wO4IvFgrTKs0bdsHGHJWZj3igqWrqSV7DGBV913XAvdPvWsu7gY5Yvgr5eTlZzxmSjeFg7LTpj58Tu/fypo+nY99+JRmMh5jrhOYMKwYYZTp3AJu/wpld91g6Ex4YUFrAWLTqemHHSAvRSbdYtLFyygqUWXVQBa+x1YD9iBlMAOD2EzepyVWpLfY2nQXCCAyrrv7O0HfhcnA7ChiVSWMEam7mjB3ThieIqYRP3yR9/yFlftbS26y949zE+0TN+SA9W3S5JrQP+XZJb9UtPYD2ib0c6c/Ko1A2rZ5wJtyqfHVjbjY05rLl47OBeUZ43JzcaxMZGvowJT/W1GmsnjxwQLUpQXR+wg4NTUC+9Zx3KivwDdNIwM5kl7j3d6+S38OiZ4YgQDGs+Rog8Y/KON3bsjQnlxwkRb1pvTsqt7rXTdVP3+fJuOy06Y/lA/WCTzMjR4zpsAs8XenwRlV6kFl1E1cEqn0d8osPuy0J8uYdVUHi0Bs1lAJ2BPQVP2oK+9BerOvnaL5EHJiIcPTRrP1qVz5d28VQGTFLwXrv0H+VLFkL5eLOROQNvY8IbnnnSfcQKG5gSkRjhU0VNN/lMg4Qlc/2MtoC2gLaAnQVWLpohn3eHJVyAXd7R6boG6+jUmrou2gLaAtHWAhqso23T6oppC2gLRCcLaLCOTq2p66ItoC0QbS2gwTraNq2umLaAtkB0soAG6+jUmrou2gLaAtHWAhqso23T6oppC2gLRCcLaLCOTq2p66ItoC0QbS2gwTraNq2umLaAtkB0ssD/e7D2VcsOUdDOsM4f4qKYv4IMS4cwavGF5fkX8Qw+6X/69LHr1Up0IDLKEpm6fijvz6x3iUhq+NTfaUI8bMSZQUIgrtc4FrhVQjgAfEaOAGgvKh3lz7kRNS5JsvcitAgIsoWvHTNl9YvQfHVmoS3gCKytdPSiqnF9lUdCzO6De3a6hTUNT52t4hqHJ9/wPotA9ohX8n7a9KGyUtHu1IX5a3eF93Ven3eq62dVbk8vmTVxmKh/BE5a6LgOiP/x64P7rucQyyMPB11C3BRPwB00vA9PCu/Tp/VauJ75L8cSwg20qlOGEB1RRZh0XOl/HjCXG5+K3+awrghxrFPkWsARWFvp6EVuMSMvd1/BGkokxVjiCbF9IyK9rGCNMLHpMmXzKA6LYFhQN0HoWMggRSZYO9X1syp3ZIA1JM0QMRGCFwj6tJ9lxRDopzerJRlDp2LltnDGOAkqBrEClf7rsYTIjlD3Ca/CibncCIL0hGPEQ95Mp8i1gM9g7UlHbxfHsEaglFKsqYh06thhifxVp2l7+Ts8WmyYweFdIaIbBgMkqrCEK1mhqkvzD+9APNpdrJEG+SZQFFDXQBAc9bxZJ9EX7UOjya309nAfArVDFxCDoAhLe0GvLRV7pYiTbaVTaQZrO10/XzUFUSa7vFKmSSehM4M56iAiuwF0kDAQoX4RL0FCsbtqV3MXVOForcAabQ87QC4MyiWvc4S+ohywPWmKVK7soG+3g6MkXr18UQLdF+WQuwk4JjSSJ12/8JQbAgZ7d25icH1KeT8uLmpFRs/aiUYgPGsVE1xVBpH4ED7TGJ3RW9/0pknppC9/wCFMMT5y5i4oY+45e89FSlcUKbKtGz4XRRzEs1bOhWoP9Es7PVMnWpr7vtkiOp7lq9YRUyByJcIlI2ofJqd8H5cQPVQkNSYR9fHE4f0SlrgQqzZlyPyvaEbkwl3Uzt1nsPakozdhWE+JRoX4yEjQxlvFITnnrd4pf4dHi03FjMaM/ZCXnP9q/iVhZZO5EukPihBjB3UTQQAAOSSq0BkhQKCeN+ok5uCObad9aGxOO709BKBBnRHaFZHu4EUBgKAigbCSVjqVRrC2e48TTUFf8vrzz2cykBDRD+3XqE2AxCaHMs7p499zHOf4LNhaTPQNPSVfwBplRjzle6zrCK705rUrwvP2HBok4WjBc0Lp5/7dn1ncNq0EuUdUud6sygOA8RR2M6zlxmSKvgqKAh4xyoLJFVEYQYMAYHzVz1T92gzWyKNj4yoSO71dt0GWfdPTWDrL+n5O+nJGdkwg5YXJMCFLSmHVg1jQ0H5E5EXYE7HNIWmHaIvG0K12eqZOtDSns8qTUW0IlA/ib0On9HeO9AinABMYxoQak0qPFZqjkLAbPH6OjGGdrC3gM1gjG7M0Ewa3HViHVYvNSvOvWt3mLBjQUID3nXgJXaEVlfYcRHTRC8w6ib5o2RnNZaW391HewqJ9CM+mXfdBEuIRHtPiWRPEIwVYW+lUGsHaF10/XzUFfckLnvOA0TOlfNCZBD+N4OpIZgms8IA1wHnAmFniNUMLEDJryZi7Rbzwz+ZNkYDz0CpMyUrkCLk6qGsrubfn0IkewTqs5e7bsTE94Y3RfiOnC0hfZ2mmwd1aUYJEiQWsnWoEevKsYSfUD6s6iFRY9c2kyVOGGktO+7IaH0rQGKrdsyYGuvoeVE2gatO++xCJX+4JrL1pXDrR0jTGh1bCDBDIhSo8QotOGTWARYUPisYq9D0xJtX4CL5wRmwGQWbUQ6cXDNZh1WKz0/xry94LdBdDduNDpLEA0PDYOvUOFE8bHcOok+iLlp3RXFZ6e355C4nIrTH/p0+esK5jKVdntNKpNIK1U10/K01Bp3lNGNpTNsuUCk5EgjUU5Y0bWpAuA7c7dclGUbdB20EuSSUIPWxjWmTm8i0ewdrYl3wtt2hR1igh2pzV6jV3vQuqNlCEAVg71Qj0BNagUTo2/oQVzXOJtqNV34TQhNHxUXqZTvqyWa0IMlw92tQVwVwozOA0TSfWDYX9QXN5AmtPGpegxSYN70tHD+2VlQdWWZAZmzB3tdjO7LAZwRpiJBtXL6WZK7528fZKEAGq6RAUMY/J1rXLiApPTVac0ikSwXpiYC8Wd/3RtRMMzhNK5UYaxDjAnGixqc7oSfMPPFgjnr3bN6gkXmHVOk3dagnq5Bdefpk7hi9adsaMrPT2EKQcwqvKs8Fz4OmgsgHPoWqdJpY6lUawdqrrZwXWTvNCG0IpJzLAWq0GlE0xuQFEsPKBCOkl9qxGTF0iqxIklOUa70GMnv6ZLVg7KXe7+hVEABdAhgS6pW/HRsRusIC1k36J5z2BNUBqxcLp1IIpuIJFy1j2TVB4ZtBz2pcjEqyNGpegmrzpoNqBNVSasJk6itsPbY+khKDHzV4ltJt5TEIHFRScBmv7qSpcNIjibEuUr8pS7MloHQt1grP1BtZ2WmzG4qrO6Enzrw9z5Ol40wJL6S3rVwklgnOe8C7wL5ZVnnQSfdWyU+Ww09sbPTCAN1UPUZ5CxXl5HU82Vv5gTT7YA8e4rHQqjWBt9x6zVJQVWDvNywnogS6AfY+zfBi47VqN29KbzNUXZj7SnNTxNmgVQk3+5NEDvKm3iarXb0kVq9eXzWgoiWfPlZ/ys3L4ORah3c5afDWZJ8dmlZ1UlJNyw4nA0cviLHqbPnM20dJDXTCpA6yd9EsF1gneTUx5ChaX0yAQ0MVS/0OW9+rK8l6gQqz6pifQc9qXIwuswXc70dI0etbYL+ndoaGouFSoVlc2ENetWMgb/9mpS79RHsekEaxXLJhO0AjtM3yy7dl1e2iLfneEC6yxoTZ2SDcKPn+G4r4TXxrlIHNl3sAa5vNVp1B1RtH8Yz7uzu2bsmGFkybq9AJOoiybN5V2sSo0PAJstsDTrVKrsceOgff7omVnbGYrvT3w9csXTJPTIFguVqhWj+ZNGSVajRDltdKpNJ8GcaLrZwXWKLuTvJyAHu49cmCP2yjAGWN4wp7AOkvOPLyBeEc22zDpFitbRQD+1VdDPOm9O7cIqIGGwYZn2Sq1pO1w9C0iwfoJA+oi9vhw0gVedQ5Wd4c3f+PaZdc5a1/7pQJrdc4aFFyKlGlkQ7Zs5Zr0P5bCQrLqm57A2mlfjiywNtIgZh1UO88a18FDz2VNRXz09b//vUK58hemhq0DZPPTkwNlBGtMEqfYCYBAL8a6Tu4WcATW3oznTY/Pyth2enDmhrV6BzYyHj54ILvexjOu3t4fFi07T3p7GGCvMAipd17ijywGsjq2Wgrj/U51KiNS1y8i83I6cIyrAdEzjPW6C6TNecEjg2amL23ntBzG+9Fe4IetNEPt+qXT9zvtm07vd1oeX+8Pjw4q3oG9I3zpCx7e14QTNaAXYzFXrlNoC0QIWEeGYT3NwpHxnvDkeZGVjmfyl3CZmYKJEeN/tG/X1wI6wyYuiJBP0sNTthf9rJ3K94sun36/tkBUs8BLC9b4Mmp2UCDhmB746Zcxwdv/fPFsuhx8jmLwP2n4/HDlmo3C/ZXYy1hXp2WaMqq/7CMUL/eJ00f1/doC2gIeLPDSgrVuLW0BbQFtAW2Bfy2gwVr3Bm0BbQFtgShgAQ3WUaCRdBG1BbQFtAU0WOs+oC2gLaAtEAUsoME6CjSSLqK2gLaAtoAGa90HtAW0BbQFooAFNFhHgUbSRdQW0BbQFojx11/POaKsTtoC2gLaAtoCL7MFYvAnnhqsX+YW0mXTFtAW0BZgC2iw1t1AW0BbQFsgClhAg3UUaCRdRG0BbQFtAQ3Wug9oC2gLaAtEAQtosI4CjaSLqC2gLaAtoMFa9wFtAW0BbYEoYAEN1lGgkXQRtQW0BbQF/g+mLi13t8hrnQAAAABJRU5ErkJggg==;" vertex="1" parent="1">
          <mxGeometry x="2740" y="730" width="363" height="407" as="geometry" />
        </mxCell>
      </root>
    </mxGraphModel>
  </diagram>
</mxfile>
